<?xml version="1.0" standalone="no"?>
<!DOCTYPE svg PUBLIC "-//W3C//DTD SVG 1.1//EN" "http://www.w3.org/Graphics/SVG/1.1/DTD/svg11.dtd" >
<svg>
<metadata>
Created by FontForge 20090914 at Sun May 13 09:23:27 2018
 By www-data
&#194;&#169; 2004 Microsoft Corporation. All Rights Reserved.
</metadata>
<defs>
<font id="Cambria-Italic" horiz-adv-x="808" >
  <font-face 
    font-family="Cambria"
    font-weight="400"
    font-style="italic"
    font-stretch="normal"
    units-per-em="2048"
    panose-1="2 4 5 3 5 4 6 10 2 4"
    ascent="1593"
    descent="-455"
    x-height="956"
    cap-height="1365"
    bbox="-678.999 -450 2385 1946"
    underline-thickness="116"
    underline-position="-183"
    slope="-12.4"
    unicode-range="U+000D-U+FB04"
  />
<missing-glyph horiz-adv-x="1348" 
d="M567 487l-0.000976562 21.9971c0 14.667 1 28.167 3 40.5s6.66699 25.5 14 39.5s18 29.833 32 47.5s33 39.5 57 65.5c15.333 16.667 29.333 32.834 42 48.501s23.5 32 32.5 49s16 35 21 54s7.5 40.167 7.5 63.5c0 50 -10.833 88.667 -32.5 116s-53.167 41 -94.5 41
c-21.333 0 -40 -3.33301 -56 -10s-30 -16 -42 -28s-22.167 -26.333 -30.5 -43s-15.5 -35 -21.5 -55h-96v130c40 20 82.833 37.667 128.5 53s90.834 23 135.501 23c46.667 0 86.5 -4.83301 119.5 -14.5s59.833 -23 80.5 -40s35.667 -37.167 45 -60.5s14 -48.666 14 -75.999
c0 -25.333 -2.5 -48.333 -7.5 -69s-13.5 -41.167 -25.5 -61.5s-28 -42.166 -48 -65.499s-44.667 -50 -74 -80c-21.333 -22 -38.333 -40.333 -51 -55s-22.5 -28.5 -29.5 -41.5s-11.667 -26.167 -14 -39.5s-3.5 -29.333 -3.5 -48v-6h-106zM690.999 376.997v-161h-144v161h144z
M1055 92.9971v1178h-762v-1178h762zM1158 1364v-1364h-968v1364h968z" />
    <glyph glyph-name="uniFB03" unicode="f&#xfb01;" horiz-adv-x="1713" 
d="M254 -17c-22.667 -106.667 -53.8281 -191.333 -93.4951 -254s-87.834 -107.667 -144.501 -135s-125.334 -41 -206.001 -41c-29.333 0 -55.666 3.33301 -78.999 10l23 88c16 -5.33301 39.333 -8 70 -8c35.333 0 64.166 4.66699 86.499 14s43 24.5 62 45.5s37 51.667 54 92
s33.167 93.5 48.5 159.5l203 901h-121l12 51c32.667 3.33301 55.667 7.83301 69 13.5s24.166 13.334 32.499 23.001s15.833 23.334 22.5 41.001s16.334 48.167 29.001 91.5c35.333 120 89.833 210.167 163.5 270.5s167.5 90.5 281.5 90.5
c65.333 0 121.666 -5.33301 168.999 -16l-39 -170h-88c-9.33301 38 -21.5 65.333 -36.5 82s-37.167 25 -66.5 25c-38 0 -70.333 -10.333 -97 -31s-49.5 -51.834 -68.5 -93.501s-36.5 -97.5 -52.5 -167.5l-25 -109h376c6.66699 10.667 13.334 26.667 20.001 48l22 71
c35.333 120 88.5 210.167 159.5 270.5s161.833 90.5 272.5 90.5c46 0 86.333 -3.33301 121 -10l-40 -176h-81c0 33.333 -7 58.666 -21 75.999s-32.667 26 -56 26c-42 0 -77.333 -19.667 -106 -59s-56 -113.666 -82 -222.999l-26 -114h229l-22 -101h-230l-186 -872
c-22.667 -106.667 -53.834 -191.334 -93.501 -254.001s-87.834 -107.667 -144.501 -135s-125.334 -41 -206.001 -41c-29.333 0 -55.666 3.33301 -78.999 10l23 88c16 -5.33301 39.333 -8 70 -8c35.333 0 64.166 4.66699 86.499 14s43 24.5 62 45.5s37 51.667 54 92
s33.167 93.5 48.5 159.5l203 901h-397zM1718.01 1348l-46 -194h-177l46 194h177zM1471.01 250.001c-7.33301 -34 -12 -58.8311 -14 -74.498s-3 -28.834 -3 -39.501c0 -20 3.33301 -35.667 10 -47s17 -20 31 -26s37 -10.667 69 -14l-9 -49h-310l151 674
c8.66699 38.667 14.667 69.5 18 92.5s5 42.167 5 57.5c0 19.333 -2.83301 34.333 -8.5 45s-15.167 18.667 -28.5 24s-36.333 8.66602 -69 9.99902l11 53l244 9h59z" />
    <glyph glyph-name="uniFB04" unicode="f&#xfb02;" horiz-adv-x="1704" 
d="M254 -17c-22.667 -106.667 -53.8291 -191.332 -93.4961 -253.999s-87.834 -107.667 -144.501 -135s-125.334 -41 -206.001 -41c-29.333 0 -55.666 3.33301 -78.999 10l23 88c16 -5.33301 39.333 -8 70 -8c35.333 0 64.166 4.66699 86.499 14s43 24.5 62 45.5
s37 51.667 54 92s33.167 93.5 48.5 159.5l203 901h-121l12 51c32.667 3.33301 55.667 7.83301 69 13.5s24.166 13.334 32.499 23.001s15.833 23.334 22.5 41.001s16.334 48.167 29.001 91.5c35.333 120 89.833 210.167 163.5 270.5s167.5 90.5 281.5 90.5
c65.333 0 121.666 -5.33301 168.999 -16l-39 -170h-88c-9.33301 38 -21.5 65.333 -36.5 82s-37.167 25 -66.5 25c-38 0 -70.333 -10.333 -97 -31s-49.5 -51.834 -68.5 -93.501s-36.5 -97.5 -52.5 -167.5l-25 -109h376c6.66699 10.667 13.334 26.667 20.001 48l22 71
c35.333 120 89 210.167 161 270.5s163.333 90.5 274 90.5c48 0 90.667 -3.66699 128 -11l-1 -3l220 8h59l-260 -1180c-7.33301 -32 -12 -56.167 -14 -72.5s-3 -30.166 -3 -41.499c0 -20 3.33301 -35.667 10 -47s17 -20 31 -26s37 -10.667 69 -14l-8 -49h-312l258 1148
c6.66699 29.333 11.334 51.333 14.001 66s4.66699 28.667 6 42s2 25 2 35c0 24 -5.66699 41.667 -17 53s-33.666 18.666 -66.999 21.999l-27 -116h-86c0 31.333 -7 56.166 -21 74.499s-33.333 27.5 -58 27.5c-43.333 0 -79.833 -20.333 -109.5 -61
s-54.834 -105.667 -75.501 -195l-32 -140h229l-22 -101h-230l-186 -872c-22.667 -106.667 -53.834 -191.334 -93.501 -254.001s-87.834 -107.667 -144.501 -135s-125.334 -41 -206.001 -41c-29.333 0 -55.666 3.33301 -78.999 10l23 88c16 -5.33301 39.333 -8 70 -8
c35.333 0 64.166 4.66699 86.499 14s43 24.5 62 45.5s37 51.667 54 92s33.167 93.5 48.5 159.5l203 901h-397z" />
    <glyph glyph-name="uniFB00_b.liga" unicode="&#xfb00;b" horiz-adv-x="2225" 
d="M254 -17c-22.667 -106.667 -53.8271 -191.331 -93.4941 -253.998s-87.834 -107.667 -144.501 -135s-125.334 -41 -206.001 -41c-29.333 0 -55.666 3.33301 -78.999 10l23 88c16 -5.33301 39.333 -8 70 -8c35.333 0 64.166 4.66699 86.499 14s43 24.5 62 45.5
s37 51.667 54 92s33.167 93.5 48.5 159.5l203 901h-121l12 51c32.667 3.33301 55.667 7.83301 69 13.5s24.166 13.334 32.499 23.001s15.833 23.334 22.5 41.001s16.334 48.167 29.001 91.5c35.333 120 89.833 210.167 163.5 270.5s167.5 90.5 281.5 90.5
c65.333 0 121.666 -5.33301 168.999 -16l-39 -170h-88c-9.33301 38 -21.5 65.333 -36.5 82s-37.167 25 -66.5 25c-38 0 -70.333 -10.333 -97 -31s-49.5 -51.834 -68.5 -93.501s-36.5 -97.5 -52.5 -167.5l-25 -109h376c6.66699 10.667 13.334 26.667 20.001 48l22 71
c35.333 120 88.5 210.167 159.5 270.5s161.833 90.5 272.5 90.5c46 0 86.333 -3.33301 121 -10l-1 -5l232 9h58l-176 -700l13 -4c64.667 86.667 125.334 149.334 182.001 188.001s113.334 58 170.001 58c72.667 0 129.167 -27.667 169.5 -83s60.5 -133.333 60.5 -234
c0 -72 -9.83301 -144.333 -29.5 -217s-47 -138.334 -82 -197.001s-74 -106.834 -117 -144.501s-88.333 -65.834 -136 -84.501s-97.834 -28 -150.501 -28c-88.667 0 -167.334 21.667 -236.001 65l-92 -65l-64 16l259 1143c4 16.667 8.83301 40.667 14.5 72
s8.5 56.666 8.5 75.999c0 25.333 -6.83301 43.833 -20.5 55.5s-38.834 18.834 -75.501 21.501l-27 -118h-81c0 33.333 -7 58.666 -21 75.999s-32.667 26 -56 26c-42 0 -77.333 -19.667 -106 -59s-56 -113.666 -82 -222.999l-26 -114h229l-22 -101h-230l-186 -872
c-22.667 -106.667 -53.834 -191.334 -93.501 -254.001s-87.834 -107.667 -144.501 -135s-125.334 -41 -206.001 -41c-29.333 0 -55.666 3.33301 -78.999 10l23 88c16 -5.33301 39.333 -8 70 -8c35.333 0 64.166 4.66699 86.499 14s43 24.5 62 45.5s37 51.667 54 92
s33.167 93.5 48.5 159.5l203 901h-397zM1479.01 348.003c-6.66699 -30 -10.834 -55.5029 -12.501 -76.5029s-2.5 -40.833 -2.5 -59.5c0 -52.667 11.5 -90.667 34.5 -114s61.167 -35 114.5 -35c35.333 0 67.666 7.16699 96.999 21.5s56.833 34.5 82.5 60.5
s48.834 57.333 69.501 94s38.834 78.334 54.501 125.001s27.5 94.834 35.5 144.501s12 95.834 12 138.501c0 69.333 -9.83301 121.333 -29.5 156s-51.167 52 -94.5 52c-32 0 -63.5 -10.167 -94.5 -30.5s-65.5 -54 -103.5 -101s-69 -95.167 -93 -144.5
s-44.333 -112.333 -61 -189z" />
    <glyph glyph-name="uniFB00_h.liga" unicode="&#xfb00;h" horiz-adv-x="2244" 
d="M254 -17c-22.667 -106.667 -53.8262 -191.336 -93.4932 -254.003s-87.834 -107.667 -144.501 -135s-125.334 -41 -206.001 -41c-29.333 0 -55.666 3.33301 -78.999 10l23 88c16 -5.33301 39.333 -8 70 -8c35.333 0 64.166 4.66699 86.499 14s43 24.5 62 45.5
s37 51.667 54 92s33.167 93.5 48.5 159.5l203 901h-121l12 51c32.667 3.33301 55.667 7.83301 69 13.5s24.166 13.334 32.499 23.001s15.833 23.334 22.5 41.001s16.334 48.167 29.001 91.5c35.333 120 89.833 210.167 163.5 270.5s167.5 90.5 281.5 90.5
c65.333 0 121.666 -5.33301 168.999 -16l-39 -170h-88c-9.33301 38 -21.5 65.333 -36.5 82s-37.167 25 -66.5 25c-38 0 -70.333 -10.333 -97 -31s-49.5 -51.834 -68.5 -93.501s-36.5 -97.5 -52.5 -167.5l-25 -109h376c6.66699 10.667 13.334 26.667 20.001 48l22 71
c35.333 120 88.5 210.167 159.5 270.5s161.833 90.5 272.5 90.5c46 0 86.333 -3.33301 121 -10l-1 -4l231 8h58l-172 -693l12 -4c62.667 83.333 122.334 144 179.001 182s114.334 57 173.001 57c64.667 0 113.667 -17.833 147 -53.5s50 -88.5 50 -158.5
c0 -42.667 -6.66699 -94 -20 -154l-84 -356c-6.66699 -28.667 -11.334 -51.667 -14.001 -69s-4 -32.333 -4 -45c0 -20.667 3.5 -36.667 10.5 -48s17.667 -19.833 32 -25.5s37.166 -10.167 68.499 -13.5l-9 -49h-314l126 508c9.33301 36.667 17.5 73.834 24.5 111.501
s10.5 71.834 10.5 102.501c0 48 -8 82.167 -24 102.5s-43 30.5 -81 30.5c-27.333 0 -57.5 -11.333 -90.5 -34s-67.833 -57.167 -104.5 -103.5s-65.834 -90.666 -87.501 -132.999s-38.834 -92.833 -51.501 -151.5l-91 -433h-173l257 1143c7.33301 33.333 12.5 57.5 15.5 72.5
s5.16699 28.833 6.5 41.5s2 24 2 34c0 26 -7 44.667 -21 56s-38.667 18.333 -74 21l-27 -118h-81c0 33.333 -7 58.666 -21 75.999s-32.667 26 -56 26c-42 0 -77.333 -19.667 -106 -59s-56 -113.666 -82 -222.999l-26 -114h229l-22 -101h-230l-186 -872
c-22.667 -106.667 -53.834 -191.334 -93.501 -254.001s-87.834 -107.667 -144.501 -135s-125.334 -41 -206.001 -41c-29.333 0 -55.666 3.33301 -78.999 10l23 88c16 -5.33301 39.333 -8 70 -8c35.333 0 64.166 4.66699 86.499 14s43 24.5 62 45.5s37 51.667 54 92
s33.167 93.5 48.5 159.5l203 901h-397z" />
    <glyph glyph-name="uniFB00_j.liga" unicode="&#xfb00;j" horiz-adv-x="1703" 
d="M254 -17c-22.667 -106.667 -53.8281 -191.333 -93.4951 -254s-87.834 -107.667 -144.501 -135s-125.334 -41 -206.001 -41c-29.333 0 -55.666 3.33301 -78.999 10l23 88c16 -5.33301 39.333 -8 70 -8c35.333 0 64.166 4.66699 86.499 14s43 24.5 62 45.5s37 51.667 54 92
s33.167 93.5 48.5 159.5l203 901h-121l12 51c32.667 3.33301 55.667 7.83301 69 13.5s24.166 13.334 32.499 23.001s15.833 23.334 22.5 41.001s16.334 48.167 29.001 91.5c35.333 120 89.833 210.167 163.5 270.5s167.5 90.5 281.5 90.5
c65.333 0 121.666 -5.33301 168.999 -16l-39 -170h-88c-9.33301 38 -21.5 65.333 -36.5 82s-37.167 25 -66.5 25c-38 0 -70.333 -10.333 -97 -31s-49.5 -51.834 -68.5 -93.501s-36.5 -97.5 -52.5 -167.5l-25 -109h376c6.66699 10.667 13.334 26.667 20.001 48l22 71
c35.333 120 88.5 210.167 159.5 270.5s161.833 90.5 272.5 90.5c46 0 86.333 -3.33301 121 -10l-40 -176h-81c0 33.333 -7 58.666 -21 75.999s-32.667 26 -56 26c-42 0 -77.333 -19.667 -106 -59s-56 -113.666 -82 -222.999l-26 -114h229l-22 -101h-230l-186 -872
c-22.667 -106.667 -53.834 -191.334 -93.501 -254.001s-87.834 -107.667 -144.501 -135s-125.334 -41 -206.001 -41c-29.333 0 -55.666 3.33301 -78.999 10l23 88c16 -5.33301 39.333 -8 70 -8c35.333 0 64.166 4.66699 86.499 14s43 24.5 62 45.5s37 51.667 54 92
s33.167 93.5 48.5 159.5l203 901h-397zM1721.01 1348l-46 -194h-177l46 194h177zM1420.01 -16.999c-21.333 -101.333 -50.3311 -182.831 -86.998 -244.498s-84.334 -108 -143.001 -139s-128.667 -46.5 -210 -46.5c-33.333 0 -61.666 3.33301 -84.999 10l23 88
c10.667 -3.33301 22.5 -5.5 35.5 -6.5s26.5 -1.5 40.5 -1.5c32 0 59.167 4.83301 81.5 14.5s43.166 25.667 62.499 48s37.166 53.5 53.499 93.5s31.5 91.667 45.5 155l162 720c8.66699 37.333 14.667 67.666 18 90.999s5 43 5 59c0 19.333 -2.83301 34.333 -8.5 45
s-15.167 18.667 -28.5 24s-36.333 8.66602 -69 9.99902l11 53l244 9h57z" />
    <glyph glyph-name="uniFB00_k.liga" unicode="&#xfb00;k" horiz-adv-x="2176" 
d="M254 -17c-22.667 -106.667 -53.8271 -191.334 -93.4941 -254.001s-87.834 -107.667 -144.501 -135s-125.334 -41 -206.001 -41c-29.333 0 -55.666 3.33301 -78.999 10l23 88c16 -5.33301 39.333 -8 70 -8c35.333 0 64.166 4.66699 86.499 14s43 24.5 62 45.5
s37 51.667 54 92s33.167 93.5 48.5 159.5l203 901h-121l12 51c32.667 3.33301 55.667 7.83301 69 13.5s24.166 13.334 32.499 23.001s15.833 23.334 22.5 41.001s16.334 48.167 29.001 91.5c35.333 120 89.833 210.167 163.5 270.5s167.5 90.5 281.5 90.5
c65.333 0 121.666 -5.33301 168.999 -16l-39 -170h-88c-9.33301 38 -21.5 65.333 -36.5 82s-37.167 25 -66.5 25c-38 0 -70.333 -10.333 -97 -31s-49.5 -51.834 -68.5 -93.501s-36.5 -97.5 -52.5 -167.5l-25 -109h376c6.66699 10.667 13.334 26.667 20.001 48l22 71
c35.333 120 88.5 210.167 159.5 270.5s161.833 90.5 272.5 90.5c46 0 86.333 -3.33301 121 -10l-1 -4l231 8h58l-196 -873h32c20.667 0 43 4 67 12s49.667 20.5 77 37.5s64 43.833 110 80.5c34.667 28 60.334 51.833 77.001 71.5s28 36.834 34 51.501s9 28.667 9 42
c0 32.667 -22.667 51 -68 55l11 49h324l19 -49c-55.333 -50 -114 -99 -176 -147l-253 -197l150 -379c13.333 -34 27 -60.167 41 -78.5s30.167 -31.833 48.5 -40.5s41.833 -14 70.499 -16l-11 -49h-267l-146 411c-9.33301 26 -17.333 43.667 -24 53s-14.334 16 -23.001 20
s-22.667 6 -42 6h-74l-104 -490h-173l257 1143c7.33301 33.333 12.5 57.5 15.5 72.5s5.16699 28.833 6.5 41.5s2 24 2 34c0 26 -7 44.667 -21 56s-38.667 18.333 -74 21l-27 -118h-81c0 33.333 -7 58.666 -21 75.999s-32.667 26 -56 26c-42 0 -77.333 -19.667 -106 -59
s-56 -113.666 -82 -222.999l-26 -114h229l-22 -101h-230l-186 -872c-22.667 -106.667 -53.834 -191.334 -93.501 -254.001s-87.834 -107.667 -144.501 -135s-125.334 -41 -206.001 -41c-29.333 0 -55.666 3.33301 -78.999 10l23 88c16 -5.33301 39.333 -8 70 -8
c35.333 0 64.166 4.66699 86.499 14s43 24.5 62 45.5s37 51.667 54 92s33.167 93.5 48.5 159.5l203 901h-397z" />
    <glyph glyph-name=".notdef" horiz-adv-x="1348" 
d="M567 487l-0.000976562 21.9971c0 14.667 1 28.167 3 40.5s6.66699 25.5 14 39.5s18 29.833 32 47.5s33 39.5 57 65.5c15.333 16.667 29.333 32.834 42 48.501s23.5 32 32.5 49s16 35 21 54s7.5 40.167 7.5 63.5c0 50 -10.833 88.667 -32.5 116s-53.167 41 -94.5 41
c-21.333 0 -40 -3.33301 -56 -10s-30 -16 -42 -28s-22.167 -26.333 -30.5 -43s-15.5 -35 -21.5 -55h-96v130c40 20 82.833 37.667 128.5 53s90.834 23 135.501 23c46.667 0 86.5 -4.83301 119.5 -14.5s59.833 -23 80.5 -40s35.667 -37.167 45 -60.5s14 -48.666 14 -75.999
c0 -25.333 -2.5 -48.333 -7.5 -69s-13.5 -41.167 -25.5 -61.5s-28 -42.166 -48 -65.499s-44.667 -50 -74 -80c-21.333 -22 -38.333 -40.333 -51 -55s-22.5 -28.5 -29.5 -41.5s-11.667 -26.167 -14 -39.5s-3.5 -29.333 -3.5 -48v-6h-106zM690.999 376.997v-161h-144v161h144z
M1055 92.9971v1178h-762v-1178h762zM1158 1364v-1364h-968v1364h968z" />
    <glyph glyph-name="glyph1" horiz-adv-x="0" 
 />
    <glyph glyph-name="glyph1" horiz-adv-x="0" 
 />
    <glyph glyph-name="uni000D" unicode="&#xd;" horiz-adv-x="451" 
 />
    <glyph glyph-name="space" unicode=" " horiz-adv-x="451" 
 />
    <glyph glyph-name="space" unicode="&#xa0;" horiz-adv-x="451" 
 />
    <glyph glyph-name="exclam" unicode="!" horiz-adv-x="574" 
d="M589 1365l-270 -949h-99l164 949h205zM328 232l-51 -232h-190l51 232h190z" />
    <glyph glyph-name="quotedbl" unicode="&#x22;" horiz-adv-x="797" 
d="M551 1431l-161 -467h-106l76 467h191zM880 1431l-160 -467h-106l76 467h190z" />
    <glyph glyph-name="numbersign" unicode="#" horiz-adv-x="1268" 
d="M1022 834l-106 -297h197v-114h-239l-148 -423h-131l150 423h-315l-148 -423h-131l149 423h-187v114h227l107 297h-196v115h236l148 417h131l-150 -417h316l149 417h130l-150 -417h188v-115h-227zM577 834l-106 -297h315l106 297h-315z" />
    <glyph glyph-name="dollar" unicode="$" horiz-adv-x="1000" 
d="M760 1344c49.333 -2 102.496 -8.99609 159.496 -20.9961s109.5 -27 157.5 -45l-46 -209h-96c-8 61.333 -28.667 107.5 -62 138.5s-77.333 48.167 -132 51.5l-109 -497c68.667 -48 119.834 -89 153.501 -123s59.334 -70.167 77.001 -108.5s26.5 -81.833 26.5 -130.5
c0 -66.667 -16.5 -127.167 -49.5 -181.5s-81.5 -98.333 -145.5 -132s-138.333 -52.834 -223 -57.501l-40 -185h-105l40 184c-108 4 -222.667 24.667 -344 62l48 221h96c9.33301 -64 31.833 -112.833 67.5 -146.5s86.167 -52.167 151.5 -55.5l116 532
c-62 45.333 -107 81.166 -135 107.499s-50.667 52.833 -68 79.5s-29.666 52.5 -36.999 77.5s-11 51.833 -11 80.5c0 64 16.833 122.667 50.5 176s81.334 96.166 143.001 128.499s132.167 50.166 211.5 53.499l41 185h105zM539.996 816.004l95.998 442
c-67.333 -8.66699 -120.166 -34.167 -158.499 -76.5s-57.5 -95.5 -57.5 -159.5c0 -44 9.33301 -81.333 28 -112s49.334 -62 92.001 -94zM592.994 586.004l-103.001 -471c76.667 8 134 32.833 172 74.5s57 98.5 57 170.5c0 47.333 -9.16699 87.5 -27.5 120.5
s-51.166 68.167 -98.499 105.5zM703.993 1365z" />
    <glyph glyph-name="percent" unicode="%" horiz-adv-x="1757" 
d="M408 517c-74.667 0 -130.333 20.833 -167 62.5s-55 103.834 -55 186.501c0 52.667 4.66699 104.167 14 154.5s22.5 98.166 39.5 143.499s38.667 88 65 128s55.666 74.167 87.999 102.5s66.666 49.833 102.999 64.5s73.833 22 112.5 22c148 0 222 -83 222 -249
c0 -48 -3 -90.667 -9 -128c-11.333 -70.667 -31.166 -138.5 -59.499 -203.5s-63.166 -120.167 -104.499 -165.5c-34 -37.333 -72 -66.333 -114 -87s-87 -31 -135 -31zM317.001 714c0 -45.333 7.66602 -77.5 22.999 -96.5s40 -28.5 74 -28.5c31.333 0 61 11.333 89 34
c40 32 74.833 81.167 104.5 147.5s54.167 148.833 73.5 247.5c12 60.667 18 117 18 169c0 41.333 -7.5 72 -22.5 92s-38.5 30 -70.5 30c-33.333 0 -65 -12 -95 -36c-38.667 -31.333 -73.167 -81 -103.5 -149s-55.166 -152 -74.499 -252c-10.667 -56 -16 -108.667 -16 -158z
M1570 1365l-1140 -1461h-151l1143 1461h148zM1218 -112c-74.667 0 -130.333 20.833 -167 62.5s-55 103.834 -55 186.501c0 52.667 4.66699 104.167 14 154.5s22.5 98.166 39.5 143.499s38.667 88 65 128s55.666 74.167 87.999 102.5s66.666 49.833 102.999 64.5
s73.833 22 112.5 22c148 0 222 -83 222 -249c0 -48 -3 -90.667 -9 -128c-11.333 -70.667 -31.166 -138.5 -59.499 -203.5s-63.166 -120.167 -104.499 -165.5c-34 -37.333 -72 -66.333 -114 -87s-87 -31 -135 -31zM1127 85c0 -45.333 7.66602 -77.5 22.999 -96.5
s40 -28.5 74 -28.5c31.333 0 61 11.333 89 34c40 32 74.833 81.167 104.5 147.5s54.167 148.833 73.5 247.5c12 60.667 18 117 18 169c0 41.333 -7.5 72 -22.5 92s-38.5 30 -70.5 30c-33.333 0 -65 -12 -95 -36c-38.667 -31.333 -73.167 -81 -103.5 -149
s-55.166 -152 -74.499 -252c-10.667 -56 -16 -108.667 -16 -158z" />
    <glyph glyph-name="ampersand" unicode="&#x26;" horiz-adv-x="1350" 
d="M798 138c-72.667 -52 -144.328 -90.668 -214.995 -116.001s-143.334 -38 -218.001 -38c-66 0 -122.833 12.5 -170.5 37.5s-83.5 59 -107.5 102s-36 90.833 -36 143.5c0 62 14.667 119.5 44 172.5s72.833 103.167 130.5 150.5s134.834 97 231.501 149
c-20.667 42.667 -36.167 85 -46.5 127s-15.5 85.667 -15.5 131c0 70 18.333 134.833 55 194.5s86.834 106.167 150.501 139.5s134.5 50 212.5 50c86.667 0 154.334 -18.833 203.001 -56.5s73 -90.167 73 -157.5c0 -58.667 -15.333 -111.167 -46 -157.5
s-74.334 -89.833 -131.001 -130.5s-145.334 -91 -266.001 -151c21.333 -42.667 57.166 -107.5 107.499 -194.5s93.166 -156.5 128.499 -208.5c64 56.667 112.5 111.834 145.5 165.501s49.5 102.5 49.5 146.5c0 44.667 -25.333 69 -76 73l10 49h241l24 -49
c-29.333 -80 -73.5 -159.5 -132.5 -238.5s-129.833 -153.167 -212.5 -222.5c24 -39.333 45 -69.333 63 -90s35.167 -35.167 51.5 -43.5s35.166 -12.5 56.499 -12.5c27.333 0 52.166 4 74.499 12s48.166 22 77.499 42l38 -69c-55.333 -39.333 -103.5 -66.5 -144.5 -81.5
s-83.5 -22.5 -127.5 -22.5c-45.333 0 -84.833 11.333 -118.5 34s-68.167 62.667 -103.5 120zM608.006 804.999c79.333 39.333 142.334 76.502 189.001 111.502s80.5 70.667 101.5 107s31.5 76.5 31.5 120.5c0 49.333 -11.667 87 -35 113s-57.333 39 -102 39
c-46.667 0 -87.834 -12.333 -123.501 -37s-63 -58.334 -82 -101.001s-28.5 -90.334 -28.5 -143.001c0 -40 4.33301 -77 13 -111s20.667 -67 36 -99zM495.007 657.001c-62 -37.333 -111.33 -72.332 -147.997 -104.999s-65.5 -68.834 -86.5 -108.501
s-31.5 -82.834 -31.5 -129.501c0 -50 9.66699 -91.167 29 -123.5s44.666 -55.666 75.999 -69.999s66.666 -21.5 105.999 -21.5c34.667 0 67.5 4.16699 98.5 12.5s61.667 19.833 92 34.5s69.166 38 116.499 70c-26.667 40 -66 105.833 -118 197.5z" />
    <glyph glyph-name="quotesingle" unicode="'" horiz-adv-x="480" 
d="M563 1431l-172 -477h-107l71 477h208z" />
    <glyph glyph-name="parenleft" unicode="(" horiz-adv-x="761" 
d="M517 -435c-94.667 0 -171.332 17.001 -229.999 51.001s-101.167 83.5 -127.5 148.5s-39.5 146.5 -39.5 244.5c0 69.333 6 146 18 230c16 108 39.167 228.333 69.5 361s60.166 242.667 89.499 330c34 99.333 70.667 180.5 110 243.5s82.333 112.833 129 149.5
s99.667 64 159 82c65.333 20 143.666 30 234.999 30l-18 -82c-58.667 0 -107 -6.66699 -145 -20s-72 -33.333 -102 -60c-34.667 -30.667 -67.667 -73.667 -99 -129c-36.667 -66 -72 -152.333 -106 -259c-29.333 -92 -58.666 -204.333 -87.999 -337
c-24 -108.667 -43.333 -206.334 -58 -293.001c-20 -121.333 -30 -222 -30 -302c0 -78 9.5 -139.333 28.5 -184s46.333 -76.167 82 -94.5s82.5 -27.5 140.5 -27.5z" />
    <glyph glyph-name="parenright" unicode=")" horiz-adv-x="761" 
d="M254 1435c94.667 0 171.333 -17.002 230 -51.002s101.167 -83.5 127.5 -148.5s39.5 -146.5 39.5 -244.5c0 -68 -6 -143 -18 -225c-16 -116 -40.667 -245 -74 -387c-31.333 -131.333 -61.333 -238.666 -90 -321.999c-32.667 -94 -68.167 -171.833 -106.5 -233.5
s-81 -110.834 -128 -147.501s-100.167 -63.667 -159.5 -81c-65.333 -20 -143.333 -30 -234 -30l18 82c58.667 0 106.834 6.66699 144.501 20s71.167 33 100.5 59c36 31.333 70 75.666 102 132.999c37.333 67.333 72.5 153.5 105.5 258.5s64.167 226.5 93.5 364.5
c23.333 106.667 41.666 201.334 54.999 284.001c18 112.667 27 206.334 27 281.001c0 78.667 -9.66699 140.334 -29 185.001s-46.833 76 -82.5 94s-82.167 27 -139.5 27z" />
    <glyph glyph-name="asterisk" unicode="*" horiz-adv-x="850" 
d="M860 918l-71 -108l-211 180l-39 -313h-139l96 313l-264 -184l-59 116l306 132l-241 134l74 110l212 -180l38 313h139l-95 -313l261 183l60 -116l-305 -131z" />
    <glyph glyph-name="plus" unicode="+" horiz-adv-x="1082" 
d="M624 518l-84 -381h-150l84 381h-341l30 135h340l83 380h150l-83 -380h344l-30 -135h-343z" />
    <glyph glyph-name="comma" unicode="," horiz-adv-x="408" 
d="M259 232c0 -24 -2.33105 -52.668 -6.99805 -86.001s-11.834 -65.333 -21.501 -96s-20.834 -57.667 -33.501 -81s-29.167 -47.333 -49.5 -72s-47.5 -51.5 -81.5 -80.5s-78 -60.833 -132 -95.5l-46 62c32 26.667 56.833 49.334 74.5 68.001s32.167 37.667 43.5 57
s21.5 41.833 30.5 67.5s18.833 62.5 29.5 110.5s18.667 96.667 24 146h169z" />
    <glyph glyph-name="hyphen" unicode="-" horiz-adv-x="653" 
d="M539 449h-437l33 155h437z" />
    <glyph glyph-name="hyphen" unicode="&#x2010;" horiz-adv-x="653" 
d="M539 449h-437l33 155h437z" />
    <glyph glyph-name="hyphen" unicode="&#xad;" horiz-adv-x="653" 
d="M539 449h-437l33 155h437z" />
    <glyph glyph-name="period" unicode="." horiz-adv-x="408" 
d="M245 232l-51 -232h-190l51 232h190z" />
    <glyph glyph-name="slash" unicode="/" horiz-adv-x="954" 
d="M1099 1431l-1074 -1861h-160l1075 1861h159z" />
    <glyph glyph-name="zero" unicode="0" horiz-adv-x="1082" 
d="M421 -16c-62 0 -115.003 11.6699 -159.003 35.0029s-78.167 61.666 -102.5 114.999s-36.5 123.666 -36.5 210.999c0 78 8 162.5 24 253.5s37.833 176.833 65.5 257.5s60.834 154 99.501 220s81.167 121.5 127.5 166.5s95.833 79.333 148.5 103s107 35.5 163 35.5
c55.333 0 101.833 -8.66699 139.5 -26s68.334 -41.5 92.001 -72.5s40.667 -68 51 -111s15.5 -90.167 15.5 -141.5c0 -142.667 -21.167 -287.834 -63.5 -435.501s-96.166 -269.5 -161.499 -365.5c-57.333 -84.667 -122.333 -147.667 -195 -189
c-64.667 -37.333 -134 -56 -208 -56zM295.997 282.003c0 -54 4.66797 -96.168 14.001 -126.501s23.666 -52.333 42.999 -66s46 -20.5 80 -20.5c50 0 98.5 23.667 145.5 71s91.333 118 133 212s79.5 214.333 113.5 361s51 273.334 51 380.001
c0 70.667 -10.5 122.167 -31.5 154.5s-54.5 48.5 -100.5 48.5c-29.333 0 -58 -7.33301 -86 -22c-34 -18 -67 -47.667 -99 -89c-39.333 -50 -76 -116 -110 -198c-29.333 -72 -56.333 -155 -81 -249c-17.333 -68 -32 -134.667 -44 -200c-18.667 -96 -28 -181.333 -28 -256z
" />
    <glyph glyph-name="one" unicode="1" horiz-adv-x="1082" 
d="M609 289c-12 -54.667 -18 -93.668 -18 -117.001c0 -26.667 7 -46.5 21 -59.5s37.167 -22.333 69.5 -28s82.5 -9.5 150.5 -11.5l-15 -73h-706l15 73c56 2.66699 99 6.33398 129 11.001s54.167 11 72.5 19s33.166 17.667 44.499 29s21.333 26.333 30 45s17 46.667 25 84
l160 725c6 28 10.5 50.333 13.5 67s4.5 30.334 4.5 41.001c0 20 -5 34.167 -15 42.5s-22 12.5 -36 12.5c-17.333 0 -43.666 -8.5 -78.999 -25.5s-88 -46.167 -158 -87.5l-39 80l507 265h69l-29 -117c-10.667 -42.667 -22 -92.334 -34 -149.001z" />
    <glyph glyph-name="two" unicode="2" horiz-adv-x="1082" 
d="M581 160c24.667 0 43.8379 1.33203 57.5049 3.99902s24.834 6.5 33.501 11.5s17.667 12.5 27 22.5s17.833 21.667 25.5 35s17.5 33 29.5 59h93l-74 -292h-784l10 48c38.667 69.333 89.167 142 151.5 218s146.833 164.667 253.5 266c89.333 84.667 151 144.667 185 180
c60.667 61.333 107 114.333 139 159s54.667 86.334 68 125.001s20 78 20 118c0 56 -15.833 99.167 -47.5 129.5s-76.834 45.5 -135.501 45.5c-54.667 0 -103.834 -16.333 -147.501 -49s-78.834 -79 -105.501 -139h-129l43 192c75.333 30 145.166 52.167 209.499 66.5
s128.5 21.5 192.5 21.5c65.333 0 121.833 -10.833 169.5 -32.5s83.667 -51.667 108 -90s36.5 -80.5 36.5 -126.5c0 -43.333 -5.33301 -82.833 -16 -118.5s-27.334 -71.167 -50.001 -106.5c-28 -42.667 -71 -93.667 -129 -153c-52 -52.667 -137.667 -132.334 -257 -239.001
c-166.667 -149.333 -282.334 -267.666 -347.001 -354.999h370z" />
    <glyph glyph-name="three" unicode="3" horiz-adv-x="1082" 
d="M264 1101l40.999 191.998c74.667 31.333 143.334 53.833 206.001 67.5s128 20.5 196 20.5c43.333 0 84.333 -5 123 -15s72.5 -25.333 101.5 -46s52 -47.167 69 -79.5s25.5 -70.833 25.5 -115.5c0 -61.333 -12 -115.833 -36 -163.5s-62.833 -91.5 -116.5 -131.5
s-126.834 -78 -219.501 -114l-1 -11c82.667 -19.333 146 -54.333 190 -105s66 -112.667 66 -186c0 -55.333 -12 -111 -36 -167s-57.833 -103.667 -101.5 -143s-97.167 -69.166 -160.5 -89.499s-137.666 -30.5 -222.999 -30.5c-61.333 0 -127 6.83301 -197 20.5
s-127.333 30.5 -172 50.5l46 212h115c4 -68 24.333 -118 61 -150s90.334 -48 161.001 -48c66.667 0 123.667 14.667 171 44s84.166 72.333 110.499 129s39.5 120.667 39.5 192c0 72 -23.167 126 -69.5 162s-115.833 54 -208.5 54h-100l19 88c80.667 5.33301 152 20 214 44
s112.333 54.333 151 91s66.167 75.667 82.5 117s24.5 83 24.5 125c0 54.667 -16.333 97.334 -49 128.001s-77.334 46 -134.001 46c-64 0 -116.667 -15.667 -158 -47s-76.666 -78.333 -105.999 -141h-125z" />
    <glyph glyph-name="four" unicode="4" horiz-adv-x="1082" 
d="M406 49c26 3.33301 45.167 8.66699 57.5 16s23.166 18 32.499 32s18.333 34.5 27 61.5s19.334 69.5 32.001 127.5l28 128h-532l19 94l728 864h166l-190 -861h34c35.333 0 61 2.83301 77 8.5s29.667 15.334 41 29.001s24 37.5 38 71.5h90l-57 -206h-244l-32 -144
c-6 -28.667 -10.167 -54.334 -12.5 -77.001s-3.5 -41 -3.5 -55c0 -30.667 7 -52.5 21 -65.5s39.667 -20.833 77 -23.5l-11 -49h-397zM230 511.001l376 -0.000976562l54 249c28.667 130.667 60.667 261.334 96 392.001h-14l-509 -627z" />
    <glyph glyph-name="five" unicode="5" horiz-adv-x="1082" 
d="M419 769c60.667 22 127.002 32.9971 199.002 32.9971c67.333 0 125.666 -13 174.999 -39s87 -63.167 113 -111.5s39 -104.5 39 -168.5c0 -87.333 -19.833 -172.166 -59.5 -254.499s-98 -143.666 -175 -183.999s-170.833 -60.5 -281.5 -60.5
c-57.333 0 -118.833 6.33301 -184.5 19s-124.5 30 -176.5 52l46 212h115c4 -132 72.667 -198 206 -198c72 0 131.667 18.667 179 56s83 88 107 152s36 128.333 36 193c0 74.667 -18 131.667 -54 171s-88.333 59 -157 59c-32 0 -61 -1.66699 -87 -5s-57.333 -10.333 -94 -21
l-85 64l139 627h499c22.667 0 39.167 1.83301 49.5 5.5s19.166 9.83398 26.499 18.501s15 22.667 23 42h81l-64 -232h-520z" />
    <glyph glyph-name="six" unicode="6" horiz-adv-x="1082" 
d="M382 720c52 32 102.666 55.833 151.999 71.5s100 23.5 152 23.5c56 0 106.833 -12.167 152.5 -36.5s82 -61.5 109 -111.5s40.5 -111 40.5 -183c0 -47.333 -5.83301 -95.5 -17.5 -144.5s-30.167 -95 -55.5 -138s-57.666 -80.667 -96.999 -113s-85.5 -57.833 -138.5 -76.5
s-112.833 -28 -179.5 -28c-60 0 -112.167 10.833 -156.5 32.5s-81.166 51.667 -110.499 90s-51.333 83.166 -66 134.499s-22 107 -22 167c0 53.333 4 106.333 12 159c11.333 73.333 27.666 139 48.999 197c27.333 75.333 66.166 147.833 116.499 217.5
s111.166 132.334 182.499 188.001s150.333 101.667 237 138s178.334 60.833 275.001 73.5l37 -55l-10 -49c-160 -11.333 -297.167 -64.5 -411.5 -159.5s-201.166 -226.167 -260.499 -393.5zM305.999 359c0 -96.667 18.502 -169.168 55.502 -217.501
s91.833 -72.5 164.5 -72.5c52.667 0 100.667 17.167 144 51.5s77.166 82.5 101.499 144.5s36.5 132 36.5 210c0 159.333 -65.667 239 -197 239c-22.667 0 -44.834 -2.16699 -66.501 -6.5s-43.667 -11.166 -66 -20.499s-43.5 -20.666 -63.5 -33.999
c-21.333 -14 -37.333 -26.333 -48 -37c-9.33301 -9.33301 -17.333 -20 -24 -32c-6.66699 -12.667 -12 -26.667 -16 -42c-4 -16.667 -8.66699 -46.334 -14 -89.001c-4.66699 -34 -7 -65.333 -7 -94z" />
    <glyph glyph-name="seven" unicode="7" horiz-adv-x="1082" 
d="M1153 1317l-806.001 -1324h-149l12 56l728 1134l3 15h-415c-32.667 0 -59.167 -3.66699 -79.5 -11s-38.166 -20.166 -53.499 -38.499s-33.333 -54.166 -54 -107.499h-92l81 324h836z" />
    <glyph glyph-name="eight" unicode="8" horiz-adv-x="1082" 
d="M800 709l0.00195312 -12.998c106.667 -50.667 160 -135.334 160 -254.001c0 -26 -3.33301 -56.333 -10 -91c-8.66699 -48.667 -23.334 -92.667 -44.001 -132c-24.667 -48 -58 -89.333 -100 -124s-92.667 -61.834 -152 -81.501s-125.333 -29.5 -198 -29.5
c-78.667 0 -147.167 12.333 -205.5 37s-103 60.167 -134 106.5s-46.5 100.833 -46.5 163.5c0 53.333 9.83301 106.833 29.5 160.5s52 101.834 97 144.501s102.833 78.667 173.5 108l1 13c-46.667 33.333 -80.834 71.166 -102.501 113.499s-32.5 89.5 -32.5 141.5
c0 25.333 2.66699 52.333 8 81c7.33301 42 20.333 80 39 114c22.667 41.333 54.167 78 94.5 110s89 57.333 146 76s118.833 28 185.5 28c88.667 0 161.5 -13 218.5 -39s98.167 -60.333 123.5 -103s38 -91 38 -145c0 -53.333 -10.333 -105 -31 -155s-53.5 -95.5 -98.5 -136.5
s-98.167 -72.167 -159.5 -93.5zM408.002 940.002c0 -25.333 2.83105 -49.502 8.49805 -72.502s16 -43.333 31 -61s35 -31.667 60 -42s57.5 -15.5 97.5 -15.5c58.667 0 110.334 14.333 155.001 43s80.834 71.334 108.501 128.001s41.5 118 41.5 184
c0 64.667 -16.5 112.834 -49.5 144.501s-82.167 47.5 -147.5 47.5c-66.667 0 -123 -16.167 -169 -48.5s-80.167 -77.5 -102.5 -135.5s-33.5 -115.333 -33.5 -172zM251 273c0 -66.667 18.168 -117.335 54.501 -152.002s89.833 -52 160.5 -52c55.333 0 103 11.5 143 34.5
s72.167 53.5 96.5 91.5s42.833 82 55.5 132s19 97.667 19 143c0 64.667 -16.333 113.5 -49 146.5s-83 49.5 -151 49.5c-54.667 0 -103 -11.333 -145 -34s-76.333 -53.167 -103 -91.5s-46.834 -81.666 -60.501 -129.999s-20.5 -94.166 -20.5 -137.499z" />
    <glyph glyph-name="nine" unicode="9" horiz-adv-x="1082" 
d="M791 645c-48 -32 -96.3311 -55.8252 -144.998 -71.4922s-99 -23.5 -151 -23.5c-60.667 0 -114.5 13.667 -161.5 41s-83 66.166 -108 116.499s-37.5 109.5 -37.5 177.5c0 44 5.83301 90.667 17.5 140s30 95.166 55 137.499s57.167 80.166 96.5 113.499
s85.166 59.166 137.499 77.499s109.833 27.5 172.5 27.5c60 0 112.667 -10.833 158 -32.5s83 -51.667 113 -90s52.667 -83.833 68 -136.5s23 -110.334 23 -173.001c0 -58 -6.33301 -122.333 -19 -193c-10 -56.667 -26.333 -115.334 -49 -176.001
c-22.667 -59.333 -49.667 -115.333 -81 -168c-31.333 -52 -67.333 -100.333 -108 -145c-40 -44 -82.667 -83 -128 -117s-93.333 -63 -144 -87c-51.333 -24 -104.333 -42.667 -159 -56c-53.333 -13.333 -108.333 -21 -165 -23l-37 55l10 49
c115.333 9.33301 214.833 35.666 298.5 78.999s154.167 103.666 211.5 180.999s104.666 175 141.999 293zM565.002 651.008c38.667 0 78 7.33203 118 21.999c35.333 12.667 67 30 95 52c22 16.667 37.667 32.334 47 47.001c12.667 19.333 22 47 28 83s9 83.333 9 142
c0 98.667 -18.333 173.167 -55 223.5s-90.667 75.5 -162 75.5c-52 0 -99.667 -17.667 -143 -53s-77.333 -85 -102 -149s-37 -134 -37 -210c0 -79.333 15.833 -138 47.5 -176s83.167 -57 154.5 -57z" />
    <glyph glyph-name="colon" unicode=":" horiz-adv-x="530" 
d="M454 902l-51 -232h-190l51 232h190zM306 232l-51 -232h-190l51 232h190z" />
    <glyph glyph-name="semicolon" unicode=";" horiz-adv-x="530" 
d="M454 902l-51 -232h-190l51 232h190zM307 232c0 -24 -2.33105 -52.668 -6.99805 -86.001s-11.834 -65.333 -21.501 -96s-20.834 -57.667 -33.501 -81s-29.167 -47.333 -49.5 -72s-47.5 -51.5 -81.5 -80.5s-78 -60.833 -132 -95.5l-46 62
c32 26.667 56.833 49.334 74.5 68.001s32.167 37.667 43.5 57s21.5 41.833 30.5 67.5s18.833 62.5 29.5 110.5s18.667 96.667 24 146h169z" />
    <glyph glyph-name="less" unicode="&#x3c;" horiz-adv-x="1082" 
d="M132 515l30 140l918 378l-35 -160l-761 -298l628 -296l-30 -141z" />
    <glyph glyph-name="equal" unicode="=" horiz-adv-x="1082" 
d="M180 725l30 135h830l-30 -135h-830zM89 310l30 135h830l-30 -135h-830z" />
    <glyph glyph-name="greater" unicode="&#x3e;" horiz-adv-x="1082" 
d="M996 655l-30 -140l-918 -378l35 160l761 298l-628 296l30 141z" />
    <glyph glyph-name="question" unicode="?" horiz-adv-x="834" 
d="M288 416l7.00488 34.001c6 30 15.167 57.5 27.5 82.5s31.333 53.667 57 86s62.5 72.833 110.5 121.5c54.667 57.333 94.334 102 119.001 134s44.5 63.167 59.5 93.5s25.833 59.833 32.5 88.5s10 59.667 10 93c0 48 -12.833 85.333 -38.5 112s-59.834 40 -102.501 40
c-49.333 0 -92 -16 -128 -48s-63 -78.667 -81 -140h-129l35 164c84.667 40.667 151.667 68.167 201 82.5s97.333 21.5 144 21.5c64 0 118.167 -10.5 162.5 -31.5s77.166 -49.333 98.499 -85s32 -75.167 32 -118.5c0 -32.667 -4.83301 -64.167 -14.5 -94.5
s-25.334 -61.666 -47.001 -93.999s-51.5 -68.333 -89.5 -108s-88.333 -88.834 -151 -147.501c-40.667 -38 -71.334 -69.5 -92.001 -94.5s-36.834 -49.333 -48.501 -73s-21.834 -54.834 -30.501 -93.501l-5 -25h-139zM418.005 232.001l-51 -232h-190l51 232h190z" />
    <glyph glyph-name="at" unicode="@" horiz-adv-x="1813" 
d="M1110 422l-13.001 1.00195c-56 -84 -109.167 -145.333 -159.5 -184s-101.5 -58 -153.5 -58c-43.333 0 -80.666 11.167 -111.999 33.5s-54.833 54.166 -70.5 95.499s-23.5 89.666 -23.5 144.999c0 54 6.5 108.667 19.5 164s32.333 108 58 158s56.334 93.833 92.001 131.5
s77.334 68 125.001 91s99.167 34.5 154.5 34.5c39.333 0 75.166 -4.5 107.499 -13.5s62.833 -22.5 91.5 -40.5l78 54l64 -15l-111 -501c-6.66699 -29.333 -11.5 -53.666 -14.5 -72.999s-4.5 -38 -4.5 -56c0 -76.667 32 -115 96 -115c47.333 0 89.333 19.167 126 57.5
s65 91.333 85 159s30 141.167 30 220.5c0 124.667 -20.167 229.834 -60.5 315.501s-100.5 150.5 -180.5 194.5s-177 66 -291 66c-140.667 0 -264 -31.667 -370 -95s-187.5 -153.333 -244.5 -270s-85.5 -249.334 -85.5 -398.001c0 -129.333 22.167 -237.666 66.5 -324.999
s108.833 -152.833 193.5 -196.5s186 -65.5 304 -65.5c57.333 0 109.833 4 157.5 12s98.5 20.667 152.5 38l24 -90c-42.667 -16.667 -93.834 -29.667 -153.501 -39s-121.5 -14 -185.5 -14c-166.667 0 -304.167 27.333 -412.5 82s-188.166 133.334 -239.499 236.001
s-77 228 -77 376c0 115.333 20 224.333 60 327s98.667 193.167 176 271.5s169 138.666 275 180.999s222 63.5 348 63.5c122 0 227.833 -16.833 317.5 -50.5s161.667 -80.334 216 -140.001s93.666 -126.5 117.999 -200.5s36.5 -154.667 36.5 -242
c0 -110.667 -16.667 -209.334 -50 -296.001s-80.5 -153.5 -141.5 -200.5s-131.833 -70.5 -212.5 -70.5c-28 0 -54.667 3.5 -80 10.5s-47.5 18.167 -66.5 33.5s-34.167 35.333 -45.5 60s-17 54.667 -17 90c0 16 1 31.667 3 47zM1145 721.002
c5.33301 24 8.83398 44.667 10.501 62s2.5 34.666 2.5 51.999c0 42.667 -9 73.334 -27 92.001s-47.667 28 -89 28c-23.333 0 -45.5 -3.83301 -66.5 -11.5s-42.5 -20.334 -64.5 -38.001s-42.833 -40.667 -62.5 -69s-37.5 -63 -53.5 -104s-28.5 -85.333 -37.5 -133
s-13.5 -93.5 -13.5 -137.5c0 -56.667 7.66699 -99 23 -127s40.666 -42 75.999 -42c28 0 55.833 10.167 83.5 30.5s57 50.5 88 90.5s56.333 80.833 76 122.5s35.167 90.834 46.5 147.501z" />
    <glyph glyph-name="A" unicode="A" horiz-adv-x="1205" 
d="M678 0l11 48.998c30 2.66699 53.5 11.334 70.5 26.001s29 35 36 61s10.5 60.333 10.5 103c0 26 -1 54.333 -3 85l-7 129h-440l-55 -98c-26 -46 -45 -85.5 -57 -118.5s-18 -62.167 -18 -87.5c0 -56 33.667 -89.333 101 -100l-11 -49h-409l11 49
c20.667 2.66699 40.167 10.834 58.5 24.501s37.833 34.334 58.5 62.001s49.667 73.5 87 137.5l641 1108h151l72 -1115c3.33301 -52.667 9.33301 -93.834 18 -123.501s20.5 -51.667 35.5 -66s36.833 -23.5 65.5 -27.5l-11 -49h-416zM401 539.998h391l-17 322
c-2 44 -3.66699 99 -5 165s-2 113.667 -2 143h-11z" />
    <glyph glyph-name="B" unicode="B" horiz-adv-x="1221" 
d="M895 699c62 -24.667 109.666 -59.834 142.999 -105.501s50 -97.5 50 -155.5c0 -68.667 -12.5 -130.167 -37.5 -184.5s-64.5 -101.833 -118.5 -142.5s-116 -69.334 -186 -86.001s-156.333 -25 -259 -25h-445l11 49c25.333 4 44.333 10.5 57 19.5s23.334 21.5 32.001 37.5
s16.667 35.5 24 58.5s18.333 67.5 33 133.5l170 770c14.667 66.667 22 119.334 22 158.001c0 32.667 -7.66699 55.334 -23 68.001s-40.333 20 -75 22l11 49h495c100 0 180.167 -10.5 240.5 -31.5s104.666 -51.833 132.999 -92.5s42.5 -91.667 42.5 -153
c0 -87.333 -26.667 -163.5 -80 -228.5s-132.666 -114.833 -237.999 -149.5zM618.999 753c69.333 0 125.168 4.66602 167.501 13.999s76.833 23.333 103.5 42s50.5 40.5 71.5 65.5s37.667 54.5 50 88.5s18.5 74 18.5 120c0 28.667 -5 55.5 -15 80.5s-27.167 46.333 -51.5 64
s-52.333 30.334 -84 38.001s-73.834 11.5 -126.501 11.5c-58 0 -112 -1 -162 -3l-113 -521h141zM333.001 91.999c52 -2.66699 100.667 -3.99902 146 -3.99902c100.667 0 178.5 12.667 233.5 38s99.5 66.666 133.5 123.999s51 126 51 206c0 43.333 -8.5 80 -25.5 110
s-44 54 -81 72s-87.833 27 -152.5 27h-181z" />
    <glyph glyph-name="C" unicode="C" horiz-adv-x="1105" 
d="M1184 1330l-60.0029 -271h-96c-5.33301 82 -23.166 141.167 -53.499 177.5s-79.166 54.5 -146.499 54.5c-56 0 -108.667 -16.5 -158 -49.5s-96 -80.667 -140 -143s-82.333 -135.333 -115 -219s-57.667 -169 -75 -256s-26 -165.5 -26 -235.5
c0 -108.667 17.833 -188.5 53.5 -239.5s91.5 -76.5 167.5 -76.5c50 0 93.667 7.5 131 22.5s72.333 40.333 105 76s65 85.5 97 149.5h96l-61 -284c-68 -18.667 -133.667 -32 -197 -40s-128.333 -12 -195 -12c-82.667 0 -153 17.167 -211 51.5s-101.667 84 -131 149
s-44 143.167 -44 234.5c0 48 3.33301 94.667 10 140c8 56 20.667 117 38 183c22 82 49.667 156.667 83 224c36 71.333 77 134.333 123 189c43.333 50.667 90.333 93 141 127c46.667 31.333 97 55.666 151 72.999s111.333 26 172 26s116.834 -3.66699 168.501 -11
s109.167 -20.666 172.5 -39.999z" />
    <glyph glyph-name="D" unicode="D" horiz-adv-x="1324" 
d="M683 1365c100.667 0 182.335 -7.66602 245.002 -22.999s121.167 -43 175.5 -83s95.166 -93.167 122.499 -159.5s41 -144.833 41 -235.5c0 -90 -10.333 -176 -31 -258s-50.334 -157.5 -89.001 -226.5s-85 -129 -139 -180s-106.333 -90.167 -157 -117.5
s-107.334 -47.833 -170.001 -61.5s-135.667 -20.5 -219 -20.5h-420l11 49c25.333 4 44.333 10.5 57 19.5s23.334 21.5 32.001 37.5s16.667 35.5 24 58.5s18.333 67.5 33 133.5l170 770c6.66699 30.667 12 60.167 16 88.5s6 52.5 6 72.5c0 31.333 -8 53.166 -24 65.499
s-40.667 19.5 -74 21.5l11 49h379zM332.001 92.001c19.333 -2 56.333 -2.99902 111 -2.99902c67.333 0 128.5 7.33301 183.5 22s105.667 38.167 152 70.5s88.5 75.5 126.5 129.5s68.833 108.833 92.5 164.5s42.167 115.5 55.5 179.5s20 131.667 20 203
c0 139.333 -32.5 244.166 -97.5 314.499s-161.5 105.5 -289.5 105.5c-29.333 0 -61 -1 -95 -3z" />
    <glyph glyph-name="E" unicode="E" horiz-adv-x="1164" 
d="M1224 1365l-68.998 -307.001h-96c-2 48 -5.66699 85.5 -11 112.5s-11.333 47 -18 60s-14.334 22.667 -23.001 29s-19.5 10.833 -32.5 13.5s-31.5 4 -55.5 4h-326l-114 -524h191c29.333 0 53.833 4 73.5 12s37.834 21.833 54.501 41.5s35.334 49.834 56.001 90.501h91
l-90 -384h-85c0 36.667 -1.33301 63.667 -4 81s-6.16699 30.166 -10.5 38.499s-9.83301 14.833 -16.5 19.5s-15.334 8 -26.001 10s-28.334 3 -53.001 3h-200l-128 -577h296c29.333 0 54.166 2.16699 74.499 6.5s38.833 11.833 55.5 22.5s32.667 24.5 48 41.5
s31.166 38.833 47.499 65.5s38.5 67.334 66.5 122.001h97l-88 -346h-887l11 49c25.333 4 44.333 10.5 57 19.5s23.334 21.5 32.001 37.5s16.667 35.5 24 58.5s18.333 67.5 33 133.5l170 770c14.667 66.667 22 120.334 22 161.001c0 31.333 -8 53.166 -24 65.499
s-40.667 19.5 -74 21.5l11 49h920z" />
    <glyph glyph-name="F" unicode="F" horiz-adv-x="1079" 
d="M376 291c-4.66699 -20 -8.33203 -36.999 -10.999 -50.999s-5 -31.167 -7 -51.5s-3 -38.166 -3 -53.499c0 -20.667 3.33301 -36.834 10 -48.501s16.667 -20.167 30 -25.5s36.333 -9.33301 69 -12l-11 -49h-411l11 49c25.333 4 44.333 10.5 57 19.5
s23.334 21.5 32.001 37.5s16.667 35.5 24 58.5s18.333 67.5 33 133.5l170 770c14.667 66.667 22 119.334 22 158.001c0 32.667 -7.66699 55.334 -23 68.001s-40.333 20 -75 22l11 49h902l-69 -307h-96c-2.66699 47.333 -6.33398 84.5 -11.001 111.5s-10.5 47.167 -17.5 60.5
s-14.833 23.166 -23.5 29.499s-19.5 10.833 -32.5 13.5s-31.5 4 -55.5 4h-308l-119 -544h187c29.333 0 53.666 4 72.999 12s37.333 22.5 54 43.5s37.334 56.833 62.001 107.5h91l-97 -422h-88c0 41.333 -0.833008 73.666 -2.5 96.999s-5.66699 39.666 -12 48.999
s-15.333 15.833 -27 19.5s-32.834 5.5 -63.501 5.5h-196z" />
    <glyph glyph-name="G" unicode="G" horiz-adv-x="1198" 
d="M816 320c14.667 62.667 22.001 116.333 22.001 161c0 31.333 -8 53.166 -24 65.499s-40.667 19.5 -74 21.5l11 49h400l-11 -49c-22.667 -5.33301 -38.834 -10.333 -48.501 -15s-18.167 -11.167 -25.5 -19.5s-14.666 -19.833 -21.999 -34.5s-14.833 -35.834 -22.5 -63.501
s-16.834 -66.5 -27.501 -116.5l-69 -314l-79 -22l-52 79c-48 -22.667 -85.333 -38.667 -112 -48s-54.334 -16.666 -83.001 -21.999s-59 -8 -91 -8c-82 0 -151.833 17.333 -209.5 52s-101 84.167 -130 148.5s-43.5 140.5 -43.5 228.5c0 71.333 7.33301 144.333 22 219
c16.667 84.667 39 163.667 67 237c26.667 70.667 57.5 133.834 92.5 189.501s74.167 105.167 117.5 148.5c38 37.333 79.667 69 125 95s93 45.667 143 59s102.667 20 158 20c63.333 0 121.333 -3.83301 174 -11.5s110.334 -21.5 173.001 -41.5l-61 -269h-96
c-4.66699 58 -14.5 103.833 -29.5 137.5s-36.667 58.167 -65 73.5s-65.166 23 -110.499 23c-56 0 -107.667 -14.833 -155 -44.5s-92.833 -73.167 -136.5 -130.5s-83.334 -129.666 -119.001 -216.999s-63 -176.333 -82 -267s-28.5 -172.667 -28.5 -246
c0 -108 17.833 -187.833 53.5 -239.5s90.5 -77.5 164.5 -77.5c27.333 0 55.333 3.16699 84 9.5s55.5 17.166 80.5 32.499s47.167 36 66.5 62s33.333 58.667 42 98z" />
    <glyph glyph-name="H" unicode="H" horiz-adv-x="1370" 
d="M1091 291c-8.66699 -39.333 -14.335 -70.4971 -17.002 -93.4971s-4 -43.833 -4 -62.5c0 -30 7.5 -51.167 22.5 -63.5s40.167 -19.833 75.5 -22.5l-11 -49h-400l11 49c25.333 4 44.333 10.5 57 19.5s23.334 21.5 32.001 37.5s16.667 35.5 24 58.5s18.333 67.5 33 133.5
l82 371h-537l-83 -378c-5.33301 -24.667 -9.5 -44.834 -12.5 -60.501s-5.16699 -31 -6.5 -46s-2 -31.5 -2 -49.5c0 -28.667 6.66699 -49.334 20 -62.001s39.333 -20.667 78 -24l-11 -49h-400l11 49c25.333 4 44.333 10.5 57 19.5s23.334 21.5 32.001 37.5
s16.667 35.5 24 58.5s18.333 67.5 33 133.5l170 770c6 27.333 11.167 56.5 15.5 87.5s6.5 55.5 6.5 73.5c0 31.333 -8 53.166 -24 65.499s-40.667 19.5 -74 21.5l11 49h400l-11 -49c-25.333 -5.33301 -43.5 -11.333 -54.5 -18s-21 -16.667 -30 -30s-18 -34.166 -27 -62.499
s-20.5 -74.5 -34.5 -138.5l-68 -306h537l68 307c6 27.333 11.167 56.5 15.5 87.5s6.5 55.5 6.5 73.5c0 31.333 -8 53.166 -24 65.499s-40.667 19.5 -74 21.5l11 49h400l-11 -49c-22.667 -5.33301 -38.667 -10.333 -48 -15s-17.833 -11 -25.5 -19s-15 -19.5 -22 -34.5
s-14.5 -37 -22.5 -66s-17.333 -67.167 -28 -114.5z" />
    <glyph glyph-name="I" unicode="I" horiz-adv-x="656" 
d="M376 291c-8.66699 -39.333 -14.334 -70.5 -17.001 -93.5s-4 -43.833 -4 -62.5c0 -30 7.5 -51.167 22.5 -63.5s40.167 -19.833 75.5 -22.5l-11 -49h-400l11 49c25.333 4 44.333 10.5 57 19.5s23.334 21.5 32.001 37.5s16.667 35.5 24 58.5s18.333 67.5 33 133.5l170 770
c6.66699 30.667 12 60.167 16 88.5s6 52.5 6 72.5c0 31.333 -8 53.166 -24 65.499s-40.667 19.5 -74 21.5l11 49h400l-11 -49c-25.333 -5.33301 -43.5 -11.333 -54.5 -18s-21 -16.667 -30 -30s-18 -34.166 -27 -62.499s-20.5 -74.5 -34.5 -138.5z" />
    <glyph glyph-name="J" unicode="J" horiz-adv-x="613" 
d="M301 43c-22.667 -104 -51.668 -186.831 -87.001 -248.498s-81.166 -107.334 -137.499 -137.001s-125.5 -44.5 -207.5 -44.5c-18 0 -35.667 0.833008 -53 2.5s-31.333 4.16699 -42 7.5l26 96c10.667 -3.33301 22.5 -5.5 35.5 -6.5s26.5 -1.5 40.5 -1.5
c38.667 0 72.167 9 100.5 27s54 49.167 77 93.5s43.167 105.166 60.5 182.499l234 1054c6.66699 29.333 12 58.5 16 87.5s6 53.5 6 73.5c0 31.333 -8 53.166 -24 65.499s-40.667 19.5 -74 21.5l11 49h400l-11 -49c-25.333 -5.33301 -43.5 -11.333 -54.5 -18
s-21 -16.667 -30 -30s-18 -34.166 -27 -62.499s-20.5 -74.5 -34.5 -138.5z" />
    <glyph glyph-name="K" unicode="K" horiz-adv-x="1235" 
d="M476 748l33.002 -0.000976562c28 0 53.5 4.66699 76.5 14s49.833 26.333 80.5 51s79.5 70 146.5 136s114.667 116.167 143 150.5s49 64 62 89s19.5 47.833 19.5 68.5c0 16.667 -6.66699 30.167 -20 40.5s-32.333 16.5 -57 18.5l11 49h429l-11 -49
c-26.667 -4 -56.834 -17.833 -90.501 -41.5s-85.167 -69.834 -154.5 -138.501l-388 -378l213 -512c18 -43.333 32.5 -75.166 43.5 -95.499s22.833 -37.333 35.5 -51s27 -24.667 43 -33s35.333 -14.166 58 -17.499l-11 -49h-386l11 49c36 3.33301 54 19.333 54 48
c0 8.66699 -0.833008 17.667 -2.5 27s-5.33398 23 -11.001 41s-13.5 39.667 -23.5 65l-130 318c-15.333 38 -28.666 64.667 -39.999 80s-23.333 26 -36 32s-32.334 9 -59.001 9h-56l-83 -378c-8.66699 -40 -14.334 -71.5 -17.001 -94.5s-4 -43.5 -4 -61.5
c0 -30 7.5 -51.167 22.5 -63.5s40.167 -19.833 75.5 -22.5l-11 -49h-400l11 49c25.333 4 44.333 10.5 57 19.5s23.334 21.5 32.001 37.5s16.667 35.5 24 58.5s18.333 67.5 33 133.5l170 770c6.66699 30.667 12 60.167 16 88.5s6 52.5 6 72.5c0 31.333 -8 53.166 -24 65.499
s-40.667 19.5 -74 21.5l11 49h400l-11 -49c-25.333 -5.33301 -43.5 -11.333 -54.5 -18s-21 -16.667 -30 -30s-18 -34.166 -27 -62.499s-20.5 -74.5 -34.5 -138.5z" />
    <glyph glyph-name="L" unicode="L" horiz-adv-x="1071" 
d="M53 49c25.333 4 44.3311 10.5 56.998 19.5s23.334 21.5 32.001 37.5s16.667 35.5 24 58.5s18.333 67.5 33 133.5l170 770c6.66699 30.667 12 60.167 16 88.5s6 52.5 6 72.5c0 31.333 -8 53.166 -24 65.499s-40.667 19.5 -74 21.5l11 49h400l-11 -49
c-25.333 -5.33301 -43.5 -11.333 -54.5 -18s-21 -16.667 -30 -30s-18 -34.166 -27 -62.499s-20.5 -74.5 -34.5 -138.5l-214 -975h246c44.667 0 79.834 4.33301 105.501 13s50 24.5 73 47.5s45.5 54.167 67.5 93.5s44.333 88.333 67 147h97l-101 -393h-846z" />
    <glyph glyph-name="M" unicode="M" horiz-adv-x="1622" 
d="M1356 1365l314.997 0.000976562l-11 -49c-25.333 -5.33301 -43.5 -11.333 -54.5 -18s-21 -16.667 -30 -30s-18 -34.166 -27 -62.499s-20.5 -74.5 -34.5 -138.5l-171 -776c-8.66699 -39.333 -14.334 -70.5 -17.001 -93.5s-4 -43.833 -4 -62.5
c0 -30 7.5 -51.167 22.5 -63.5s40.167 -19.833 75.5 -22.5l-11 -49h-400l11 49c25.333 4 44.333 10.5 57 19.5s23.334 21.5 32.001 37.5s16.667 35.5 24 58.5s18.333 67.5 33 133.5l133 603c17.333 79.333 39.333 164.333 66 255h-14l-57.5 -103.5l-84.5 -142.5l-455 -751
h-109l-96 750l-27 269h-20c-25.333 -167.333 -50.666 -309 -75.999 -425l-96 -436c-11.333 -50.667 -18.666 -88.334 -21.999 -113.001s-5 -47.667 -5 -69c0 -30 7.5 -51.167 22.5 -63.5s40.167 -19.833 75.5 -22.5l-11 -49h-350l11 49c25.333 4 44.333 10.5 57 19.5
s23.334 21.5 32.001 37.5s16.667 35.5 24 58.5s18.333 67.5 33 133.5l170 770c6.66699 28.667 12 56 16 82s6 52.333 6 79c0 31.333 -8 53.166 -24 65.499s-40.667 19.5 -74 21.5l11 49h357l114 -970z" />
    <glyph glyph-name="N" unicode="N" horiz-adv-x="1374" 
d="M1428 1365l-11.001 -49.001c-25.333 -5.33301 -43.5 -11.333 -54.5 -18s-21 -16.667 -30 -30s-18 -34.166 -27 -62.499s-20.5 -74.5 -34.5 -138.5l-235 -1067h-136l-292 858c-35.333 102.667 -66.333 205 -93 307h-13c-4 -34 -15 -98.833 -33 -194.5
s-37 -189.167 -57 -280.5l-88 -399c-6 -28 -11 -55 -15 -81s-6 -51 -6 -75c0 -30 7.5 -51.167 22.5 -63.5s40.167 -19.833 75.5 -22.5l-11 -49h-350l11 49c25.333 4 44.333 10.5 57 19.5s23.334 21.5 32.001 37.5s16.667 35.5 24 58.5s18.333 67.5 33 133.5l170 770
c6.66699 28.667 12 56 16 82s6 52.333 6 79c0 31.333 -8 53.166 -24 65.499s-40.667 19.5 -74 21.5l11 49h319l264 -779c38 -112 67.333 -206.667 88 -284h11c5.33301 40.667 17.5 108.334 36.5 203.001s36.5 177.334 52.5 248.001l70 315c4.66699 22 9.5 48 14.5 78
s7.5 57.667 7.5 83c0 31.333 -8 53.166 -24 65.499s-40.667 19.5 -74 21.5l11 49h350z" />
    <glyph glyph-name="O" unicode="O" horiz-adv-x="1273" 
d="M837 1381c82.667 0 154.17 -15.999 214.503 -47.999s106.666 -80.667 138.999 -146s48.5 -146 48.5 -242c0 -103.333 -17.667 -219.5 -53 -348.5s-86.5 -240.667 -153.5 -335s-143.5 -164.333 -229.5 -210s-176 -68.5 -270 -68.5c-93.333 0 -170.5 18 -231.5 54
s-105.833 86.167 -134.5 150.5s-43 140.166 -43 227.499c0 84.667 12.167 179.5 36.5 284.5s57.666 199.833 99.999 284.5s92.666 156.667 150.999 216s123.5 104.333 195.5 135s148.667 46 230 46zM1049 987.001c0 204 -74.332 306.001 -222.999 306.001
c-36 0 -70 -6 -102 -18c-37.333 -14.667 -73 -36.334 -107 -65.001c-38 -32.667 -73.333 -74.334 -106 -125.001c-38.667 -60 -72.334 -128.333 -101.001 -205c-30 -80 -54 -166.333 -72 -259c-17.333 -88.667 -26 -169 -26 -241c0 -104 18.833 -181.5 56.5 -232.5
s93.834 -76.5 168.501 -76.5c60 0 117 18.333 171 55c66.667 44.667 126.667 115.667 180 213c57.333 104.667 101.666 232.334 132.999 383.001c18.667 88.667 28 177 28 265z" />
    <glyph glyph-name="P" unicode="P" horiz-adv-x="1137" 
d="M745 1365c79.333 0 144.499 -6.16797 195.499 -18.501s93 -31.333 126 -57s57.667 -58.167 74 -97.5s24.5 -85 24.5 -137c0 -100 -23.667 -186.667 -71 -260s-111.5 -127.333 -192.5 -162s-178.167 -52 -291.5 -52c-68 0 -124.667 1.33301 -170 4l-64 -294
c-6 -27.333 -10.167 -48.333 -12.5 -63s-4.33301 -30.5 -6 -47.5s-2.5 -32.167 -2.5 -45.5c0 -20.667 3.33301 -36.834 10 -48.501s16.667 -20.167 30 -25.5s36.333 -9.33301 69 -12l-11 -49h-411l11 49c25.333 4 44.333 10.5 57 19.5s23.334 21.5 32.001 37.5
s16.667 35.5 24 58.5s18.333 67.5 33 133.5l170 770c14.667 66.667 22 119.334 22 158.001c0 32.667 -7.66699 55.334 -23 68.001s-40.333 20 -75 22l11 49h441zM560.999 667.999c80.667 0 145.832 8.33105 195.499 24.998s90.334 42.5 122.001 77.5s56.167 76.5 73.5 124.5
s26 100.667 26 158c0 56.667 -10 101.334 -30 134.001s-48.333 55.834 -85 69.501s-83.334 20.5 -140.001 20.5c-41.333 0 -84.666 -1 -129.999 -3l-136 -606h104z" />
    <glyph glyph-name="Q" unicode="Q" horiz-adv-x="1273" 
d="M675 1c15.333 -48.667 29.6699 -88.832 43.0029 -120.499s26.166 -57.334 38.499 -77.001s24.5 -34.334 36.5 -44.001s24 -16.167 36 -19.5s26 -5 42 -5c25.333 0 51 7.33301 77 22s55 40 87 76l52 -56c-53.333 -58 -103 -99 -149 -123s-93.333 -36 -142 -36
c-55.333 0 -100.5 12.333 -135.5 37s-65.333 64 -91 118s-50.5 124.667 -74.5 212c-120.667 6.66699 -212.667 46.667 -276 120s-95 176.666 -95 309.999c0 84.667 12.167 179.5 36.5 284.5s57.666 199.833 99.999 284.5s92.666 156.667 150.999 216
s123.5 104.333 195.5 135s148.667 46 230 46c82.667 0 154.167 -16 214.5 -48s106.666 -80.667 138.999 -146s48.5 -146 48.5 -242c0 -93.333 -14.667 -197.666 -44 -312.999s-69.666 -217.166 -120.999 -305.499s-110.833 -159.5 -178.5 -213.5
s-141.167 -91.333 -220.5 -112zM1050 987.002c0 99.333 -18.3311 175.17 -54.998 227.503s-93 78.5 -169 78.5c-36 0 -70 -6 -102 -18c-37.333 -14.667 -73 -36.334 -107 -65.001c-38 -32.667 -73.333 -74.334 -106 -125.001c-38.667 -60 -72.334 -128.333 -101.001 -205
c-30 -80 -54 -166.333 -72 -259c-17.333 -88.667 -26 -169 -26 -241c0 -104 18.833 -181.5 56.5 -232.5s93.834 -76.5 168.501 -76.5c65.333 0 127.166 21.667 185.499 65s111.666 107.666 159.999 192.999s88.333 189.333 120 312s47.5 238 47.5 346z" />
    <glyph glyph-name="R" unicode="R" horiz-adv-x="1209" 
d="M809 619c32 -24 57.8262 -52.6719 77.4932 -86.0049s35.5 -79.666 47.5 -138.999l23 -116c4.66699 -24 9.83398 -46.333 15.501 -67s12.334 -40.5 20.001 -59.5s16 -34.167 25 -45.5s18.667 -20.666 29 -27.999s22 -13.166 35 -17.499s29.5 -8.16602 49.5 -11.499
l-10 -49h-277c-21.333 59.333 -40.333 130 -57 212l-44 212c-7.33301 36.667 -16.166 67.5 -26.499 92.5s-22.666 44.333 -36.999 58s-31 22.667 -50 27s-42.167 6.5 -69.5 6.5h-114l-70 -317c-6 -26 -10.167 -46.667 -12.5 -62s-4.33301 -31.5 -6 -48.5
s-2.5 -32.167 -2.5 -45.5c0 -20.667 3.33301 -36.834 10 -48.501s16.667 -20.167 30 -25.5s36.333 -9.33301 69 -12l-11 -49h-411l11 49c25.333 4 44.333 10.5 57 19.5s23.334 21.5 32.001 37.5s16.667 35.5 24 58.5s18.333 67.5 33 133.5l170 770
c14.667 66.667 22 119.334 22 158.001c0 32.667 -7.66699 55.334 -23 68.001s-40.333 20 -75 22l11 49h445c70.667 0 128.334 -4.16699 173.001 -12.5s82.834 -20.833 114.501 -37.5s58.167 -38.167 79.5 -64.5s37.333 -56 48 -89s16 -68.167 16 -105.5
c0 -59.333 -9.83301 -112 -29.5 -158s-46.5 -86.333 -80.5 -121s-73.5 -64 -118.5 -88s-92.5 -43.667 -142.5 -59v-11zM582.993 693.995c72.667 0 132.998 7.16895 180.998 21.502s88 36.166 120 65.499s58.333 68 79 116s31 100 31 156c0 28.667 -2.66699 54.167 -8 76.5
s-12.333 40.833 -21 55.5s-19.667 27.667 -33 39s-30 21.166 -50 29.499s-43.167 14.333 -69.5 18s-62.166 5.5 -107.499 5.5c-35.333 0 -72.666 -1.33301 -111.999 -4l-128 -579h118z" />
    <glyph glyph-name="S" unicode="S" horiz-adv-x="986" 
d="M159 311c0 -80.667 18.6719 -140.834 56.0049 -180.501s95.666 -59.5 174.999 -59.5c61.333 0 114 11.333 158 34s77.333 54.834 100 96.501s34 91.167 34 148.5c0 40.667 -7.16699 76.5 -21.5 107.5s-36 60.667 -65 89s-70.833 60.833 -125.5 97.5
c-49.333 33.333 -90.333 66.166 -123 98.499s-58.667 68.5 -78 108.5s-29 84.667 -29 134c0 78.667 19 148 57 208s91.667 106.333 161 139s149.333 49 240 49c61.333 0 118.166 -4.16699 170.499 -12.5s110.166 -22.5 173.499 -42.5l-56 -257h-96
c-2.66699 56.667 -11.334 101.167 -26.001 133.5s-35.667 55.5 -63 69.5s-63.666 21 -108.999 21c-55.333 0 -104 -11.333 -146 -34s-74 -53.5 -96 -92.5s-33 -82.5 -33 -130.5c0 -34.667 6 -65.667 18 -93s31.167 -54.166 57.5 -80.499s64.833 -56.833 115.5 -91.5
c65.333 -45.333 115.166 -85.833 149.499 -121.5s59.666 -73.5 75.999 -113.5s24.5 -86.333 24.5 -139c0 -80.667 -19.5 -152.5 -58.5 -215.5s-94 -111.667 -165 -146s-151.833 -51.5 -242.5 -51.5c-62 0 -127.833 4.66699 -197.5 14s-133.5 22 -191.5 38l60 275h96z" />
    <glyph glyph-name="T" unicode="T" horiz-adv-x="1175" 
d="M712 0l-421 0.00195312l11 49c26 3.33301 45.333 8.5 58 15.5s23.834 17.5 33.501 31.5s19.5 35.833 29.5 65.5s21.667 75.167 35 136.5l214 979h-127c-41.333 0 -74.333 -6 -99 -18s-49.334 -34.333 -74.001 -67s-54.667 -87.334 -90 -164.001h-96l75 337h1044l-78 -352
h-96c0 64.667 -1.66699 113.167 -5 145.5s-9.66602 57 -18.999 74s-20.833 28.667 -34.5 35s-37.834 9.5 -72.501 9.5h-148l-217 -986c-6 -26 -10.167 -46.667 -12.5 -62s-4.33301 -31.5 -6 -48.5s-2.5 -32.167 -2.5 -45.5c0 -20.667 3.33301 -36.834 10 -48.501
s16.667 -20.167 30 -25.5s36.333 -9.33301 69 -12z" />
    <glyph glyph-name="U" unicode="U" horiz-adv-x="1295" 
d="M260 1316l11 49h402l-11 -49c-25.333 -5.33301 -43.5 -11.333 -54.5 -18s-21 -16.667 -30 -30s-18 -34.166 -27 -62.499s-20.5 -74.5 -34.5 -138.5l-125 -560c-8.66699 -38 -15.5 -74.167 -20.5 -108.5s-7.5 -69.833 -7.5 -106.5c0 -72.667 17.833 -127.667 53.5 -165
s89.5 -56 161.5 -56c68 0 124.667 14 170 42s81.666 68.333 108.999 121s50.333 121 69 205l139 629c6.66699 30 12 59.333 16 88s6 53 6 73c0 31.333 -8 53.166 -24 65.499s-40.667 19.5 -74 21.5l11 49h380l-11 -49c-24.667 -5.33301 -42.834 -11.5 -54.501 -18.5
s-22 -17.167 -31 -30.5s-17.833 -34.333 -26.5 -63s-20 -74.334 -34 -137.001l-130 -599c-26 -119.333 -62.667 -214.333 -110 -285s-106.5 -121.667 -177.5 -153s-157.833 -47 -260.5 -47c-115.333 0 -203.666 27.833 -264.999 83.5s-92 136.834 -92 243.501
c0 37.333 3.83301 80.166 11.5 128.499s18.5 102.833 32.5 163.5l104 466c8 35.333 13.833 66.833 17.5 94.5s5.5 49.834 5.5 66.501c0 30 -7.66699 51.5 -23 64.5s-40.666 20.5 -75.999 22.5z" />
    <glyph glyph-name="V" unicode="V" horiz-adv-x="1178" 
d="M615 1365l-11.002 -49c-29.333 -3.33301 -52.166 -12 -68.499 -26s-27.833 -33.5 -34.5 -58.5s-10 -58.5 -10 -100.5c0 -13.333 0.333008 -27.333 1 -42l30 -780v-80h10l433 781c25.333 46 44.333 85.5 57 118.5s19 62.167 19 87.5c0 26.667 -7.83301 48.5 -23.5 65.5
s-41.167 28.5 -76.5 34.5l11 49h409l-11 -49c-18 -2.66699 -35.167 -9.5 -51.5 -20.5s-34.666 -29.333 -54.999 -55s-51.833 -75.167 -94.5 -148.5l-640 -1108h-133l-67 1115c-2.66699 43.333 -7.5 80.5 -14.5 111.5s-18 55.167 -33 72.5s-38.833 28.333 -71.5 33l11 49h414
z" />
    <glyph glyph-name="W" unicode="W" horiz-adv-x="1836" 
d="M1051 -13v732c0 118.667 3 242.334 9 371.001h-10l-535 -1103h-157l-47 1112c-2.66699 55.333 -8.5 97.666 -17.5 126.999s-21.167 50.666 -36.5 63.999s-37 22 -65 26l11 49h417l-11 -49c-30 -2 -53.5 -10.833 -70.5 -26.5s-28.833 -37 -35.5 -64
s-10 -65.167 -10 -114.5v-34c0 -12 0.333008 -24.333 1 -37l9 -391c0.666992 -28.667 1 -72.667 1 -132v-81l-1 -209h10l553 1138h151v-667c0 -79.333 -1 -156.333 -3 -231l-6 -240h10l405 783c15.333 29.333 31.5 63.833 48.5 103.5s25.5 73.834 25.5 102.501
c0 26.667 -7.83301 48.5 -23.5 65.5s-41.167 28.5 -76.5 34.5l11 49h409l-11 -49c-30.667 -4 -60 -20.833 -88 -50.5s-65.333 -87.5 -112 -173.5l-601 -1105h-154z" />
    <glyph glyph-name="X" unicode="X" horiz-adv-x="1116" 
d="M640 1365l-11.001 -49c-28.667 -4.66699 -51.5 -14.5 -68.5 -29.5s-25.5 -36.833 -25.5 -65.5c0 -42.667 11 -96.334 33 -161.001l83 -242l214 271c10 12.667 19.833 25.834 29.5 39.501s18.334 27 26.001 40s13.334 24.167 17.001 33.5s6.33398 17.666 8.00098 24.999
s2.5 14.333 2.5 21c0 18 -5.33301 33.333 -16 46s-29 20 -55 22l11 49h373l-11 -49c-20 -6 -38.833 -15.667 -56.5 -29s-38.667 -33.333 -63 -60s-69.5 -79.334 -135.5 -158.001l-298 -356l146 -406c22 -61.333 39.667 -107.666 53 -138.999
c14.667 -33.333 27.334 -57.666 38.001 -72.999c8.66699 -11.333 17.667 -20.333 27 -27c9.33301 -6 25 -12.333 47 -19l-10 -49h-404l10 49c30.667 4.66699 54.167 15.167 70.5 31.5s24.5 37.5 24.5 63.5c0 39.333 -8 83 -24 131l-104 305l-228 -285
c-34 -42.667 -58.667 -77.5 -74 -104.5s-23 -50.167 -23 -69.5c0 -16 2.16699 -28.667 6.5 -38s11.666 -16.833 21.999 -22.5s24.5 -9.5 42.5 -11.5l-11 -49h-372l10 49c13.333 4.66699 25.166 9.83398 35.499 15.501s21.666 13.667 33.999 24s29 27.166 50 50.499l71.5 82
l390 464l-148 411c-14.667 40.667 -27.667 74.667 -39 102s-22.5 49 -33.5 65s-22.5 28 -34.5 36s-27 13.667 -45 17l11 49h404z" />
    <glyph glyph-name="Y" unicode="Y" horiz-adv-x="1122" 
d="M587 1365l-11.0039 -48.9961c-28 -2.66699 -49.333 -10.834 -64 -24.501s-22 -34.834 -22 -63.501c0 -40.667 9.33301 -94 28 -160l106 -377l246 329c36.667 48.667 63.167 86.834 79.5 114.501s27.833 52.167 34.5 73.5c5.33301 16 8 31.333 8 46
c0 18.667 -6.33301 33 -19 43s-31 16.333 -55 19l11 49h375l-11 -49c-16 -3.33301 -29.833 -8.16602 -41.5 -14.499s-25 -16.5 -40 -30.5s-35.333 -36.5 -61 -67.5l-98.5 -124.5l-389 -505l-62 -283c-6 -26.667 -10.167 -47.5 -12.5 -62.5s-4.33301 -31 -6 -48
s-2.5 -32.167 -2.5 -45.5c0 -20.667 3.33301 -36.834 10 -48.501s16.667 -20.167 30 -25.5s36.333 -9.33301 69 -12l-11 -49h-421l11 49c26.667 4 46.334 9.33301 59.001 16s23.834 17 33.501 31s19.334 36 29.001 66s21.167 75.333 34.5 136l59 276l-145 505
c-22 77.333 -39.333 129.666 -52 156.999s-26.167 46.666 -40.5 57.999s-33.166 18.666 -56.499 21.999l11 49h387z" />
    <glyph glyph-name="Z" unicode="Z" horiz-adv-x="1049" 
d="M237 92l319.997 -0.00195312c29.333 0 53.333 2 72 6s35.334 10 50.001 18s28.334 18 41.001 30s25.5 26.333 38.5 43s27.333 39 43 67s32.834 63.333 51.501 106h96l-77 -362h-887l10 49l908 1224h-307c-28 0 -50.333 -1.5 -67 -4.5s-31.334 -7.66699 -44.001 -14
s-24 -13.666 -34 -21.999s-21.833 -20.666 -35.5 -36.999s-28.667 -37.5 -45 -63.5s-35.166 -61 -56.499 -105h-96l74 338h866l-11 -48z" />
    <glyph glyph-name="bracketleft" unicode="[" horiz-adv-x="694" 
d="M452 -430h-423l409 1861h423l-18 -82h-253l-374 -1699h253z" />
    <glyph glyph-name="backslash" unicode="\" horiz-adv-x="954" 
d="M418 1431l269 -1861h-146l-269 1861h146z" />
    <glyph glyph-name="bracketright" unicode="]" horiz-adv-x="694" 
d="M267 -430h-423l18 81h252l373 1698h-253l18 82h424z" />
    <glyph glyph-name="asciicircum" unicode="^" horiz-adv-x="1082" 
d="M835 675l-123 569l-367 -569h-154l473 706h144l169 -706h-142z" />
    <glyph glyph-name="underscore" unicode="_" horiz-adv-x="759" 
d="M-145 -241v116h759v-116h-759z" />
    <glyph glyph-name="grave" unicode="`" horiz-adv-x="554" 
d="M433 1442l133 -328l-71 -44l-235 322l11 50h162z" />
    <glyph glyph-name="a" unicode="a" horiz-adv-x="1077" 
d="M834 907l92 65.998l64 -16l-153 -679c-9.33301 -40 -15.666 -70.833 -18.999 -92.5s-5 -39.5 -5 -53.5c0 -27.333 7.66699 -47.166 23 -59.499s44.666 -20.166 87.999 -23.499l-9 -49h-286l63 251l-13 4c-64 -93.333 -124.667 -161.666 -182 -204.999s-118 -65 -182 -65
c-73.333 0 -130.166 27.667 -170.499 83s-60.5 133 -60.5 233c0 64 7.33301 128.167 22 192.5s36.834 125.333 66.501 183s65.167 108.5 106.5 152.5s89.166 79 143.499 105s113.5 39 177.5 39c41.333 0 80.666 -4.83301 117.999 -14.5s76 -26.834 116 -51.501zM746 608.998
c6 27.333 10.002 51 12.002 71s3 41.667 3 65c0 52 -11 89.833 -33 113.5s-58.667 35.5 -110 35.5c-28 0 -54.667 -4.5 -80 -13.5s-51 -24 -77 -45s-50.833 -48.5 -74.5 -82.5s-45.167 -75.333 -64.5 -124s-34.333 -100.834 -45 -156.501s-16 -109.834 -16 -162.501
c0 -69.333 9.5 -121.166 28.5 -155.499s50.833 -51.5 95.5 -51.5c20.667 0 42.167 4.66699 64.5 14s47.166 26.5 74.499 51.5s58.333 61.833 93 110.5c31.333 44.667 56.166 88.834 74.499 132.501s33.5 95.167 45.5 154.5z" />
    <glyph glyph-name="b" unicode="b" horiz-adv-x="1067" 
d="M233 49l-92 -64.9961l-64 16l259 1143c4 16.667 8.83301 40.667 14.5 72s8.5 56.666 8.5 75.999c0 28 -8.5 47.667 -25.5 59s-47.5 17.666 -91.5 18.999l12 52l253 9h58l-176 -700l13 -4c64.667 86.667 125.334 149.334 182.001 188.001s113.334 58 170.001 58
c72.667 0 129.167 -27.667 169.5 -83s60.5 -133.333 60.5 -234c0 -72 -9.83301 -144.333 -29.5 -217s-47 -138.334 -82 -197.001s-74 -106.834 -117 -144.501s-88.333 -65.834 -136 -84.501s-97.834 -28 -150.501 -28c-88.667 0 -167.334 21.667 -236.001 65zM321 348.004
c-6.66699 -30 -10.835 -55.5 -12.502 -76.5s-2.5 -40.833 -2.5 -59.5c0 -52.667 11.5 -90.667 34.5 -114s61.167 -35 114.5 -35c34.667 0 66.334 6.66699 95.001 20s55.834 32.833 81.501 58.5s49 56.834 70 93.501s39.5 78.5 55.5 125.5s28.167 95.667 36.5 146
s12.5 97.166 12.5 140.499c0 69.333 -9.83301 121.333 -29.5 156s-51.167 52 -94.5 52c-32 0 -63.5 -10.167 -94.5 -30.5s-65.5 -54 -103.5 -101s-69 -95.167 -93 -144.5s-44.333 -112.333 -61 -189z" />
    <glyph glyph-name="c" unicode="c" horiz-adv-x="887" 
d="M735 716c-1.33301 50.667 -5.49609 87.335 -12.4961 110.002s-18.333 39.667 -34 51s-37.834 17 -66.501 17c-67.333 0 -127.833 -26.833 -181.5 -80.5s-97.5 -129.667 -131.5 -228s-51 -192.833 -51 -283.5c0 -28 2.5 -54.333 7.5 -79s13.667 -46 26 -64
s28.666 -32.167 48.999 -42.5s46.166 -15.5 77.499 -15.5c60.667 0 113.167 11.5 157.5 34.5s91.166 59.167 140.499 108.5l61 -61c-62.667 -69.333 -125.834 -120 -189.501 -152s-132.167 -48 -205.5 -48c-96.667 0 -170 28.667 -220 86s-75 140.666 -75 249.999
c0 71.333 13.333 149.666 40 234.999s65.667 160.333 117 225s111.333 113 180 145s142 48 220 48c53.333 0 99.833 -3 139.5 -9s74.834 -13 105.501 -21l-49 -226h-105z" />
    <glyph glyph-name="d" unicode="d" horiz-adv-x="1073" 
d="M870 1148c5.33301 22 9.99902 46.3301 13.999 72.9971s6 50 6 70s-3.66699 35.167 -11 45.5s-17.833 17.833 -31.5 22.5s-38.167 8 -73.5 10l12 52l251 9h59l-259 -1152c-9.33301 -42 -15.666 -73.333 -18.999 -94s-5 -38 -5 -52c0 -27.333 7.66699 -47.166 23 -59.499
s44.666 -20.166 87.999 -23.499l-9 -49h-286l63 251l-13 4c-64 -93.333 -124.667 -161.666 -182 -204.999s-118 -65 -182 -65c-73.333 0 -130.166 27.667 -170.499 83s-60.5 133 -60.5 233c0 64 7.33301 128.167 22 192.5s36.834 125.333 66.501 183
s65.167 108.5 106.5 152.5s89.166 79 143.499 105s113.5 39 177.5 39c40.667 0 78.167 -4.16699 112.5 -12.5s69.5 -22.833 105.5 -43.5zM745.999 608.997c10 48 15.002 93.333 15.002 136c0 52 -11 89.833 -33 113.5s-58.667 35.5 -110 35.5c-28 0 -54.667 -4.5 -80 -13.5
s-51 -24 -77 -45s-50.833 -48.5 -74.5 -82.5s-45.167 -75.333 -64.5 -124s-34.333 -100.834 -45 -156.501s-16 -109.834 -16 -162.501c0 -69.333 9.5 -121.166 28.5 -155.499s50.833 -51.5 95.5 -51.5c20.667 0 42.167 4.66699 64.5 14s47.166 26.5 74.499 51.5
s58.333 61.833 93 110.5c31.333 44.667 56.166 88.834 74.499 132.501s33.5 95.167 45.5 154.5z" />
    <glyph glyph-name="e" unicode="e" horiz-adv-x="936" 
d="M814 199c-49.333 -54 -96.6689 -96.668 -142.002 -128.001s-90.666 -53.666 -135.999 -66.999s-95.333 -20 -150 -20c-52.667 0 -98 8.5 -136 25.5s-69.5 40.333 -94.5 70s-43.5 65 -55.5 106s-18 85.5 -18 133.5c0 71.333 12.833 147.833 38.5 229.5s64.5 155 116.5 220
s114.333 115.333 187 151s150 53.5 232 53.5c80.667 0 141.167 -16.333 181.5 -49s60.5 -83.667 60.5 -153c0 -113.333 -53.167 -198.333 -159.5 -255s-264.166 -85 -473.499 -85c-8 -40 -12 -83.333 -12 -130c0 -70 13.667 -120.833 41 -152.5s72 -47.5 134 -47.5
c61.333 0 117 13.333 167 40s102.333 67.667 157 123zM281.997 515.999c61.333 0.666992 115.168 4.16895 161.501 10.502s86.166 15 119.499 26s61 24.167 83 39.5s39.5 32.166 52.5 50.499s22 37.666 27 57.999s7.5 41.5 7.5 63.5c0 40.667 -9.5 72.5 -28.5 95.5
s-47.167 34.5 -84.5 34.5c-46.667 0 -92.5 -16.833 -137.5 -50.5s-84.667 -79 -119 -136s-61.5 -120.833 -81.5 -191.5z" />
    <glyph glyph-name="f" unicode="f" horiz-adv-x="599" 
d="M254 -17c-22.667 -106.667 -53.8301 -191.334 -93.4971 -254.001s-87.834 -107.667 -144.501 -135s-125.334 -41 -206.001 -41c-29.333 0 -55.666 3.33301 -78.999 10l23 88c16 -5.33301 39.333 -8 70 -8c35.333 0 64.166 4.66699 86.499 14s43 24.5 62 45.5
s37 51.667 54 92s33.167 93.5 48.5 159.5l203 901h-121l12 51c32.667 3.33301 55.667 7.83301 69 13.5s24.166 13.334 32.499 23.001s15.833 23.334 22.5 41.001s16.334 48.167 29.001 91.5c35.333 120 89.833 210.167 163.5 270.5s167.5 90.5 281.5 90.5
c65.333 0 121.666 -5.33301 168.999 -16l-39 -170h-88c-9.33301 38 -21.5 65.333 -36.5 82s-37.167 25 -66.5 25c-38 0 -70.333 -10.333 -97 -31s-49.5 -51.834 -68.5 -93.501s-36.5 -97.5 -52.5 -167.5l-25 -109h229l-22 -101h-230z" />
    <glyph glyph-name="g" unicode="g" horiz-adv-x="1070" 
d="M102 -86c-12.667 -15.333 -23.334 -30.5 -32.001 -45.5s-14.834 -29.5 -18.501 -43.5s-5.5 -30.667 -5.5 -50c0 -50 18 -86.5 54 -109.5s90.333 -34.5 163 -34.5c66 0 121 11.667 165 35s81.333 59.166 112 107.499s57.5 108 80.5 179s46.5 165.833 70.5 284.5l-14 3
c-64.667 -88.667 -124.667 -153.334 -180 -194.001s-115 -61 -179 -61c-72.667 0 -129.167 27.333 -169.5 82s-60.5 132.667 -60.5 234c0 74 9.66699 147 29 219s46.333 137 81 195s73.834 106.167 117.501 144.5s89.834 66.833 138.501 85.5s99.334 28 152.001 28
c42 0 81.667 -5 119 -15s75 -27 113 -51l92 66l64 -16l-104 -469c-7.33301 -33.333 -15 -71 -23 -113l-26 -131c-31.333 -157.333 -56.333 -265.666 -75 -324.999c-22.667 -68.667 -49.334 -126 -80.001 -172c-28.667 -42 -62.667 -77.167 -102 -105.5
s-84.833 -50.166 -136.5 -65.499s-112.5 -23 -182.5 -23c-252 0 -378 73.333 -378 220c0 37.333 11.333 71.333 34 102s59 63 109 97zM389 103c34 0 67.834 11.667 101.501 35s69.667 60.333 108 111s68.166 99 89.499 145s39.5 103.333 54.5 172s22.5 128.334 22.5 179.001
c0 52 -11 89.833 -33 113.5s-58.667 35.5 -110 35.5c-28 0 -54.667 -4.5 -80 -13.5s-51 -24 -77 -45s-50.833 -48.5 -74.5 -82.5s-45.167 -75.333 -64.5 -124s-34.333 -100.834 -45 -156.501s-16 -109.834 -16 -162.501c0 -69.333 10 -121.166 30 -155.499
s51.333 -51.5 94 -51.5z" />
    <glyph glyph-name="h" unicode="h" horiz-adv-x="1086" 
d="M933 0l-313.998 -0.00195312l126 508c9.33301 36.667 17.5 73.834 24.5 111.501s10.5 71.834 10.5 102.501c0 48 -8 82.167 -24 102.5s-43 30.5 -81 30.5c-27.333 0 -57.5 -11.333 -90.5 -34s-67.833 -57.167 -104.5 -103.5s-65.834 -90.666 -87.501 -132.999
s-38.834 -92.833 -51.501 -151.5l-91 -433h-173l257 1143c7.33301 33.333 12.5 57.5 15.5 72.5s5.16699 28.833 6.5 41.5s2 24 2 34c0 28 -8.5 47.667 -25.5 59s-47.5 17.666 -91.5 18.999l12 52l253 9h58l-172 -693l12 -4c62.667 83.333 122.334 144 179.001 182
s114.334 57 173.001 57c64.667 0 113.667 -17.833 147 -53.5s50 -88.5 50 -158.5c0 -42.667 -6.66699 -94 -20 -154l-84 -356c-6.66699 -28.667 -11.334 -51.667 -14.001 -69s-4 -32.333 -4 -45c0 -20.667 3.5 -36.667 10.5 -48s17.667 -19.833 32 -25.5
s37.166 -10.167 68.499 -13.5z" />
    <glyph glyph-name="i" unicode="i" horiz-adv-x="555" 
d="M560 1348l-46 -194h-177l46 194h177zM313 250c-7.33301 -34 -12 -58.8311 -14 -74.498s-3 -28.834 -3 -39.501c0 -20 3.33301 -35.667 10 -47s17 -20 31 -26s37 -10.667 69 -14l-9 -49h-310l151 674c8.66699 38.667 14.667 69.5 18 92.5s5 42.167 5 57.5
c0 19.333 -2.83301 34.333 -8.5 45s-15.167 18.667 -28.5 24s-36.333 8.66602 -69 9.99902l11 53l244 9h59z" />
    <glyph glyph-name="j" unicode="j" horiz-adv-x="545" 
d="M563 1348l-46 -194h-177l46 194h177zM262 -17c-21.333 -101.333 -50.3311 -182.831 -86.998 -244.498s-84.334 -108 -143.001 -139s-128.667 -46.5 -210 -46.5c-33.333 0 -61.666 3.33301 -84.999 10l23 88c10.667 -3.33301 22.5 -5.5 35.5 -6.5s26.5 -1.5 40.5 -1.5
c32 0 59.167 4.83301 81.5 14.5s43.166 25.667 62.499 48s37.166 53.5 53.499 93.5s31.5 91.667 45.5 155l162 720c8.66699 37.333 14.667 67.666 18 90.999s5 43 5 59c0 19.333 -2.83301 34.333 -8.5 45s-15.167 18.667 -28.5 24s-36.333 8.66602 -69 9.99902l11 53l244 9
h57z" />
    <glyph glyph-name="k" unicode="k" horiz-adv-x="1018" 
d="M368 557h32c20.667 0 43 4 67 12s49.667 20.5 77 37.5s64 43.833 110 80.5c34.667 28 60.334 51.833 77.001 71.5s28 36.834 34 51.501s9 28.667 9 42c0 32.667 -22.667 51 -68 55l11 49h324l19 -49c-55.333 -50 -114 -99 -176 -147l-253 -197l150 -379
c13.333 -34 27 -60.167 41 -78.5s30.167 -31.833 48.5 -40.5s41.833 -14 70.5 -16l-11 -49h-267l-146 411c-9.33301 26 -17.333 43.667 -24 53s-14.334 16 -23.001 20s-22.667 6 -42 6h-74l-104 -490h-173l257 1143c7.33301 33.333 12.5 57.5 15.5 72.5
s5.16699 28.833 6.5 41.5s2 24 2 34c0 28 -8.5 47.667 -25.5 59s-47.5 17.666 -91.5 18.999l12 52l253 9h58z" />
    <glyph glyph-name="l" unicode="l" horiz-adv-x="546" 
d="M505 1430l58.999 -0.000976562l-260 -1180c-7.33301 -32 -12 -56.167 -14 -72.5s-3 -30.166 -3 -41.499c0 -20 3.33301 -35.667 10 -47s17 -20 31 -26s37 -10.667 69 -14l-8 -49h-312l258 1148c6.66699 29.333 11.334 51.333 14.001 66s4.66699 28.667 6 42s2 25 2 35
c0 20 -3.66699 35.167 -11 45.5s-17.833 17.833 -31.5 22.5s-38.167 8 -73.5 10l12 52z" />
    <glyph glyph-name="m" unicode="m" horiz-adv-x="1636" 
d="M959 760v-14.001c0 -4.66699 -0.333008 -9.66699 -1 -15c58 82 115.667 142.667 173 182s116.666 59 177.999 59c63.333 0 111.5 -17.833 144.5 -53.5s49.5 -88.5 49.5 -158.5c0 -42.667 -6.66699 -94 -20 -154l-84 -356c-11.333 -48 -17 -86 -17 -114
c0 -20 3.33301 -35.667 10 -47s17 -20 31 -26s37 -10.667 69 -14l-9 -49h-314l126 508c9.33301 36.667 17.5 73.834 24.5 111.501s10.5 71.834 10.5 102.501c0 48 -8.33301 82.167 -25 102.5s-43 30.5 -79 30.5c-26 0 -55.167 -10.667 -87.5 -32s-66.166 -54 -101.499 -98
s-64.166 -87.5 -86.499 -130.5s-40.166 -95.5 -53.499 -157.5l-91 -437h-173l115 508c14 62 23.5 107.833 28.5 137.5s7.5 55.167 7.5 76.5c0 48 -8.5 82.167 -25.5 102.5s-43.5 30.5 -79.5 30.5c-26.667 0 -56.167 -10.833 -88.5 -32.5s-66.5 -55.167 -102.5 -100.5
s-64.833 -89.833 -86.5 -133.5s-38.5 -95.5 -50.5 -155.5l-91 -433h-173l152 683c3.33301 15.333 7.83301 38 13.5 68s8.5 55 8.5 75c0 18.667 -2.83301 33.167 -8.5 43.5s-15.334 18 -29.001 23s-36.834 8.5 -69.501 10.5l12 53l228 9h56l-66 -259l12 -4
c61.333 91.333 122.333 159.166 183 203.499s122 66.5 184 66.5c64 0 112.667 -18.167 146 -54.5s50 -88.833 50 -157.5z" />
    <glyph glyph-name="n" unicode="n" horiz-adv-x="1096" 
d="M943 0h-315.003l127 508c8 32.667 15.833 68.667 23.5 108s11.5 74.666 11.5 105.999c0 47.333 -8.16699 81.333 -24.5 102s-41.833 31 -76.5 31c-28 0 -58.167 -10.833 -90.5 -32.5s-66.166 -54 -101.499 -97s-65.166 -86.667 -89.499 -131
s-43.166 -98.166 -56.499 -161.499l-91 -433h-173l152 683c3.33301 15.333 7.83301 38 13.5 68s8.5 55 8.5 75c0 18.667 -2.83301 33.167 -8.5 43.5s-15.334 18 -29.001 23s-36.834 8.5 -69.501 10.5l12 53l227 9h57l-67 -260l12 -4c65.333 92 128.333 160.167 189 204.5
s121.334 66.5 182.001 66.5c64.667 0 113.667 -17.833 147 -53.5s50 -88.5 50 -158.5c0 -24 -2.16699 -50.167 -6.5 -78.5s-9.16602 -53.5 -14.499 -75.5l-84 -356c-11.333 -48 -17 -86 -17 -114c0 -20 3.33301 -35.667 10 -47s17 -20 31 -26s37 -10.667 69 -14z" />
    <glyph glyph-name="o" unicode="o" horiz-adv-x="1038" 
d="M409 -17c-103.333 0 -183.5 29 -240.5 87s-85.5 141.333 -85.5 250c0 40 5 87 15 141c12.667 70 30.667 132 54 186c30 67.333 68.5 125.5 115.5 174.5s101 86.333 162 112s126.5 38.5 196.5 38.5c76.667 0 139.5 -14.667 188.5 -44s84.5 -69.166 106.5 -119.499
s33 -108.5 33 -174.5c0 -59.333 -8.33301 -122.666 -25 -189.999c-24 -98.667 -59 -182.334 -105 -251.001s-103.667 -120.834 -173 -156.501s-150 -53.5 -242 -53.5zM258 277c0 -73.333 15.1689 -127.501 45.502 -162.501s76.166 -52.5 137.499 -52.5
c65.333 0 123.333 29.333 174 88s90.667 140.834 120 246.501s44 198.5 44 278.5c0 72 -14 126.167 -42 162.5s-71.667 54.5 -131 54.5c-69.333 0 -129.833 -29 -181.5 -87s-92.334 -141 -122.001 -249s-44.5 -201 -44.5 -279z" />
    <glyph glyph-name="p" unicode="p" horiz-adv-x="1079" 
d="M214 -177c-6.66699 -32 -10.8291 -56.665 -12.4961 -73.998s-2.5 -31.666 -2.5 -42.999c0 -20 3.33301 -35.667 10 -47s17 -20 31 -26s37 -10.667 69 -14l-8 -49h-309l253 1112c12.667 56 19 104 19 144c0 18.667 -2.83301 33.167 -8.5 43.5s-15.334 18 -29.001 23
s-36.834 8.5 -69.501 10.5l12 53l227 9h57l-67 -260l12 -4c123.333 180.667 246 271 368 271c72.667 0 129.167 -27.667 169.5 -83s60.5 -133.333 60.5 -234c0 -72 -9.83301 -144.333 -29.5 -217s-47 -138.334 -82 -197.001s-74 -106.834 -117 -144.501
s-88.333 -65.834 -136 -84.501s-97.834 -28 -150.501 -28c-88.667 0 -162.334 19.333 -221.001 58zM334.005 348.002c-6.66699 -35.333 -10.833 -62.332 -12.5 -80.999s-2.5 -37 -2.5 -55c0 -52 11.167 -89.833 33.5 -113.5s60.833 -35.5 115.5 -35.5
c34 0 65.333 6.66699 94 20s55.834 32.666 81.501 57.999s48.834 56 69.501 92s39.167 77.833 55.5 125.5s28.666 96.667 36.999 147s12.5 97.5 12.5 141.5c0 70 -9.83301 122.167 -29.5 156.5s-50.834 51.5 -93.501 51.5c-34 0 -67.5 -11.5 -100.5 -34.5
s-69.167 -59.833 -108.5 -110.5s-70 -100.667 -92 -150s-39.333 -106 -52 -170z" />
    <glyph glyph-name="q" unicode="q" horiz-adv-x="1068" 
d="M666 232c-60 -84.667 -118.5 -146.999 -175.5 -186.999s-115.167 -60 -174.5 -60c-73.333 0 -130.166 27.667 -170.499 83s-60.5 133 -60.5 233c0 64 7.33301 128.167 22 192.5s36.834 125.333 66.501 183s65.167 108.5 106.5 152.5s89.166 79 143.499 105
s113.5 39 177.5 39c41.333 0 80.666 -4.83301 117.999 -14.5s76 -26.834 116 -51.501l92 66l64 -16l-256 -1137c-11.333 -50.667 -17 -88.667 -17 -114c0 -20.667 3.33301 -36.5 10 -47.5s17.167 -19.5 31.5 -25.5s37.5 -10.667 69.5 -14l-9 -49h-312l172 656zM747 609.001
c6 29.333 10.002 54.5 12.002 75.5s3 41.167 3 60.5c0 52 -11 89.833 -33 113.5s-58.667 35.5 -110 35.5c-28 0 -54.667 -4.5 -80 -13.5s-51 -24 -77 -45s-50.833 -48.5 -74.5 -82.5s-45.167 -75.333 -64.5 -124s-34.333 -100.834 -45 -156.501s-16 -109.834 -16 -162.501
c0 -69.333 9.5 -121.166 28.5 -155.499s50.833 -51.5 95.5 -51.5c20.667 0 42.167 4.66699 64.5 14s47.166 26.5 74.499 51.5s58.333 61.833 93 110.5c31.333 44.667 56.166 88.834 74.499 132.501s33.5 95.167 45.5 154.5z" />
    <glyph glyph-name="r" unicode="r" horiz-adv-x="834" 
d="M398 965h59.999l-70 -246l12 -4c63.333 87.333 125.166 152 185.499 194s122.5 63 186.5 63c48.667 0 89.334 -3.66699 122.001 -11l-48 -224h-103c-5.33301 34.667 -13.666 61 -24.999 79s-29 27 -53 27c-26 0 -56 -13.333 -90 -40s-68.667 -63.334 -104 -110.001
s-61.833 -89.667 -79.5 -129s-31.167 -83 -40.5 -131l-91 -433h-173l152 683c14 62.667 21 110.334 21 143.001c0 18.667 -3 33.167 -9 43.5s-15.667 18 -29 23s-36 8.5 -68 10.5l11 53z" />
    <glyph glyph-name="s" unicode="s" horiz-adv-x="782" 
d="M660 723c-7.33301 60 -24.5 103.497 -51.5 130.497s-68.833 40.5 -125.5 40.5c-31.333 0 -59.666 -5.83301 -84.999 -17.5s-45.333 -28.667 -60 -51s-22 -48.5 -22 -78.5c0 -24.667 5 -47.167 15 -67.5s26.833 -41.5 50.5 -63.5s56.834 -47.333 99.501 -76
c64.667 -43.333 110 -85.333 136 -126s39 -87.667 39 -141c0 -62.667 -15 -115.834 -45 -159.501s-71 -76.167 -123 -97.5s-110.667 -32 -176 -32c-58.667 0 -113.5 4.33301 -164.5 13s-100.5 19.667 -148.5 33l47 216h78c4.66699 -61.333 22.167 -107.166 52.5 -137.499
s74.5 -45.5 132.5 -45.5c59.333 0 105.666 14.833 138.999 44.5s50 68.834 50 117.501c0 28.667 -5 54.334 -15 77.001s-25.667 44.334 -47 65.001s-51.666 44.334 -90.999 71.001c-42 28.667 -76 55.667 -102 81s-46.167 53.166 -60.5 83.499s-21.5 63.833 -21.5 100.5
c0 55.333 13.667 103.333 41 144s66.166 71.667 116.499 93s109.166 32 176.499 32c110 0 207 -14.333 291 -43l-46 -206h-80z" />
    <glyph glyph-name="t" unicode="t" horiz-adv-x="707" 
d="M675 184c-54.667 -66 -108.667 -115.833 -162 -149.5s-110 -50.5 -170 -50.5c-70.667 0 -123.334 18 -158.001 54s-52 88.333 -52 157c0 42 6 89 18 141l124 519h-149l11 51c39.333 4.66699 70.5 13.167 93.5 25.5s42.333 28.666 58 48.999s30.167 46.833 43.5 79.5
s30 80.334 50 143.001h138l-55 -247h317l-22 -101h-318l-96 -388c-26.667 -108 -40 -188.667 -40 -242c0 -40.667 8.83301 -71.5 26.5 -92.5s43.5 -31.5 77.5 -31.5c30.667 0 62.834 11.833 96.501 35.5s70.5 59.5 110.5 107.5z" />
    <glyph glyph-name="u" unicode="u" horiz-adv-x="1096" 
d="M153 956l314.998 0.00195312l-127 -509c-9.33301 -37.333 -17.5 -74.5 -24.5 -111.5s-10.5 -70.833 -10.5 -101.5c0 -47.333 8.16699 -81.333 24.5 -102s41.833 -31 76.5 -31c28.667 0 59.667 11.167 93 33.5s68.666 57 105.999 104s66.833 91.5 88.5 133.5
s38.5 92 50.5 150l91 434h173l-152 -683c-4 -18 -8.66699 -41.667 -14 -71s-8 -53.333 -8 -72c0 -28 7.83301 -47.833 23.5 -59.5s44.834 -18.834 87.501 -21.501l-11 -49h-286l64 251l-13 4c-64.667 -92 -127.167 -160.167 -187.5 -204.5s-121.166 -66.5 -182.499 -66.5
c-64.667 0 -113.667 17.833 -147 53.5s-50 88.5 -50 158.5c0 20 1.83301 43.5 5.5 70.5s8.83398 55.167 15.501 84.5l84 355c6.66699 29.333 11.167 52.666 13.5 69.999s3.5 32 3.5 44c0 30 -8 51 -24 63s-44.667 19.667 -86 23z" />
    <glyph glyph-name="v" unicode="v" horiz-adv-x="942" 
d="M934 956l27 -49.999c-24.667 -59.333 -43.5 -103.333 -56.5 -132s-30.667 -64.5 -53 -107.5s-47.333 -88.167 -75 -135.5s-59.167 -98 -94.5 -152l-120.5 -178l-158.5 -217h-125l-93 755c-6 48.667 -12.5 83.5 -19.5 104.5s-17.167 36.333 -30.5 46
s-34.333 15.5 -63 17.5l11 49h257l76 -795c114.667 158 199.667 291 255 399s83 195.667 83 263c0 31.333 -6.66699 52.666 -20 63.999s-36 18 -68 20l10 49h258z" />
    <glyph glyph-name="w" unicode="w" horiz-adv-x="1490" 
d="M979 166c104 148 183.166 277.17 237.499 387.503s81.5 200.166 81.5 269.499c0 31.333 -6.66699 52.666 -20 63.999s-36 18 -68 20l10 49h258l27 -50c-23.333 -59.333 -42 -105 -56 -137s-32.333 -70.5 -55 -115.5s-46.667 -89.833 -72 -134.5
s-55.166 -93.834 -89.499 -147.501l-115.5 -175l-151 -212.5h-119l-41 418c-3.33301 32.667 -6.83301 75.334 -10.5 128.001s-6.16699 93.334 -7.5 122.001l-11 1c-36 -88.667 -85 -187.334 -147 -296.001s-138.667 -233 -230 -373h-134l-76 753c-4 38.667 -9 70 -15 94
s-16 42 -30 54s-37 19.333 -69 22l11 49h262l60 -789c94 153.333 161.833 270 203.5 350s72.5 149.167 92.5 207.5s35.333 119.166 46 182.499l11 49h144z" />
    <glyph glyph-name="x" unicode="x" horiz-adv-x="920" 
d="M946 907c-129.333 -138 -264.668 -274.334 -406.001 -409.001l93 -219c24.667 -58.667 44.334 -101.834 59.001 -129.501s28 -47.667 40 -60s24 -21.333 36 -27s31 -10.167 57 -13.5l-11 -49h-249l-139 402c-16 -14 -37.167 -33.5 -63.5 -58.5s-51.833 -51.667 -76.5 -80
s-42 -51.166 -52 -68.499s-16.5 -32.333 -19.5 -45s-4.5 -25.667 -4.5 -39c0 -17.333 4.83301 -31 14.5 -41s26.167 -17 49.5 -21l-11 -49h-285l-19 49c146 156.667 289.667 301 431 433l-95 223c-19.333 45.333 -35 79.833 -47 103.5s-23.5 42 -34.5 55s-23.667 23 -38 30
s-34.833 11.5 -61.5 13.5l11 49h249l133 -377c32.667 30 63.667 61 93 93s50 57.333 62 76s20.333 35.334 25 50.001s7 30 7 46c0 36.667 -21.333 57.667 -64 63l11 49h285z" />
    <glyph glyph-name="y" unicode="y" horiz-adv-x="942" 
d="M185 738c-6.66699 50.667 -12.998 85.835 -18.998 105.502s-15.667 34.667 -29 45s-35 16.5 -65 18.5l11 49h257l76 -795c225.333 308 338 528.667 338 662c0 31.333 -6.66699 52.666 -20 63.999s-36 18 -68 20l10 49h258l27 -50
c-35.333 -92.667 -80.5 -188.667 -135.5 -288s-122.333 -208 -202 -326s-168.167 -240.667 -265.5 -368c-74.667 -98 -137.334 -172 -188.001 -222c-39.333 -38 -75.5 -66.833 -108.5 -86.5s-65 -33.667 -96 -42s-63.833 -12.5 -98.5 -12.5c-18 0 -38.333 1.83301 -61 5.5
s-42 8.5 -58 14.5l43 187h78c0.666992 -22.667 6 -40.667 16 -54s24.667 -20 44 -20c21.333 0 39.666 2.16699 54.999 6.5s31.5 11.5 48.5 21.5s37.667 26 62 48s51.833 51.167 82.5 87.5s65 80.166 103 131.499z" />
    <glyph glyph-name="z" unicode="z" horiz-adv-x="921" 
d="M797 281l-61 -280.999h-724l-19 49l547 630c77.333 88.667 134 151.667 170 189l-6 7h-234c-34.667 0 -60 -2.33301 -76 -7s-32 -12.834 -48 -24.501s-33.167 -29 -51.5 -52s-38.833 -55.833 -61.5 -98.5h-89l59 263h711l19 -50l-718 -818l6 -7h226
c40 0 70.667 2.16699 92 6.5s40 12.5 56 24.5s32.5 30.167 49.5 54.5s38.167 62.5 63.5 114.5h89z" />
    <glyph glyph-name="braceleft" unicode="{" horiz-adv-x="768" 
d="M495 -432c-111.333 0 -193.499 21.002 -246.499 63.002s-79.5 106.667 -79.5 194c0 39.333 6 87.333 18 144l59 273c8 37.333 12 69 12 95c0 47.333 -12.5 81.333 -37.5 102s-67.167 31 -126.5 31l17 82c70 0 125.667 20.333 167 61s72 105 92 193l61 277
c12.667 56 28 103.333 46 142s40 71 66 97s56 46.833 90 62.5s73 27.167 117 34.5s93.667 11 149 11h31l-18 -81c-69.333 0 -122.333 -8.33301 -159 -25s-66.834 -45.334 -90.501 -86.001s-44.167 -100.667 -61.5 -180l-45 -204c-14 -62 -31 -114 -51 -156
s-47.333 -78.333 -82 -109s-79.667 -56.334 -135 -77.001l-4 -18c42.667 -21.333 74.667 -49.666 96 -84.999s32 -81 32 -137c0 -44.667 -7 -99.334 -21 -164.001l-45 -206c-9.33301 -42.667 -14 -78.667 -14 -108c0 -39.333 8 -69.333 24 -90s38.667 -35 68 -43
s70 -12 122 -12l-17 -81h-34z" />
    <glyph glyph-name="bar" unicode="|" horiz-adv-x="646" 
d="M200 -430h-154l410 1861h154z" />
    <glyph glyph-name="braceright" unicode="}" horiz-adv-x="768" 
d="M283 1431c18 0 40.668 -1.00293 68.001 -3.00293c20.667 -2 41.5 -5.16699 62.5 -9.5s42.333 -11 64 -20s40.667 -20.5 57 -34.5s29.833 -29.833 40.5 -47.5s19 -38.5 25 -62.5s9 -50.667 9 -80c0 -39.333 -6 -87.333 -18 -144l-59 -273c-8 -37.333 -12 -69 -12 -95
c0 -47.333 12.333 -81.5 37 -102.5s67 -31.5 127 -31.5l-17 -82c-71.333 0 -127.5 -21 -168.5 -63s-70.833 -105.667 -89.5 -191l-61 -277c-20 -91.333 -49 -161.333 -87 -210s-87.333 -83.667 -148 -105s-138.334 -32 -233.001 -32h-32l18 81
c73.333 0 128.166 9.33301 164.499 28s65.666 48.334 87.999 89.001s41.833 98.667 58.5 174l45 204c14 63.333 31 115.833 51 157.5s47.333 77.667 82 108s79.667 55.833 135 76.5l4 18c-42 20.667 -73.833 48.834 -95.5 84.501s-32.5 81.5 -32.5 137.5
c0 44.667 7 99.334 21 164.001l45 206c9.33301 42.667 14 78.667 14 108c0 38 -7.66699 67.5 -23 88.5s-37.666 35.667 -66.999 44s-70.666 12.5 -123.999 12.5l17 81z" />
    <glyph glyph-name="asciitilde" unicode="~" horiz-adv-x="1082" 
d="M74 512l74.5 93c22.333 26.667 43 48.834 62 66.501s36.833 32.167 53.5 43.5s32.5 20.166 47.5 26.499s29.5 11 43.5 14s28.667 4.5 44 4.5c24 0 46 -3.5 66 -10.5s39.667 -17.667 59 -32s44 -37.166 74 -68.499c24.667 -26.667 44.834 -46.667 60.501 -60
s31.334 -23.5 47.001 -30.5s33.167 -10.5 52.5 -10.5c22 0 41.833 4.33301 59.5 13s37.167 23.834 58.5 45.501s53.666 61.167 96.999 118.5l85 -67c-56 -72.667 -100 -124.334 -132 -155.001s-63.333 -53.834 -94 -69.501s-63 -23.5 -97 -23.5
c-26 0 -49.667 3.66699 -71 11s-41.5 18.333 -60.5 33s-42.5 37 -70.5 67c-28.667 31.333 -50.834 53.333 -66.501 66s-30.667 21.667 -45 27s-30.166 8 -47.499 8c-22 0 -42.833 -5.33301 -62.5 -16s-39.834 -26.667 -60.501 -48s-51.667 -59.333 -93 -114z" />
    <glyph glyph-name="exclamdown" unicode="&#xa1;" horiz-adv-x="574" 
d="M244 724l51 232h190l-51 -232h-190zM-17 -409l270 949h99l-164 -949h-205z" />
    <glyph glyph-name="cent" unicode="&#xa2;" horiz-adv-x="896" 
d="M320 -156l39.9971 184.003c-84 7.33301 -147.5 39.666 -190.5 96.999s-64.5 136.666 -64.5 237.999c0 65.333 11.5 137.5 34.5 216.5s55.833 149.333 98.5 211s92.334 110.667 149.001 147s119.334 60.166 188.001 71.499l42 190h103l-40 -183
c81.333 -1.33301 157 -11.333 227 -30l-43 -199h-105c-4 52 -13.667 89.333 -29 112s-37.666 36 -66.999 40l-174 -795c40.667 4.66699 80 18.5 118 41.5s80.333 57.167 127 102.5l61 -61c-54 -59.333 -107.833 -105 -161.5 -137s-110.167 -51.667 -169.5 -59l-41 -187h-103
zM385.997 146.003l171 781.001c-54 -19.333 -101.833 -57.333 -143.5 -114s-76 -128.834 -103 -216.501s-40.5 -171.167 -40.5 -250.5c0 -115.333 38.667 -182 116 -200zM623.997 956.004z" />
    <glyph glyph-name="sterling" unicode="&#xa3;" horiz-adv-x="1025" 
d="M943 356l-124.003 -355.997h-826l10 49c45.333 40 83.833 79.5 115.5 118.5s60.334 83.667 86.001 134s45.167 106.5 58.5 168.5l41 189h-157l25 116h157l48 220c15.333 69.333 37.833 127.666 67.5 174.999s67 86.666 112 117.999s92.333 54.666 142 69.999
s107.834 23 174.501 23c38 0 80 -2.66699 126 -8s90.667 -12.666 134 -21.999l-46 -213h-96c-6 54 -22.667 93.833 -50 119.5s-66 38.5 -116 38.5c-48 0 -90.5 -13 -127.5 -39s-67.5 -62.833 -91.5 -110.5s-46.333 -119.5 -67 -215.5l-34 -156h391l-25 -116h-391l-14 -63
c-8 -35.333 -14 -60.333 -18 -75c-8.66699 -33.333 -18.667 -64 -30 -92s-24.5 -54 -39.5 -78s-35.667 -52.667 -62 -86s-54.5 -65 -84.5 -95l-2 -10h391c26 0 47.667 1.5 65 4.5s31.333 7.66699 42 14s22.834 17.666 36.501 33.999s26.5 35.5 38.5 57.5
s24.667 50.667 38 86h102z" />
    <glyph glyph-name="currency" unicode="&#xa4;" horiz-adv-x="1134" 
d="M910 462l122.999 -127l-94 -95l-127 127c-59.333 -46.667 -129.666 -70 -210.999 -70c-82.667 0 -154 23.333 -214 70l-126 -127l-94 95l123 127c-46.667 64.667 -70 135.667 -70 213c0 38 5.83301 74.667 17.5 110s29.167 70.333 52.5 105l-123 123l94 94l126 -123
c64 46 135.333 69 214 69c76.667 0 147 -23 211 -69l127 126l94 -97l-123 -123c23.333 -34.667 40.833 -69.667 52.5 -105s17.5 -72 17.5 -110c0 -77.333 -23.333 -148.333 -70 -213zM836.999 675c0 45.333 -10.002 86.5 -30.002 123.5s-48 65.833 -84 86.5
s-76.667 31 -122 31s-86.166 -10.5 -122.499 -31.5s-64.666 -49.833 -84.999 -86.5s-30.5 -77.667 -30.5 -123c0 -46 9.83301 -87.333 29.5 -124s47.667 -65.667 84 -87s77.833 -32 124.5 -32c44.667 0 85 10.5 121 31.5s64.167 50 84.5 87s30.5 78.5 30.5 124.5z" />
    <glyph glyph-name="yen" unicode="&#xa5;" horiz-adv-x="1227" 
d="M628 1365l-11 -48.9922c-28 -2.66699 -49.333 -10.834 -64 -24.501s-22 -34.834 -22 -63.501c0 -40.667 9.33301 -94 28 -160l108 -382l250 334c36.667 48.667 63.167 86.834 79.5 114.501s27.833 52.167 34.5 73.5c5.33301 16 8 31.333 8 46
c0 18.667 -6.33301 33 -19 43s-31 16.333 -55 19l11 49h370l-11 -49c-16 -3.33301 -29.833 -8.16602 -41.5 -14.499s-25 -16.5 -40 -30.5s-35.333 -36.5 -61 -67.5l-98.5 -124.5l-222 -288h273l-21 -96h-326l-93 -121l-18 -79h394l-21 -96h-394l-30 -140
c-2.66699 -12 -5.16699 -25.833 -7.5 -41.5s-4 -30.334 -5 -44.001s-1.5 -26.5 -1.5 -38.5c0 -20.667 3.33301 -36.834 10 -48.501s16.667 -20.167 30 -25.5s36.333 -9.33301 69 -12l-11 -49h-417l11 49c31.333 3.33301 55 11.166 71 23.499s30.167 33.666 42.5 63.999
s26.5 84.166 42.5 161.499l21 101h-394l21 96h394l17 79l-35 121h-333l21 96h284l-82 288c-22 77.333 -39.167 129.666 -51.5 156.999s-25.833 46.666 -40.5 57.999s-33.667 18.666 -57 21.999l9 49h384z" />
    <glyph glyph-name="brokenbar" unicode="&#xa6;" horiz-adv-x="646" 
d="M283 646l173 785h154l-173 -785h-154zM200 -430h-154l173 783h154z" />
    <glyph glyph-name="section" unicode="&#xa7;" horiz-adv-x="973" 
d="M97 -31c2 -66.667 19.332 -116.337 51.999 -149.004s84 -49 154 -49c68 0 121.333 18.5 160 55.5s58 86.167 58 147.5c0 33.333 -6 63 -18 89s-31.167 52.833 -57.5 80.5s-67.166 62.834 -122.499 105.501c-51.333 39.333 -92 75.333 -122 108s-52.333 66 -67 100
s-22 71.667 -22 113c0 69.333 24 132.666 72 189.999s122.333 112 223 164c-26 32.667 -45.333 65 -58 97s-19 65 -19 99c0 62 15 116.833 45 164.5s74.333 84.834 133 111.501s127.667 40 207 40c113.333 0 218.666 -21.667 315.999 -65l-47 -218h-94
c-2 64.667 -17 113.834 -45 147.501s-73.667 50.5 -137 50.5c-46.667 0 -86.667 -9.16699 -120 -27.5s-58 -42.166 -74 -71.499s-24 -61 -24 -95c0 -28.667 5.83301 -54.834 17.5 -78.501s30.834 -49.167 57.501 -76.5s68 -62.666 124 -105.999
c56 -44 98.5 -81.833 127.5 -113.5s50.5 -64 64.5 -97s21 -70.167 21 -111.5c0 -68 -24.5 -131.5 -73.5 -190.5s-122.833 -113.167 -221.5 -162.5c26.667 -30.667 46.667 -62.167 60 -94.5s20 -71.166 20 -116.499c0 -67.333 -16.833 -125.5 -50.5 -174.5
s-80.5 -86.167 -140.5 -111.5s-128 -38 -204 -38c-60 0 -119 5.83301 -177 17.5s-111 27.5 -159 47.5l47 218h94zM463.999 864.997c-126 -68 -189 -154.667 -189 -260c0 -40 13 -77.5 39 -112.5s70.667 -77.5 134 -127.5c50.667 -40 84.667 -68.333 102 -85
c61.333 35.333 108.166 73.833 140.499 115.5s48.5 88.834 48.5 141.501c0 40.667 -14.167 80 -42.5 118s-74.5 81.667 -138.5 131c-35.333 27.333 -66.666 53.666 -93.999 78.999z" />
    <glyph glyph-name="dieresis" unicode="&#xa8;" horiz-adv-x="554" 
d="M705 1339l-38 -176h-165l38 176h165zM383 1339l-38 -176h-165l38 176h165z" />
    <glyph glyph-name="copyright" unicode="&#xa9;" horiz-adv-x="1742" 
d="M1656 622c0 -107.333 -18.6689 -207.504 -56.002 -300.504s-90.833 -174.167 -160.5 -243.5s-151.334 -122.666 -245.001 -159.999s-193.5 -56 -299.5 -56c-104.667 0 -203.167 18 -295.5 54s-173.666 88.167 -243.999 156.5s-124.833 149.833 -163.5 244.5
s-58 196.334 -58 305.001s19.333 210.334 58 305.001s93.334 176.167 164.001 244.5s152 120.5 244 156.5s190.333 54 295 54c106 0 205.833 -18.667 299.5 -56s175.334 -90.666 245.001 -159.999s123.167 -150.5 160.5 -243.5s56 -193.167 56 -300.5zM1531 621.996
c0 125.333 -26.498 238.501 -79.498 339.501s-128.333 179.833 -226 236.5s-208.167 85 -331.5 85c-122.667 0 -232.834 -28.333 -330.501 -85s-172.834 -135.5 -225.501 -236.5s-79 -214.167 -79 -339.5c0 -127.333 26.833 -241.5 80.5 -342.5s129 -179.5 226 -235.5
s206.5 -84 328.5 -84c122.667 0 232.667 28.167 330 84.5s172.833 135.166 226.5 236.499s80.5 215 80.5 341zM1193 1021l-0.000976562 -188h-85c-15.333 43.333 -31.833 77 -49.5 101s-38.167 41.167 -61.5 51.5s-55.333 15.5 -96 15.5c-46 0 -86.167 -13.667 -120.5 -41
s-61 -68.5 -80 -123.5s-28.5 -121.5 -28.5 -199.5c0 -53.333 4.16699 -103.5 12.5 -150.5s21.833 -88.333 40.5 -124s42.834 -63.667 72.501 -84s66.167 -30.5 109.5 -30.5c53.333 0 95.333 13.5 126 40.5s56 72.5 76 136.5h85v-194c-50.667 -22 -99.5 -37.167 -146.5 -45.5
s-101.5 -12.5 -163.5 -12.5c-126 0 -221.333 37.5 -286 112.5s-97 185.833 -97 332.5c0 91.333 16.333 171.5 49 240.5s80.667 122.5 144 160.5s138.666 57 225.999 57c56 0 105.333 -4.33301 148 -13s84.334 -22.667 125.001 -42z" />
    <glyph glyph-name="ordfeminine" unicode="&#xaa;" horiz-adv-x="811" 
d="M615 825l-11 2.00098c-29.333 -34.667 -65.333 -62.334 -108 -83.001s-84.334 -31 -125.001 -31c-54 0 -96.167 13.333 -126.5 40s-45.5 62.334 -45.5 107.001c0 70.667 38.833 125.667 116.5 165s189.834 60 336.501 62l8 41c5.33301 27.333 8 53.666 8 78.999
c0 72 -35.667 108 -107 108c-34.667 0 -65 -9.16699 -91 -27.5s-45.333 -46.833 -58 -85.5h-109l20 96c45.333 22 78.5 37.167 99.5 45.5s42.333 15.333 64 21s42.5 9.83398 62.5 12.501s41 4 63 4c60 0 106.5 -13.833 139.5 -41.5s49.5 -65.5 49.5 -113.5
c0 -29.333 -4 -67 -12 -113l-38 -184c-7.33301 -34.667 -12 -58.667 -14 -72s-3 -24.666 -3 -33.999c0 -22.667 5 -37.834 15 -45.501s26.333 -11.834 49 -12.501l-9 -41h-202zM638 1023c-98.667 0 -173.833 -12.834 -225.5 -38.501s-77.5 -62.834 -77.5 -111.501
c0 -23.333 8 -42 24 -56s37 -21 63 -21c35.333 0 68 8.83301 98 26.5s53.667 39.334 71 65.001s29 51.834 35 78.501zM726.001 490h-600l19 92h600z" />
    <glyph glyph-name="guillemotleft" unicode="&#xab;" horiz-adv-x="960" 
d="M414 98l-70 -35l-246 402l16 74l415 383l55 -55l-318 -384zM783 98l-70 -35l-246 402l16 74l415 383l55 -55l-318 -384z" />
    <glyph glyph-name="logicalnot" unicode="&#xac;" horiz-adv-x="1082" 
d="M747 294l97 433h-676l29 135h824l-125 -568h-149z" />
    <glyph glyph-name="registered" unicode="&#xae;" horiz-adv-x="1742" 
d="M1656 622c0 -107.333 -18.6689 -207.504 -56.002 -300.504s-90.833 -174.167 -160.5 -243.5s-151.334 -122.666 -245.001 -159.999s-193.5 -56 -299.5 -56c-104.667 0 -203.167 18 -295.5 54s-173.666 88.167 -243.999 156.5s-124.833 149.833 -163.5 244.5
s-58 196.334 -58 305.001s19.333 210.334 58 305.001s93.334 176.167 164.001 244.5s152 120.5 244 156.5s190.333 54 295 54c106 0 205.833 -18.667 299.5 -56s175.334 -90.666 245.001 -159.999s123.167 -150.5 160.5 -243.5s56 -193.167 56 -300.5zM1531 621.996
c0 125.333 -26.498 238.501 -79.498 339.501s-128.333 179.833 -226 236.5s-208.167 85 -331.5 85c-122.667 0 -232.834 -28.333 -330.501 -85s-172.834 -135.5 -225.501 -236.5s-79 -214.167 -79 -339.5c0 -127.333 26.833 -241.5 80.5 -342.5s129 -179.5 226 -235.5
s206.5 -84 328.5 -84c122.667 0 232.667 28.167 330 84.5s172.833 135.166 226.5 236.499s80.5 215 80.5 341zM850 186.997l-335.999 -0.00195312v44c25.333 7.33301 43.833 16.666 55.5 27.999s20 26.333 25 45s7.5 43.667 7.5 75v494c0 29.333 -2.33301 53.333 -7 72
s-12.334 33.667 -23.001 45s-30 21.333 -58 30v44h407c73.333 0 133.166 -8.33301 179.499 -25s81.666 -41.667 105.999 -75s36.5 -78.333 36.5 -135c0 -53.333 -16.833 -98.833 -50.5 -136.5s-88.5 -69.167 -164.5 -94.5l1 -11c28 -13.333 51.5 -30.5 70.5 -51.5
s37.5 -50.167 55.5 -87.5l49 -103c10 -21.333 19.833 -39 29.5 -53s19 -25.167 28 -33.5s18 -14.166 27 -17.499s21.5 -6.66602 37.5 -9.99902v-44h-214c-27.333 46.667 -51 94 -71 142l-47 110c-12.667 30 -25.167 53.5 -37.5 70.5s-25.166 29.667 -38.499 38
s-27.833 13.5 -43.5 15.5s-33.167 3 -52.5 3h-72v-160c0 -39.333 2.33301 -70.333 7 -93s13.334 -40.167 26.001 -52.5s35 -22.166 67 -29.499v-44zM750.001 983.995l-0.000976562 -343.002h104c79.333 0 137.5 14.833 174.5 44.5s55.5 73.834 55.5 132.501
c0 42.667 -8.83301 76.334 -26.5 101.001s-42.167 42.167 -73.5 52.5s-69.666 15.5 -114.999 15.5h-30c-25.333 0 -55 -1 -89 -3z" />
    <glyph glyph-name="macron" unicode="&#xaf;" horiz-adv-x="554" 
d="M682 1188h-501l26 125h501z" />
    <glyph glyph-name="macron" unicode="&#x2c9;" horiz-adv-x="554" 
d="M682 1188h-501l26 125h501z" />
    <glyph glyph-name="degree" unicode="&#xb0;" horiz-adv-x="769" 
d="M511 783c-58 0 -109.167 12.998 -153.5 38.998s-78.5 61.833 -102.5 107.5s-36 97.167 -36 154.5c0 56.667 12.833 107.834 38.5 153.501s61.5 81 107.5 106s98 37.5 156 37.5c57.333 0 108.5 -12.667 153.5 -38s80 -60.666 105 -105.999s37.5 -96.666 37.5 -153.999
c0 -56.667 -13.167 -107.834 -39.5 -153.501s-62.833 -81.5 -109.5 -107.5s-99 -39 -157 -39zM517 1282c-37.333 0 -70.668 -8.5 -100.001 -25.5s-52 -40.5 -68 -70.5s-24 -64.333 -24 -103s7.83301 -73.167 23.5 -103.5s38.334 -54 68.001 -71s63.167 -25.5 100.5 -25.5
c38 0 71.833 8.5 101.5 25.5s52.5 40.667 68.5 71s24 64.833 24 103.5s-8 73 -24 103s-38.833 53.5 -68.5 70.5s-63.5 25.5 -101.5 25.5z" />
    <glyph glyph-name="plusminus" unicode="&#xb1;" horiz-adv-x="1082" 
d="M652 648l-75 -341h-150l75 341h-341l30 135h340l81 369h150l-81 -369h344l-30 -135h-343zM33 28l30 135h818l-30 -135h-818z" />
    <glyph glyph-name="uni00B2" unicode="&#xb2;" 
d="M579 942c24 0 41.999 2.5 53.999 7.5s22.833 13.167 32.5 24.5s20.167 29 31.5 53h77l-51 -198h-561l10 46c55.333 90 148.333 188.667 279 296l90 75c42.667 36 74.667 65.333 96 88s37.666 43.334 48.999 62.001s19.333 36.667 24 54s7 35.666 7 54.999
c0 30.667 -10.833 54.834 -32.5 72.501s-52.5 26.5 -92.5 26.5c-40.667 0 -75 -10.333 -103 -31s-50.667 -49.334 -68 -86.001h-103l30 136c105.333 36.667 200.333 55 285 55c40 0 74.5 -4.83301 103.5 -14.5s52.833 -22.334 71.5 -38.001s32.334 -33.167 41.001 -52.5
s13 -38.666 13 -57.999c0 -40.667 -7.33301 -76 -22 -106s-41.667 -63.833 -81 -101.5s-105 -92.167 -197 -163.5c-99.333 -78.667 -173.666 -146 -222.999 -202h240z" />
    <glyph glyph-name="uni00B3" unicode="&#xb3;" 
d="M334 1486l27.0029 135.997c49.333 18 96.666 31.667 141.999 41s91.666 14 138.999 14c41.333 0 79 -6 113 -18s61.5 -31 82.5 -57s31.5 -58.667 31.5 -98c0 -32 -7.5 -62.333 -22.5 -91s-39.667 -55 -74 -79s-77.5 -46 -129.5 -66v-10c52 -14 91.333 -36.667 118 -68
s40 -68.666 40 -111.999c0 -36 -7.5 -70.5 -22.5 -103.5s-37.667 -61.5 -68 -85.5s-67.5 -42.167 -111.5 -54.5s-93.667 -18.5 -149 -18.5c-42.667 0 -89.167 4.16699 -139.5 12.5s-92.5 18.5 -126.5 30.5l32 147h90c4 -39.333 18.167 -69 42.5 -89s61.166 -30 110.499 -30
c65.333 0 115.5 17.833 150.5 53.5s52.5 86.5 52.5 152.5c0 39.333 -15.5 69.5 -46.5 90.5s-77.167 31.5 -138.5 31.5h-81l15 74c52 2.66699 96.833 9.33398 134.5 20.001s68.5 23.834 92.5 39.501s42.5 32.5 55.5 50.5s21.833 35.333 26.5 52s7 34.667 7 54
c0 31.333 -10.167 55.833 -30.5 73.5s-49.833 26.5 -88.5 26.5c-42.667 0 -78 -9.83301 -106 -29.5s-51.333 -49.5 -70 -89.5h-98z" />
    <glyph glyph-name="acute" unicode="&#xb4;" horiz-adv-x="554" 
d="M714 1442l-11 -50l-374 -322l-62 60l263 312h184z" />
    <glyph glyph-name="mu" unicode="&#xb5;" horiz-adv-x="1128" 
d="M699 256c-40 -58.667 -77.5029 -106.834 -112.503 -144.501s-70.667 -66.834 -107 -87.501s-74.833 -31 -115.5 -31c-28 0 -53.5 4.5 -76.5 13.5s-46.833 26.167 -71.5 51.5c-8.66699 -45.333 -15.334 -97.166 -20.001 -155.499s-7 -110.5 -7 -156.5
c0 -18.667 0.333008 -35.667 1 -51l-10 -55l-79 -41h-112l301 1357h168l-123 -545c-10 -44 -17.833 -82.167 -23.5 -114.5s-8.5 -61.833 -8.5 -88.5c0 -34.667 9.16699 -61 27.5 -79s44.5 -27 78.5 -27c14 0 28.833 2.83301 44.5 8.5s33.834 15.834 54.501 30.501
s42.834 35 66.501 61s46.667 56.167 69 90.5s41.333 69.166 57 104.499s26.5 66.666 32.5 93.999l99 465h173l-142 -633c-3.33301 -15.333 -8 -38.666 -14 -69.999s-9 -57.333 -9 -78c0 -26.667 4.33301 -46 13 -58s22.334 -18 41.001 -18c15.333 0 33.833 6 55.5 18
s45.834 33 72.501 63l56 -56c-37.333 -36.667 -70.5 -65 -99.5 -85s-55.5 -34.167 -79.5 -42.5s-50 -12.5 -78 -12.5c-43.333 0 -77 12.833 -101 38.5s-36 61.5 -36 107.5c0 18 2.33301 37.833 7 59.5s11 41.834 19 60.501z" />
    <glyph glyph-name="paragraph" unicode="&#xb6;" horiz-adv-x="1166" 
d="M1076 1261l-371.001 -1691h-125l371 1691h-184l-371 -1691h-125l246 1117c-70 8 -129.667 26.5 -179 55.5s-86.166 66.167 -110.499 111.5s-36.5 96.333 -36.5 153c0 59.333 10 111.333 30 156s49.667 82.334 89 113.001s85.333 53.167 138 67.5s120.667 21.5 204 21.5
h634l-23 -104h-187z" />
    <glyph glyph-name="periodcentered" unicode="&#xb7;" horiz-adv-x="494" 
d="M423 801l-54 -244h-210l54 244h210z" />
    <glyph glyph-name="cedilla" unicode="&#xb8;" horiz-adv-x="554" 
d="M401 27l-170 -113.999c2.66699 -9.33301 4 -25.666 4 -48.999c0 -83.333 -31.5 -150.833 -94.5 -202.5s-152.167 -82.167 -267.5 -91.5v76c64 5.33301 113.5 24.666 148.5 57.999s53.167 81.666 54.5 144.999l7 34l291 183z" />
    <glyph glyph-name="uni00B9" unicode="&#xb9;" 
d="M613 1020c-6 -28 -8.99609 -50.001 -8.99609 -66.001c0 -15.333 4.66699 -27 14 -35s25.833 -14.167 49.5 -18.5s59.5 -6.83301 107.5 -7.5l-14 -64h-508l13 64c42.667 1.33301 75.667 3.83301 99 7.5s41.666 9 54.999 16s24.166 16.333 32.499 28
s15.166 30.167 20.499 55.5l99 449c2 8.66699 3.5 16.167 4.5 22.5s1.5 10.833 1.5 13.5c0 10 -2.66699 16.667 -8 20s-12.666 5 -21.999 5c-12.667 0 -32.334 -5.66699 -59.001 -17s-63.334 -29 -110.001 -53l-32 70l354 161h57c-14 -53.333 -28 -111.666 -42 -174.999z
" />
    <glyph glyph-name="ordmasculine" unicode="&#xba;" horiz-adv-x="832" 
d="M468 713c-74 0 -131.831 19.834 -173.498 59.501s-62.5 95.834 -62.5 168.501c0 43.333 7.5 93.333 22.5 150s39.167 107.167 72.5 151.5s74.666 78.5 123.999 102.5s104 36 164 36c77.333 0 136.166 -19.833 176.499 -59.5s60.5 -95.834 60.5 -168.501
c0 -28.667 -2.66699 -57.334 -8 -86.001s-13.333 -60 -24 -94s-26 -67.333 -46 -100s-44.667 -61.167 -74 -85.5s-63.333 -42.833 -102 -55.5s-82 -19 -130 -19zM370.002 920.001c0 -48 10.166 -82.8311 30.499 -104.498s51.166 -32.5 92.499 -32.5
c18.667 0 35.834 3 51.501 9s31.834 16.333 48.501 31s32 33.667 46 57s26.5 51.666 37.5 84.999s20 69.166 27 107.499s10.5 71.5 10.5 99.5c0 46 -9.16699 80.667 -27.5 104s-47.833 35 -88.5 35c-48.667 0 -89.5 -18.5 -122.5 -55.5s-58.833 -90.667 -77.5 -161
s-28 -128.5 -28 -174.5zM715.001 490.003h-589l19 92h589z" />
    <glyph glyph-name="guillemotright" unicode="&#xbb;" horiz-adv-x="960" 
d="M552 882l70 35l246 -402l-16 -74l-415 -383l-55 55l318 384zM183 882l70 35l246 -402l-16 -74l-415 -383l-55 55l318 384z" />
    <glyph glyph-name="onequarter" unicode="&#xbc;" horiz-adv-x="1757" 
d="M548 724c-6 -28 -8.99609 -50.001 -8.99609 -66.001c0 -15.333 4.66699 -27 14 -35s25.833 -14.167 49.5 -18.5s59.5 -6.83301 107.5 -7.5l-14 -64h-508l13 64c42.667 1.33301 75.667 3.83301 99 7.5s41.666 9 54.999 16s24.166 16.333 32.499 28
s15.166 30.167 20.499 55.5l99 449c2 8.66699 3.5 16.167 4.5 22.5s1.5 10.833 1.5 13.5c0 10 -2.66699 16.667 -8 20s-12.666 5 -21.999 5c-12.667 0 -32.334 -5.66699 -59.001 -17s-63.334 -29 -110.001 -53l-32 70l354 161h57c-14 -53.333 -28 -111.666 -42 -174.999z
M1570 1365l-1140 -1461h-151l1143 1461h148zM1204 -51.001c22.667 2 39.499 7.16895 50.499 15.502s20 21.5 27 39.5s14.167 45 21.5 81l14 63h-371l13 67l497 528h122l-116 -519h18c21.333 0 38 1.66699 50 5s22.333 9.66602 31 18.999s17 24.666 25 45.999h75l-42 -146
h-173l-15 -72c-4 -18 -6.83301 -33 -8.5 -45s-2.5 -23.667 -2.5 -35c0 -15.333 5.83301 -26.5 17.5 -33.5s29.834 -11.5 54.501 -13.5l-9 -45h-289zM1091 231.001v-7h243l32 147c15.333 72 33 142.667 53 212h-10z" />
    <glyph glyph-name="onehalf" unicode="&#xbd;" horiz-adv-x="1806" 
d="M548 724c-6 -28 -8.99609 -50.001 -8.99609 -66.001c0 -15.333 4.66699 -27 14 -35s25.833 -14.167 49.5 -18.5s59.5 -6.83301 107.5 -7.5l-14 -64h-508l13 64c42.667 1.33301 75.667 3.83301 99 7.5s41.666 9 54.999 16s24.166 16.333 32.499 28
s15.166 30.167 20.499 55.5l99 449c2 8.66699 3.5 16.167 4.5 22.5s1.5 10.833 1.5 13.5c0 10 -2.66699 16.667 -8 20s-12.666 5 -21.999 5c-12.667 0 -32.334 -5.66699 -59.001 -17s-63.334 -29 -110.001 -53l-32 70l354 161h57c-14 -53.333 -28 -111.666 -42 -174.999z
M1570 1365l-1140 -1461h-151l1143 1461h148zM1373 16.999c24 0 41.999 2.5 53.999 7.5s22.833 13.167 32.5 24.5s20.167 29 31.5 53h77l-51 -198h-561l10 46c55.333 90 148.333 188.667 279 296l90 75c42.667 36 74.667 65.333 96 88s37.666 43.334 48.999 62.001
s19.333 36.667 24 54s7 35.666 7 54.999c0 30.667 -10.833 54.834 -32.5 72.501s-52.5 26.5 -92.5 26.5c-40.667 0 -75 -10.333 -103 -31s-50.667 -49.334 -68 -86.001h-103l30 136c105.333 36.667 200.333 55 285 55c40 0 74.5 -4.83301 103.5 -14.5
s52.833 -22.334 71.5 -38.001s32.334 -33.167 41.001 -52.5s13 -38.666 13 -57.999c0 -40.667 -7.33301 -76 -22 -106s-41.667 -63.833 -81 -101.5s-105 -92.167 -197 -163.5c-99.333 -78.667 -173.666 -146 -222.999 -202h240z" />
    <glyph glyph-name="threequarters" unicode="&#xbe;" horiz-adv-x="1757" 
d="M269 1190l27.0029 135.997c49.333 18 96.666 31.667 141.999 41s91.666 14 138.999 14c41.333 0 79 -6 113 -18s61.5 -31 82.5 -57s31.5 -58.667 31.5 -98c0 -32 -7.5 -62.333 -22.5 -91s-39.667 -55 -74 -79s-77.5 -46 -129.5 -66v-10c52 -14 91.333 -36.667 118 -68
s40 -68.666 40 -111.999c0 -36 -7.5 -70.5 -22.5 -103.5s-37.667 -61.5 -68 -85.5s-67.5 -42.167 -111.5 -54.5s-93.667 -18.5 -149 -18.5c-42.667 0 -89.167 4.16699 -139.5 12.5s-92.5 18.5 -126.5 30.5l32 147h90c4 -39.333 18.167 -69 42.5 -89s61.166 -30 110.499 -30
c65.333 0 115.5 17.833 150.5 53.5s52.5 86.5 52.5 152.5c0 39.333 -15.5 69.5 -46.5 90.5s-77.167 31.5 -138.5 31.5h-81l15 74c52 2.66699 96.833 9.33398 134.5 20.001s68.5 23.834 92.5 39.501s42.5 32.5 55.5 50.5s21.833 35.333 26.5 52s7 34.667 7 54
c0 31.333 -10.167 55.833 -30.5 73.5s-49.833 26.5 -88.5 26.5c-42.667 0 -78 -9.83301 -106 -29.5s-51.333 -49.5 -70 -89.5h-98zM1570 1365l-1140 -1461h-151l1143 1461h148zM1204 -51.0029c22.667 2 39.499 7.16895 50.499 15.502s20 21.5 27 39.5s14.167 45 21.5 81
l14 63h-371l13 67l497 528h122l-116 -519h18c21.333 0 38 1.66699 50 5s22.333 9.66602 31 18.999s17 24.666 25 45.999h75l-42 -146h-173l-15 -72c-4 -18 -6.83301 -33 -8.5 -45s-2.5 -23.667 -2.5 -35c0 -15.333 5.83301 -26.5 17.5 -33.5s29.834 -11.5 54.501 -13.5
l-9 -45h-289zM1091 230.999v-7h243l32 147c15.333 72 33 142.667 53 212h-10z" />
    <glyph glyph-name="questiondown" unicode="&#xbf;" horiz-adv-x="834" 
d="M416 724l51 232h190l-51 -232h-190zM546 540l-7.00098 -34.001c-6 -30 -15.167 -57.5 -27.5 -82.5s-31.333 -53.667 -57 -86s-62.5 -72.833 -110.5 -121.5l-89 -96.5c-27.333 -31 -50.833 -62.667 -70.5 -95s-34.834 -66.166 -45.501 -101.499s-16 -74 -16 -116
c0 -48 12.667 -85.333 38 -112s59.666 -40 102.999 -40c49.333 0 92 15.833 128 47.5s63 78.5 81 140.5h129l-35 -164c-84.667 -40.667 -151.667 -68.167 -201 -82.5s-97.333 -21.5 -144 -21.5c-64 0 -118.333 10.667 -163 32s-77.5 49.666 -98.5 84.999
s-31.5 74.666 -31.5 117.999c0 28 3.33301 54.667 10 80s16.834 50.333 30.501 75s31.334 50.167 53.001 76.5s46.334 53.5 74.001 81.5l134.5 131c34 32 61 59.167 81 81.5s35.333 42.333 46 60s19 34.834 25 51.501s12.333 39.334 19 68.001l5 25h139z" />
    <glyph glyph-name="Agrave" unicode="&#xc0;" horiz-adv-x="1205" 
d="M678 0l11 48.998c30 2.66699 53.5 11.334 70.5 26.001s29 35 36 61s10.5 60.333 10.5 103c0 26 -1 54.333 -3 85l-7 129h-440l-55 -98c-26 -46 -45 -85.5 -57 -118.5s-18 -62.167 -18 -87.5c0 -56 33.667 -89.333 101 -100l-11 -49h-409l11 49
c20.667 2.66699 40.167 10.834 58.5 24.501s37.833 34.334 58.5 62.001s49.667 73.5 87 137.5l641 1108h151l72 -1115c3.33301 -52.667 9.33301 -93.834 18 -123.501s20.5 -51.667 35.5 -66s36.833 -23.5 65.5 -27.5l-11 -49h-416zM401 539.998h391l-17 322
c-2 44 -3.66699 99 -5 165s-2 113.667 -2 143h-11zM827 1782l192 -257l-58 -59l-326 266l11 50h181z" />
    <glyph glyph-name="Aacute" unicode="&#xc1;" horiz-adv-x="1205" 
d="M678 0l11 48.998c30 2.66699 53.5 11.334 70.5 26.001s29 35 36 61s10.5 60.333 10.5 103c0 26 -1 54.333 -3 85l-7 129h-440l-55 -98c-26 -46 -45 -85.5 -57 -118.5s-18 -62.167 -18 -87.5c0 -56 33.667 -89.333 101 -100l-11 -49h-409l11 49
c20.667 2.66699 40.167 10.834 58.5 24.501s37.833 34.334 58.5 62.001s49.667 73.5 87 137.5l641 1108h151l72 -1115c3.33301 -52.667 9.33301 -93.834 18 -123.501s20.5 -51.667 35.5 -66s36.833 -23.5 65.5 -27.5l-11 -49h-416zM401 539.998h391l-17 322
c-2 44 -3.66699 99 -5 165s-2 113.667 -2 143h-11zM1200 1782l-11 -50l-425 -268l-50 71l268 247h218z" />
    <glyph glyph-name="Acircumflex" unicode="&#xc2;" horiz-adv-x="1205" 
d="M678 0l11 48.998c30 2.66699 53.5 11.334 70.5 26.001s29 35 36 61s10.5 60.333 10.5 103c0 26 -1 54.333 -3 85l-7 129h-440l-55 -98c-26 -46 -45 -85.5 -57 -118.5s-18 -62.167 -18 -87.5c0 -56 33.667 -89.333 101 -100l-11 -49h-409l11 49
c20.667 2.66699 40.167 10.834 58.5 24.501s37.833 34.334 58.5 62.001s49.667 73.5 87 137.5l641 1108h151l72 -1115c3.33301 -52.667 9.33301 -93.834 18 -123.501s20.5 -51.667 35.5 -66s36.833 -23.5 65.5 -27.5l-11 -49h-416zM401 539.998h391l-17 322
c-2 44 -3.66699 99 -5 165s-2 113.667 -2 143h-11zM985 1780l161 -261l-66 -50l-180 182h-10l-263 -183l-52 62l274 250h136z" />
    <glyph glyph-name="Atilde" unicode="&#xc3;" horiz-adv-x="1205" 
d="M678 0l11 48.998c30 2.66699 53.5 11.334 70.5 26.001s29 35 36 61s10.5 60.333 10.5 103c0 26 -1 54.333 -3 85l-7 129h-440l-55 -98c-26 -46 -45 -85.5 -57 -118.5s-18 -62.167 -18 -87.5c0 -56 33.667 -89.333 101 -100l-11 -49h-409l11 49
c20.667 2.66699 40.167 10.834 58.5 24.501s37.833 34.334 58.5 62.001s49.667 73.5 87 137.5l641 1108h151l72 -1115c3.33301 -52.667 9.33301 -93.834 18 -123.501s20.5 -51.667 35.5 -66s36.833 -23.5 65.5 -27.5l-11 -49h-416zM401 539.998h391l-17 322
c-2 44 -3.66699 99 -5 165s-2 113.667 -2 143h-11zM1145 1720l69 -48.001c-33.333 -50 -62.833 -88.667 -88.5 -116s-49.167 -46.333 -70.5 -57s-45 -16 -71 -16c-15.333 0 -29.333 2 -42 6s-24.5 9.33301 -35.5 16s-27.5 19.334 -49.5 38.001c-20 16 -34.333 27 -43 33
s-17 10.5 -25 13.5s-16.333 4.5 -25 4.5c-16.667 0 -31.667 -3.16699 -45 -9.5s-28 -17.833 -44 -34.5s-34 -39 -54 -67l-70 47c40.667 58 71.667 98.667 93 122s42.833 40.5 64.5 51.5s47.5 16.5 77.5 16.5c10.667 0 20.5 -1.16699 29.5 -3.5s17.833 -5.5 26.5 -9.5
s16.334 -8.33301 23.001 -13s19.667 -14.667 39 -30c27.333 -22.667 47.5 -37.5 60.5 -44.5s26.167 -10.5 39.5 -10.5c15.333 0 29.666 3.33301 42.999 10s28 18 44 34s34 38.333 54 67z" />
    <glyph glyph-name="Adieresis" unicode="&#xc4;" horiz-adv-x="1205" 
d="M678 0l11 48.998c30 2.66699 53.5 11.334 70.5 26.001s29 35 36 61s10.5 60.333 10.5 103c0 26 -1 54.333 -3 85l-7 129h-440l-55 -98c-26 -46 -45 -85.5 -57 -118.5s-18 -62.167 -18 -87.5c0 -56 33.667 -89.333 101 -100l-11 -49h-409l11 49
c20.667 2.66699 40.167 10.834 58.5 24.501s37.833 34.334 58.5 62.001s49.667 73.5 87 137.5l641 1108h151l72 -1115c3.33301 -52.667 9.33301 -93.834 18 -123.501s20.5 -51.667 35.5 -66s36.833 -23.5 65.5 -27.5l-11 -49h-416zM401 539.998h391l-17 322
c-2 44 -3.66699 99 -5 165s-2 113.667 -2 143h-11zM1160 1691l-38 -176h-165l38 176h165zM810 1691l-38 -176h-165l38 176h165z" />
    <glyph glyph-name="Aring" unicode="&#xc5;" horiz-adv-x="1205" 
d="M678 0l11 48.998c30 2.66699 53.5 11.334 70.5 26.001s29 35 36 61s10.5 60.333 10.5 103c0 26 -1 54.333 -3 85l-7 129h-440l-55 -98c-26 -46 -45 -85.5 -57 -118.5s-18 -62.167 -18 -87.5c0 -56 33.667 -89.333 101 -100l-11 -49h-409l11 49
c20.667 2.66699 40.167 10.834 58.5 24.501s37.833 34.334 58.5 62.001s49.667 73.5 87 137.5l641 1108h151l72 -1115c3.33301 -52.667 9.33301 -93.834 18 -123.501s20.5 -51.667 35.5 -66s36.833 -23.5 65.5 -27.5l-11 -49h-416zM401 539.998h391l-17 322
c-2 44 -3.66699 99 -5 165s-2 113.667 -2 143h-11zM844 1424c-57.333 0 -101.5 12.833 -132.5 38.5s-46.5 62.167 -46.5 109.5c0 30.667 5.5 62 16.5 94s28.833 60.167 53.5 84.5s53.834 42.833 87.501 55.5s69.5 19 107.5 19c60 0 105.167 -12.833 135.5 -38.5
s45.5 -62.5 45.5 -110.5c0 -44 -10.333 -86 -31 -126s-51.334 -71 -92.001 -93s-88.667 -33 -144 -33zM766 1578c0 -28 7.16699 -50.3301 21.5 -66.9971s36.833 -25 67.5 -25c32 0 60 9.5 84 28.5s41.833 43.167 53.5 72.5s17.5 57.666 17.5 84.999
c0 29.333 -7.66699 51.833 -23 67.5s-37 23.5 -65 23.5c-28.667 0 -55 -8.33301 -79 -25s-42.833 -39.334 -56.5 -68.001s-20.5 -59.334 -20.5 -92.001z" />
    <glyph glyph-name="AE" unicode="&#xc6;" horiz-adv-x="1709" 
d="M1700 1058l-95.999 -0.00292969c-2 48 -5.66699 85.5 -11 112.5s-11.333 47 -18 60s-14.334 22.667 -23.001 29s-19.5 10.833 -32.5 13.5s-31.5 4 -55.5 4h-350l-81 -524h182c29.333 0 53.833 4 73.5 12s37.834 21.833 54.501 41.5s35.334 49.834 56.001 90.501h91
l-90 -384h-85c0 36.667 -1.33301 63.667 -4 81s-6.16699 30.166 -10.5 38.499s-9.83301 14.833 -16.5 19.5s-15.334 8 -26.001 10s-28.334 3 -53.001 3h-185l-89 -577h242c29.333 0 54.166 2.16699 74.499 6.5s38.833 11.833 55.5 22.5s32.667 24.5 48 41.5
s31.166 38.833 47.499 65.5s38.5 67.334 66.5 122.001h97l-88 -346h-833l11 49c28 4.66699 49.833 13 65.5 25s28.334 30.833 38.001 56.5s18.5 65.5 26.5 119.5l30 203h-404l-70 -98c-44 -61.333 -73.667 -106.666 -89 -135.999s-23 -56 -23 -80
c0 -22.667 8.33301 -42 25 -58s40.334 -26.667 71.001 -32l-10 -49h-414l11 49c26.667 3.33301 57.5 21.333 92.5 54s81.5 89.334 139.5 170.001l774 1092h854zM826.001 539.997l72.001 461l29 162c3.33301 18 6.66602 34 9.99902 48h-9l-465 -671h363z" />
    <glyph glyph-name="Ccedilla" unicode="&#xc7;" horiz-adv-x="1105" 
d="M1184 1330l-60.0029 -270.999h-96c-5.33301 82 -23.166 141.167 -53.499 177.5s-79.166 54.5 -146.499 54.5c-56 0 -108.667 -16.5 -158 -49.5s-96 -80.667 -140 -143s-82.333 -135.333 -115 -219s-57.667 -169 -75 -256s-26 -165.5 -26 -235.5
c0 -108.667 17.833 -188.5 53.5 -239.5s91.5 -76.5 167.5 -76.5c50 0 93.667 7.5 131 22.5s72.333 40.333 105 76s65 85.5 97 149.5h96l-61 -284c-89.333 -24 -175 -39.333 -257 -46l-114 -77c2.66699 -9.33301 4 -25.666 4 -48.999c0 -83.333 -31.5 -150.833 -94.5 -202.5
s-152.167 -82.167 -267.5 -91.5v76c64 5.33301 113.5 24.666 148.5 57.999s53.167 81.666 54.5 144.999l7 34l161 101h-34c-82.667 0 -153 17.167 -211 51.5s-101.667 84 -131 149s-44 143.167 -44 234.5c0 48 3.33301 94.667 10 140c8 56 20.667 117 38 183
c22 82 49.667 156.667 83 224c36 71.333 77 134.333 123 189c43.333 50.667 90.333 93 141 127c46.667 31.333 97 55.666 151 72.999s111.333 26 172 26s116.834 -3.66699 168.501 -11s109.167 -20.666 172.5 -39.999z" />
    <glyph glyph-name="Egrave" unicode="&#xc8;" horiz-adv-x="1164" 
d="M1224 1365l-68.998 -307.001h-96c-2 48 -5.66699 85.5 -11 112.5s-11.333 47 -18 60s-14.334 22.667 -23.001 29s-19.5 10.833 -32.5 13.5s-31.5 4 -55.5 4h-326l-114 -524h191c29.333 0 53.833 4 73.5 12s37.834 21.833 54.501 41.5s35.334 49.834 56.001 90.501h91
l-90 -384h-85c0 36.667 -1.33301 63.667 -4 81s-6.16699 30.166 -10.5 38.499s-9.83301 14.833 -16.5 19.5s-15.334 8 -26.001 10s-28.334 3 -53.001 3h-200l-128 -577h296c29.333 0 54.166 2.16699 74.499 6.5s38.833 11.833 55.5 22.5s32.667 24.5 48 41.5
s31.166 38.833 47.499 65.5s38.5 67.334 66.5 122.001h97l-88 -346h-887l11 49c25.333 4 44.333 10.5 57 19.5s23.334 21.5 32.001 37.5s16.667 35.5 24 58.5s18.333 67.5 33 133.5l170 770c14.667 66.667 22 120.334 22 161.001c0 31.333 -8 53.166 -24 65.499
s-40.667 19.5 -74 21.5l11 49h920zM769.002 1782l192 -257l-58 -59l-326 266l11 50h181z" />
    <glyph glyph-name="Eacute" unicode="&#xc9;" horiz-adv-x="1164" 
d="M1224 1365l-68.998 -307.001h-96c-2 48 -5.66699 85.5 -11 112.5s-11.333 47 -18 60s-14.334 22.667 -23.001 29s-19.5 10.833 -32.5 13.5s-31.5 4 -55.5 4h-326l-114 -524h191c29.333 0 53.833 4 73.5 12s37.834 21.833 54.501 41.5s35.334 49.834 56.001 90.501h91
l-90 -384h-85c0 36.667 -1.33301 63.667 -4 81s-6.16699 30.166 -10.5 38.499s-9.83301 14.833 -16.5 19.5s-15.334 8 -26.001 10s-28.334 3 -53.001 3h-200l-128 -577h296c29.333 0 54.166 2.16699 74.499 6.5s38.833 11.833 55.5 22.5s32.667 24.5 48 41.5
s31.166 38.833 47.499 65.5s38.5 67.334 66.5 122.001h97l-88 -346h-887l11 49c25.333 4 44.333 10.5 57 19.5s23.334 21.5 32.001 37.5s16.667 35.5 24 58.5s18.333 67.5 33 133.5l170 770c14.667 66.667 22 120.334 22 161.001c0 31.333 -8 53.166 -24 65.499
s-40.667 19.5 -74 21.5l11 49h920zM1156 1782l-11 -50l-425 -268l-50 71l268 247h218z" />
    <glyph glyph-name="Ecircumflex" unicode="&#xca;" horiz-adv-x="1164" 
d="M1224 1365l-68.998 -307.001h-96c-2 48 -5.66699 85.5 -11 112.5s-11.333 47 -18 60s-14.334 22.667 -23.001 29s-19.5 10.833 -32.5 13.5s-31.5 4 -55.5 4h-326l-114 -524h191c29.333 0 53.833 4 73.5 12s37.834 21.833 54.501 41.5s35.334 49.834 56.001 90.501h91
l-90 -384h-85c0 36.667 -1.33301 63.667 -4 81s-6.16699 30.166 -10.5 38.499s-9.83301 14.833 -16.5 19.5s-15.334 8 -26.001 10s-28.334 3 -53.001 3h-200l-128 -577h296c29.333 0 54.166 2.16699 74.499 6.5s38.833 11.833 55.5 22.5s32.667 24.5 48 41.5
s31.166 38.833 47.499 65.5s38.5 67.334 66.5 122.001h97l-88 -346h-887l11 49c25.333 4 44.333 10.5 57 19.5s23.334 21.5 32.001 37.5s16.667 35.5 24 58.5s18.333 67.5 33 133.5l170 770c14.667 66.667 22 120.334 22 161.001c0 31.333 -8 53.166 -24 65.499
s-40.667 19.5 -74 21.5l11 49h920zM947.002 1780l161 -261l-66 -50l-180 182h-10l-263 -183l-52 62l274 250h136z" />
    <glyph glyph-name="Edieresis" unicode="&#xcb;" horiz-adv-x="1164" 
d="M1224 1365l-68.998 -307.001h-96c-2 48 -5.66699 85.5 -11 112.5s-11.333 47 -18 60s-14.334 22.667 -23.001 29s-19.5 10.833 -32.5 13.5s-31.5 4 -55.5 4h-326l-114 -524h191c29.333 0 53.833 4 73.5 12s37.834 21.833 54.501 41.5s35.334 49.834 56.001 90.501h91
l-90 -384h-85c0 36.667 -1.33301 63.667 -4 81s-6.16699 30.166 -10.5 38.499s-9.83301 14.833 -16.5 19.5s-15.334 8 -26.001 10s-28.334 3 -53.001 3h-200l-128 -577h296c29.333 0 54.166 2.16699 74.499 6.5s38.833 11.833 55.5 22.5s32.667 24.5 48 41.5
s31.166 38.833 47.499 65.5s38.5 67.334 66.5 122.001h97l-88 -346h-887l11 49c25.333 4 44.333 10.5 57 19.5s23.334 21.5 32.001 37.5s16.667 35.5 24 58.5s18.333 67.5 33 133.5l170 770c14.667 66.667 22 120.334 22 161.001c0 31.333 -8 53.166 -24 65.499
s-40.667 19.5 -74 21.5l11 49h920zM1116 1691l-38 -176h-165l38 176h165zM766.002 1691l-38 -176h-165l38 176h165z" />
    <glyph glyph-name="Igrave" unicode="&#xcc;" horiz-adv-x="656" 
d="M376 291c-8.66699 -39.333 -14.334 -70.5 -17.001 -93.5s-4 -43.833 -4 -62.5c0 -30 7.5 -51.167 22.5 -63.5s40.167 -19.833 75.5 -22.5l-11 -49h-400l11 49c25.333 4 44.333 10.5 57 19.5s23.334 21.5 32.001 37.5s16.667 35.5 24 58.5s18.333 67.5 33 133.5l170 770
c6.66699 30.667 12 60.167 16 88.5s6 52.5 6 72.5c0 31.333 -8 53.166 -24 65.499s-40.667 19.5 -74 21.5l11 49h400l-11 -49c-25.333 -5.33301 -43.5 -11.333 -54.5 -18s-21 -16.667 -30 -30s-18 -34.166 -27 -62.499s-20.5 -74.5 -34.5 -138.5zM505 1782l192 -257l-58 -59
l-326 266l11 50h181z" />
    <glyph glyph-name="Iacute" unicode="&#xcd;" horiz-adv-x="656" 
d="M376 291c-8.66699 -39.333 -14.334 -70.5 -17.001 -93.5s-4 -43.833 -4 -62.5c0 -30 7.5 -51.167 22.5 -63.5s40.167 -19.833 75.5 -22.5l-11 -49h-400l11 49c25.333 4 44.333 10.5 57 19.5s23.334 21.5 32.001 37.5s16.667 35.5 24 58.5s18.333 67.5 33 133.5l170 770
c6.66699 30.667 12 60.167 16 88.5s6 52.5 6 72.5c0 31.333 -8 53.166 -24 65.499s-40.667 19.5 -74 21.5l11 49h400l-11 -49c-25.333 -5.33301 -43.5 -11.333 -54.5 -18s-21 -16.667 -30 -30s-18 -34.166 -27 -62.499s-20.5 -74.5 -34.5 -138.5zM893 1782l-11 -50
l-425 -268l-50 71l268 247h218z" />
    <glyph glyph-name="Icircumflex" unicode="&#xce;" horiz-adv-x="656" 
d="M376 291c-8.66699 -39.333 -14.334 -70.5 -17.001 -93.5s-4 -43.833 -4 -62.5c0 -30 7.5 -51.167 22.5 -63.5s40.167 -19.833 75.5 -22.5l-11 -49h-400l11 49c25.333 4 44.333 10.5 57 19.5s23.334 21.5 32.001 37.5s16.667 35.5 24 58.5s18.333 67.5 33 133.5l170 770
c6.66699 30.667 12 60.167 16 88.5s6 52.5 6 72.5c0 31.333 -8 53.166 -24 65.499s-40.667 19.5 -74 21.5l11 49h400l-11 -49c-25.333 -5.33301 -43.5 -11.333 -54.5 -18s-21 -16.667 -30 -30s-18 -34.166 -27 -62.499s-20.5 -74.5 -34.5 -138.5zM683 1780l161 -261l-66 -50
l-180 182h-10l-263 -183l-52 62l274 250h136z" />
    <glyph glyph-name="Idieresis" unicode="&#xcf;" horiz-adv-x="656" 
d="M376 291c-8.66699 -39.333 -14.334 -70.5 -17.001 -93.5s-4 -43.833 -4 -62.5c0 -30 7.5 -51.167 22.5 -63.5s40.167 -19.833 75.5 -22.5l-11 -49h-400l11 49c25.333 4 44.333 10.5 57 19.5s23.334 21.5 32.001 37.5s16.667 35.5 24 58.5s18.333 67.5 33 133.5l170 770
c6.66699 30.667 12 60.167 16 88.5s6 52.5 6 72.5c0 31.333 -8 53.166 -24 65.499s-40.667 19.5 -74 21.5l11 49h400l-11 -49c-25.333 -5.33301 -43.5 -11.333 -54.5 -18s-21 -16.667 -30 -30s-18 -34.166 -27 -62.499s-20.5 -74.5 -34.5 -138.5zM852 1691l-38 -176h-165
l38 176h165zM502 1691l-38 -176h-165l38 176h165z" />
    <glyph glyph-name="Eth" unicode="&#xd0;" horiz-adv-x="1330" 
d="M122 761l185.001 0.000976562l68 307c6.66699 30 12 59.333 16 88s6 53 6 73c0 31.333 -8 53.166 -24 65.499s-40.667 19.5 -74 21.5l11 49h379c100.667 0 182.334 -7.66699 245.001 -23s121.167 -43 175.5 -83s95.166 -93.167 122.499 -159.5s41 -144.833 41 -235.5
c0 -90 -10.333 -176 -31 -258s-50.334 -157.5 -89.001 -226.5s-85 -129 -139 -180s-106.333 -90.167 -157 -117.5s-107.334 -47.833 -170.001 -61.5s-135.667 -20.5 -219 -20.5h-420l11 49c25.333 4 44.333 10.5 57 19.5s23.334 21.5 32.001 37.5s16.667 35.5 24 58.5
s18.333 67.5 33 133.5l82 371h-185zM484.001 761.001l304 0.000976562l-20 -92h-304l-126 -577c19.333 -2 56.333 -3 111 -3c67.333 0 128.5 7.33301 183.5 22s105.667 38.167 152 70.5s88.5 75.5 126.5 129.5s68.833 108.833 92.5 164.5s42.167 115.5 55.5 179.5
s20 131.667 20 203c0 139.333 -32.5 244.166 -97.5 314.499s-161.5 105.5 -289.5 105.5c-29.333 0 -61 -1 -95 -3z" />
    <glyph glyph-name="Ntilde" unicode="&#xd1;" horiz-adv-x="1374" 
d="M1428 1365l-11.001 -49.001c-25.333 -5.33301 -43.5 -11.333 -54.5 -18s-21 -16.667 -30 -30s-18 -34.166 -27 -62.499s-20.5 -74.5 -34.5 -138.5l-235 -1067h-136l-292 858c-35.333 102.667 -66.333 205 -93 307h-13c-4 -34 -15 -98.833 -33 -194.5
s-37 -189.167 -57 -280.5l-88 -399c-6 -28 -11 -55 -15 -81s-6 -51 -6 -75c0 -30 7.5 -51.167 22.5 -63.5s40.167 -19.833 75.5 -22.5l-11 -49h-350l11 49c25.333 4 44.333 10.5 57 19.5s23.334 21.5 32.001 37.5s16.667 35.5 24 58.5s18.333 67.5 33 133.5l170 770
c6.66699 28.667 12 56 16 82s6 52.333 6 79c0 31.333 -8 53.166 -24 65.499s-40.667 19.5 -74 21.5l11 49h319l264 -779c38 -112 67.333 -206.667 88 -284h11c5.33301 40.667 17.5 108.334 36.5 203.001s36.5 177.334 52.5 248.001l70 315c4.66699 22 9.5 48 14.5 78
s7.5 57.667 7.5 83c0 31.333 -8 53.166 -24 65.499s-40.667 19.5 -74 21.5l11 49h350zM1206 1720l69 -48.001c-33.333 -50 -62.833 -88.667 -88.5 -116s-49.167 -46.333 -70.5 -57s-45 -16 -71 -16c-15.333 0 -29.333 2 -42 6s-24.5 9.33301 -35.5 16
s-27.5 19.334 -49.5 38.001c-20 16 -34.333 27 -43 33s-17 10.5 -25 13.5s-16.333 4.5 -25 4.5c-16.667 0 -31.667 -3.16699 -45 -9.5s-28 -17.833 -44 -34.5s-34 -39 -54 -67l-70 47c40.667 58 71.667 98.667 93 122s42.833 40.5 64.5 51.5s47.5 16.5 77.5 16.5
c10.667 0 20.5 -1.16699 29.5 -3.5s17.833 -5.5 26.5 -9.5s16.334 -8.33301 23.001 -13s19.667 -14.667 39 -30c27.333 -22.667 47.5 -37.5 60.5 -44.5s26.167 -10.5 39.5 -10.5c15.333 0 29.666 3.33301 42.999 10s28 18 44 34s34 38.333 54 67z" />
    <glyph glyph-name="Ograve" unicode="&#xd2;" horiz-adv-x="1273" 
d="M837 1381c82.667 0 154.17 -15.999 214.503 -47.999s106.666 -80.667 138.999 -146s48.5 -146 48.5 -242c0 -103.333 -17.667 -219.5 -53 -348.5s-86.5 -240.667 -153.5 -335s-143.5 -164.333 -229.5 -210s-176 -68.5 -270 -68.5c-93.333 0 -170.5 18 -231.5 54
s-105.833 86.167 -134.5 150.5s-43 140.166 -43 227.499c0 84.667 12.167 179.5 36.5 284.5s57.666 199.833 99.999 284.5s92.666 156.667 150.999 216s123.5 104.333 195.5 135s148.667 46 230 46zM1049 987.001c0 204 -74.332 306.001 -222.999 306.001
c-36 0 -70 -6 -102 -18c-37.333 -14.667 -73 -36.334 -107 -65.001c-38 -32.667 -73.333 -74.334 -106 -125.001c-38.667 -60 -72.334 -128.333 -101.001 -205c-30 -80 -54 -166.333 -72 -259c-17.333 -88.667 -26 -169 -26 -241c0 -104 18.833 -181.5 56.5 -232.5
s93.834 -76.5 168.501 -76.5c60 0 117 18.333 171 55c66.667 44.667 126.667 115.667 180 213c57.333 104.667 101.666 232.334 132.999 383.001c18.667 88.667 28 177 28 265zM828.004 1782l192 -257l-58 -59l-326 266l11 50h181z" />
    <glyph glyph-name="Oacute" unicode="&#xd3;" horiz-adv-x="1273" 
d="M837 1381c82.667 0 154.17 -15.999 214.503 -47.999s106.666 -80.667 138.999 -146s48.5 -146 48.5 -242c0 -103.333 -17.667 -219.5 -53 -348.5s-86.5 -240.667 -153.5 -335s-143.5 -164.333 -229.5 -210s-176 -68.5 -270 -68.5c-93.333 0 -170.5 18 -231.5 54
s-105.833 86.167 -134.5 150.5s-43 140.166 -43 227.499c0 84.667 12.167 179.5 36.5 284.5s57.666 199.833 99.999 284.5s92.666 156.667 150.999 216s123.5 104.333 195.5 135s148.667 46 230 46zM1049 987.001c0 204 -74.332 306.001 -222.999 306.001
c-36 0 -70 -6 -102 -18c-37.333 -14.667 -73 -36.334 -107 -65.001c-38 -32.667 -73.333 -74.334 -106 -125.001c-38.667 -60 -72.334 -128.333 -101.001 -205c-30 -80 -54 -166.333 -72 -259c-17.333 -88.667 -26 -169 -26 -241c0 -104 18.833 -181.5 56.5 -232.5
s93.834 -76.5 168.501 -76.5c60 0 117 18.333 171 55c66.667 44.667 126.667 115.667 180 213c57.333 104.667 101.666 232.334 132.999 383.001c18.667 88.667 28 177 28 265zM1201 1782l-11 -50l-425 -268l-50 71l268 247h218z" />
    <glyph glyph-name="Ocircumflex" unicode="&#xd4;" horiz-adv-x="1273" 
d="M837 1381c82.667 0 154.17 -15.999 214.503 -47.999s106.666 -80.667 138.999 -146s48.5 -146 48.5 -242c0 -103.333 -17.667 -219.5 -53 -348.5s-86.5 -240.667 -153.5 -335s-143.5 -164.333 -229.5 -210s-176 -68.5 -270 -68.5c-93.333 0 -170.5 18 -231.5 54
s-105.833 86.167 -134.5 150.5s-43 140.166 -43 227.499c0 84.667 12.167 179.5 36.5 284.5s57.666 199.833 99.999 284.5s92.666 156.667 150.999 216s123.5 104.333 195.5 135s148.667 46 230 46zM1049 987.001c0 204 -74.332 306.001 -222.999 306.001
c-36 0 -70 -6 -102 -18c-37.333 -14.667 -73 -36.334 -107 -65.001c-38 -32.667 -73.333 -74.334 -106 -125.001c-38.667 -60 -72.334 -128.333 -101.001 -205c-30 -80 -54 -166.333 -72 -259c-17.333 -88.667 -26 -169 -26 -241c0 -104 18.833 -181.5 56.5 -232.5
s93.834 -76.5 168.501 -76.5c60 0 117 18.333 171 55c66.667 44.667 126.667 115.667 180 213c57.333 104.667 101.666 232.334 132.999 383.001c18.667 88.667 28 177 28 265zM991.004 1780l161 -261l-66 -50l-180 182h-10l-263 -183l-52 62l274 250h136z" />
    <glyph glyph-name="Otilde" unicode="&#xd5;" horiz-adv-x="1273" 
d="M837 1381c82.667 0 154.17 -15.999 214.503 -47.999s106.666 -80.667 138.999 -146s48.5 -146 48.5 -242c0 -103.333 -17.667 -219.5 -53 -348.5s-86.5 -240.667 -153.5 -335s-143.5 -164.333 -229.5 -210s-176 -68.5 -270 -68.5c-93.333 0 -170.5 18 -231.5 54
s-105.833 86.167 -134.5 150.5s-43 140.166 -43 227.499c0 84.667 12.167 179.5 36.5 284.5s57.666 199.833 99.999 284.5s92.666 156.667 150.999 216s123.5 104.333 195.5 135s148.667 46 230 46zM1049 987.001c0 204 -74.332 306.001 -222.999 306.001
c-36 0 -70 -6 -102 -18c-37.333 -14.667 -73 -36.334 -107 -65.001c-38 -32.667 -73.333 -74.334 -106 -125.001c-38.667 -60 -72.334 -128.333 -101.001 -205c-30 -80 -54 -166.333 -72 -259c-17.333 -88.667 -26 -169 -26 -241c0 -104 18.833 -181.5 56.5 -232.5
s93.834 -76.5 168.501 -76.5c60 0 117 18.333 171 55c66.667 44.667 126.667 115.667 180 213c57.333 104.667 101.666 232.334 132.999 383.001c18.667 88.667 28 177 28 265zM1146 1720l69 -48.001c-33.333 -50 -62.833 -88.667 -88.5 -116s-49.167 -46.333 -70.5 -57
s-45 -16 -71 -16c-15.333 0 -29.333 2 -42 6s-24.5 9.33301 -35.5 16s-27.5 19.334 -49.5 38.001c-20 16 -34.333 27 -43 33s-17 10.5 -25 13.5s-16.333 4.5 -25 4.5c-16.667 0 -31.667 -3.16699 -45 -9.5s-28 -17.833 -44 -34.5s-34 -39 -54 -67l-70 47
c40.667 58 71.667 98.667 93 122s42.833 40.5 64.5 51.5s47.5 16.5 77.5 16.5c10.667 0 20.5 -1.16699 29.5 -3.5s17.833 -5.5 26.5 -9.5s16.334 -8.33301 23.001 -13s19.667 -14.667 39 -30c27.333 -22.667 47.5 -37.5 60.5 -44.5s26.167 -10.5 39.5 -10.5
c15.333 0 29.666 3.33301 42.999 10s28 18 44 34s34 38.333 54 67z" />
    <glyph glyph-name="Odieresis" unicode="&#xd6;" horiz-adv-x="1273" 
d="M837 1381c82.667 0 154.17 -15.999 214.503 -47.999s106.666 -80.667 138.999 -146s48.5 -146 48.5 -242c0 -103.333 -17.667 -219.5 -53 -348.5s-86.5 -240.667 -153.5 -335s-143.5 -164.333 -229.5 -210s-176 -68.5 -270 -68.5c-93.333 0 -170.5 18 -231.5 54
s-105.833 86.167 -134.5 150.5s-43 140.166 -43 227.499c0 84.667 12.167 179.5 36.5 284.5s57.666 199.833 99.999 284.5s92.666 156.667 150.999 216s123.5 104.333 195.5 135s148.667 46 230 46zM1049 987.001c0 204 -74.332 306.001 -222.999 306.001
c-36 0 -70 -6 -102 -18c-37.333 -14.667 -73 -36.334 -107 -65.001c-38 -32.667 -73.333 -74.334 -106 -125.001c-38.667 -60 -72.334 -128.333 -101.001 -205c-30 -80 -54 -166.333 -72 -259c-17.333 -88.667 -26 -169 -26 -241c0 -104 18.833 -181.5 56.5 -232.5
s93.834 -76.5 168.501 -76.5c60 0 117 18.333 171 55c66.667 44.667 126.667 115.667 180 213c57.333 104.667 101.666 232.334 132.999 383.001c18.667 88.667 28 177 28 265zM1161 1691l-38 -176h-165l38 176h165zM811.004 1691l-38 -176h-165l38 176h165z" />
    <glyph glyph-name="multiply" unicode="&#xd7;" horiz-adv-x="1082" 
d="M580 686l345 296l85 -110l-350 -295l220 -299l-114 -90l-215 297l-347 -297l-85 110l352 297l-218 297l114 90z" />
    <glyph glyph-name="Oslash" unicode="&#xd8;" horiz-adv-x="1273" 
d="M-33 -135l222.001 281c-43.333 67.333 -65 157 -65 269c0 84.667 12.167 179.5 36.5 284.5s57.666 199.833 99.999 284.5s92.666 156.667 150.999 216s123.5 104.333 195.5 135s148.667 46 230 46c106.667 0 194.334 -26.667 263.001 -80l156 198h139l-222 -281
c44 -70.667 66 -161.667 66 -273c0 -103.333 -17.667 -219.5 -53 -348.5s-86.5 -240.667 -153.5 -335s-143.5 -164.333 -229.5 -210s-176 -68.5 -270 -68.5c-112.667 0 -203 26.667 -271 80l-156 -198h-139zM315.001 298l695.001 890.001c-36 70 -97.333 105 -184 105
c-36 0 -70 -6 -102 -18c-37.333 -14.667 -73 -36.334 -107 -65.001c-38 -32.667 -73.333 -74.334 -106 -125.001c-38.667 -60 -72.334 -128.333 -101.001 -205c-30 -80 -54 -166.333 -72 -259c-17.333 -88.667 -26 -169 -26 -241c0 -31.333 1 -58.666 3 -81.999zM1045 1063
l-693.999 -888c36 -69.333 98 -104 186 -104c60 0 117 18.333 171 55c66.667 44.667 126.667 115.667 180 213c57.333 104.667 101.666 232.334 132.999 383.001c18.667 88.667 28 177 28 265c0 21.333 -1.33301 46.666 -4 75.999z" />
    <glyph glyph-name="Ugrave" unicode="&#xd9;" horiz-adv-x="1295" 
d="M260 1316l11 49h402l-11 -49c-25.333 -5.33301 -43.5 -11.333 -54.5 -18s-21 -16.667 -30 -30s-18 -34.166 -27 -62.499s-20.5 -74.5 -34.5 -138.5l-125 -560c-8.66699 -38 -15.5 -74.167 -20.5 -108.5s-7.5 -69.833 -7.5 -106.5c0 -72.667 17.833 -127.667 53.5 -165
s89.5 -56 161.5 -56c68 0 124.667 14 170 42s81.666 68.333 108.999 121s50.333 121 69 205l139 629c6.66699 30 12 59.333 16 88s6 53 6 73c0 31.333 -8 53.166 -24 65.499s-40.667 19.5 -74 21.5l11 49h380l-11 -49c-24.667 -5.33301 -42.834 -11.5 -54.501 -18.5
s-22 -17.167 -31 -30.5s-17.833 -34.333 -26.5 -63s-20 -74.334 -34 -137.001l-130 -599c-26 -119.333 -62.667 -214.333 -110 -285s-106.5 -121.667 -177.5 -153s-157.833 -47 -260.5 -47c-115.333 0 -203.666 27.833 -264.999 83.5s-92 136.834 -92 243.501
c0 37.333 3.83301 80.166 11.5 128.499s18.5 102.833 32.5 163.5l104 466c8 35.333 13.833 66.833 17.5 94.5s5.5 49.834 5.5 66.501c0 30 -7.66699 51.5 -23 64.5s-40.666 20.5 -75.999 22.5zM759 1782l192 -257l-58 -59l-326 266l11 50h181z" />
    <glyph glyph-name="Uacute" unicode="&#xda;" horiz-adv-x="1295" 
d="M260 1316l11 49h402l-11 -49c-25.333 -5.33301 -43.5 -11.333 -54.5 -18s-21 -16.667 -30 -30s-18 -34.166 -27 -62.499s-20.5 -74.5 -34.5 -138.5l-125 -560c-8.66699 -38 -15.5 -74.167 -20.5 -108.5s-7.5 -69.833 -7.5 -106.5c0 -72.667 17.833 -127.667 53.5 -165
s89.5 -56 161.5 -56c68 0 124.667 14 170 42s81.666 68.333 108.999 121s50.333 121 69 205l139 629c6.66699 30 12 59.333 16 88s6 53 6 73c0 31.333 -8 53.166 -24 65.499s-40.667 19.5 -74 21.5l11 49h380l-11 -49c-24.667 -5.33301 -42.834 -11.5 -54.501 -18.5
s-22 -17.167 -31 -30.5s-17.833 -34.333 -26.5 -63s-20 -74.334 -34 -137.001l-130 -599c-26 -119.333 -62.667 -214.333 -110 -285s-106.5 -121.667 -177.5 -153s-157.833 -47 -260.5 -47c-115.333 0 -203.666 27.833 -264.999 83.5s-92 136.834 -92 243.501
c0 37.333 3.83301 80.166 11.5 128.499s18.5 102.833 32.5 163.5l104 466c8 35.333 13.833 66.833 17.5 94.5s5.5 49.834 5.5 66.501c0 30 -7.66699 51.5 -23 64.5s-40.666 20.5 -75.999 22.5zM1222 1782l-11 -50l-425 -268l-50 71l268 247h218z" />
    <glyph glyph-name="Ucircumflex" unicode="&#xdb;" horiz-adv-x="1295" 
d="M260 1316l11 49h402l-11 -49c-25.333 -5.33301 -43.5 -11.333 -54.5 -18s-21 -16.667 -30 -30s-18 -34.166 -27 -62.499s-20.5 -74.5 -34.5 -138.5l-125 -560c-8.66699 -38 -15.5 -74.167 -20.5 -108.5s-7.5 -69.833 -7.5 -106.5c0 -72.667 17.833 -127.667 53.5 -165
s89.5 -56 161.5 -56c68 0 124.667 14 170 42s81.666 68.333 108.999 121s50.333 121 69 205l139 629c6.66699 30 12 59.333 16 88s6 53 6 73c0 31.333 -8 53.166 -24 65.499s-40.667 19.5 -74 21.5l11 49h380l-11 -49c-24.667 -5.33301 -42.834 -11.5 -54.501 -18.5
s-22 -17.167 -31 -30.5s-17.833 -34.333 -26.5 -63s-20 -74.334 -34 -137.001l-130 -599c-26 -119.333 -62.667 -214.333 -110 -285s-106.5 -121.667 -177.5 -153s-157.833 -47 -260.5 -47c-115.333 0 -203.666 27.833 -264.999 83.5s-92 136.834 -92 243.501
c0 37.333 3.83301 80.166 11.5 128.499s18.5 102.833 32.5 163.5l104 466c8 35.333 13.833 66.833 17.5 94.5s5.5 49.834 5.5 66.501c0 30 -7.66699 51.5 -23 64.5s-40.666 20.5 -75.999 22.5zM1007 1780l161 -261l-66 -50l-180 182h-10l-263 -183l-52 62l274 250h136z" />
    <glyph glyph-name="Udieresis" unicode="&#xdc;" horiz-adv-x="1295" 
d="M260 1316l11 49h402l-11 -49c-25.333 -5.33301 -43.5 -11.333 -54.5 -18s-21 -16.667 -30 -30s-18 -34.166 -27 -62.499s-20.5 -74.5 -34.5 -138.5l-125 -560c-8.66699 -38 -15.5 -74.167 -20.5 -108.5s-7.5 -69.833 -7.5 -106.5c0 -72.667 17.833 -127.667 53.5 -165
s89.5 -56 161.5 -56c68 0 124.667 14 170 42s81.666 68.333 108.999 121s50.333 121 69 205l139 629c6.66699 30 12 59.333 16 88s6 53 6 73c0 31.333 -8 53.166 -24 65.499s-40.667 19.5 -74 21.5l11 49h380l-11 -49c-24.667 -5.33301 -42.834 -11.5 -54.501 -18.5
s-22 -17.167 -31 -30.5s-17.833 -34.333 -26.5 -63s-20 -74.334 -34 -137.001l-130 -599c-26 -119.333 -62.667 -214.333 -110 -285s-106.5 -121.667 -177.5 -153s-157.833 -47 -260.5 -47c-115.333 0 -203.666 27.833 -264.999 83.5s-92 136.834 -92 243.501
c0 37.333 3.83301 80.166 11.5 128.499s18.5 102.833 32.5 163.5l104 466c8 35.333 13.833 66.833 17.5 94.5s5.5 49.834 5.5 66.501c0 30 -7.66699 51.5 -23 64.5s-40.666 20.5 -75.999 22.5zM1177 1691l-38 -176h-165l38 176h165zM827 1691l-38 -176h-165l38 176h165z" />
    <glyph glyph-name="Yacute" unicode="&#xdd;" horiz-adv-x="1122" 
d="M587 1365l-11.0039 -48.9961c-28 -2.66699 -49.333 -10.834 -64 -24.501s-22 -34.834 -22 -63.501c0 -40.667 9.33301 -94 28 -160l106 -377l246 329c36.667 48.667 63.167 86.834 79.5 114.501s27.833 52.167 34.5 73.5c5.33301 16 8 31.333 8 46
c0 18.667 -6.33301 33 -19 43s-31 16.333 -55 19l11 49h375l-11 -49c-16 -3.33301 -29.833 -8.16602 -41.5 -14.499s-25 -16.5 -40 -30.5s-35.333 -36.5 -61 -67.5l-98.5 -124.5l-389 -505l-62 -283c-6 -26.667 -10.167 -47.5 -12.5 -62.5s-4.33301 -31 -6 -48
s-2.5 -32.167 -2.5 -45.5c0 -20.667 3.33301 -36.834 10 -48.501s16.667 -20.167 30 -25.5s36.333 -9.33301 69 -12l-11 -49h-421l11 49c26.667 4 46.334 9.33301 59.001 16s23.834 17 33.501 31s19.334 36 29.001 66s21.167 75.333 34.5 136l59 276l-145 505
c-22 77.333 -39.333 129.666 -52 156.999s-26.167 46.666 -40.5 57.999s-33.166 18.666 -56.499 21.999l11 49h387zM1141 1782l-11 -50l-425 -268l-50 71l268 247h218z" />
    <glyph glyph-name="Thorn" unicode="&#xde;" horiz-adv-x="1147" 
d="M383 326l-7.00195 -34.999c-6.66699 -34.667 -11.834 -64.167 -15.501 -88.5s-5.5 -46.833 -5.5 -67.5c0 -30 7.5 -51.167 22.5 -63.5s40.167 -19.833 75.5 -22.5l-11 -49h-400l11 49c25.333 4 44.333 10.5 57 19.5s23.334 21.5 32.001 37.5s16.667 35.5 24 58.5
s18.333 67.5 33 133.5l170 770c6.66699 30.667 12 60.167 16 88.5s6 52.5 6 72.5c0 31.333 -8 53.166 -24 65.499s-40.667 19.5 -74 21.5l11 49h400l-11 -49c-24 -4.66699 -41.5 -10.167 -52.5 -16.5s-20.833 -15.666 -29.5 -27.999s-17.167 -30.333 -25.5 -54
s-18.166 -60.834 -29.499 -111.501h131c79.333 0 144.5 -6.16699 195.5 -18.5s93 -31.333 126 -57s57.667 -58.167 74 -97.5s24.5 -85 24.5 -137c0 -100 -23.667 -186.667 -71 -260s-111.5 -127.333 -192.5 -162s-178.167 -52 -291.5 -52
c-67.333 0 -123.666 1.33301 -168.999 4zM534.998 1015l-133.002 -606.002h101c80.667 0 145.834 8.33301 195.501 25s90.334 42.5 122.001 77.5s56.167 76.5 73.5 124.5s26 100.667 26 158c0 56.667 -10 101.334 -30 134.001s-48.333 55.834 -85 69.501
s-83.334 20.5 -140.001 20.5c-41.333 0 -84.666 -1 -129.999 -3z" />
    <glyph glyph-name="germandbls" unicode="&#xdf;" horiz-adv-x="1160" 
d="M254 -17c-22.667 -104.667 -53.3389 -188.334 -92.0059 -251.001s-86.5 -108.167 -143.5 -136.5s-126.5 -42.5 -208.5 -42.5c-29.333 0 -55.666 3.33301 -78.999 10l23 88c16 -5.33301 39.333 -8 70 -8c35.333 0 64.166 4.66699 86.499 14s43 24.5 62 45.5
s37 51.667 54 92s33.167 93.5 48.5 159.5l203 901h-121l12 51c42.667 4.66699 74.667 15.834 96 33.501s39 48.167 53 91.5c11.333 36.667 24.833 72.167 40.5 106.5s34.334 66.666 56.001 96.999s46.5 57.833 74.5 82.5s60.5 45.834 97.5 63.501s78.667 31.334 125 41.001
s98.5 14.5 156.5 14.5c40 0 77.167 -4.16699 111.5 -12.5s64 -21.166 89 -38.499s44.667 -39.833 59 -67.5s21.5 -61.167 21.5 -100.5c0 -46 -9 -87.333 -27 -124s-43.5 -70.667 -76.5 -102s-77.167 -64.666 -132.5 -99.999s-94.666 -62.5 -117.999 -81.5
s-39.833 -36.5 -49.5 -52.5s-14.5 -34.333 -14.5 -55c0 -20 3.66699 -37.167 11 -51.5s20.833 -29.333 40.5 -45s51.834 -36.834 96.501 -63.501c42 -25.333 75.667 -48.5 101 -69.5s45.333 -41.833 60 -62.5s25.334 -42.5 32.001 -65.5s10 -50.833 10 -83.5
c0 -59.333 -15.833 -110.166 -47.5 -152.499s-74.667 -73.833 -129 -94.5s-116.166 -31 -185.499 -31c-93.333 0 -195.333 15.667 -306 47l37 171h83c7.33301 -48 26.5 -83.167 57.5 -105.5s75.833 -33.5 134.5 -33.5c60 0 107.333 14.5 142 43.5s52 68.833 52 119.5
c0 30 -5 55.833 -15 77.5s-26.333 42.5 -49 62.5s-58.667 45 -108 75c-40 24.667 -69.333 44.5 -88 59.5s-33.667 30.667 -45 47s-19.5 33.166 -24.5 50.499s-7.5 36.666 -7.5 57.999c0 30 6.16699 57.333 18.5 82s32 50 59 76s74.5 62.333 142.5 109
c44.667 30 79.5 57.667 104.5 83s44.167 53.166 57.5 83.499s20 66.5 20 108.5c0 51.333 -13.5 90.833 -40.5 118.5s-65.5 41.5 -115.5 41.5c-51.333 0 -94.833 -8.16699 -130.5 -24.5s-69.5 -42.833 -101.5 -79.5s-59.667 -83.5 -83 -140.5s-45.666 -135.5 -66.999 -235.5z
M62.9951 956z" />
    <glyph glyph-name="agrave" unicode="&#xe0;" horiz-adv-x="1077" 
d="M834 907l92 65.998l64 -16l-153 -679c-9.33301 -40 -15.666 -70.833 -18.999 -92.5s-5 -39.5 -5 -53.5c0 -27.333 7.66699 -47.166 23 -59.499s44.666 -20.166 87.999 -23.499l-9 -49h-286l63 251l-13 4c-64 -93.333 -124.667 -161.666 -182 -204.999s-118 -65 -182 -65
c-73.333 0 -130.166 27.667 -170.499 83s-60.5 133 -60.5 233c0 64 7.33301 128.167 22 192.5s36.834 125.333 66.501 183s65.167 108.5 106.5 152.5s89.166 79 143.499 105s113.5 39 177.5 39c41.333 0 80.666 -4.83301 117.999 -14.5s76 -26.834 116 -51.501zM746 608.998
c6 27.333 10.002 51 12.002 71s3 41.667 3 65c0 52 -11 89.833 -33 113.5s-58.667 35.5 -110 35.5c-28 0 -54.667 -4.5 -80 -13.5s-51 -24 -77 -45s-50.833 -48.5 -74.5 -82.5s-45.167 -75.333 -64.5 -124s-34.333 -100.834 -45 -156.501s-16 -109.834 -16 -162.501
c0 -69.333 9.5 -121.166 28.5 -155.499s50.833 -51.5 95.5 -51.5c20.667 0 42.167 4.66699 64.5 14s47.166 26.5 74.499 51.5s58.333 61.833 93 110.5c31.333 44.667 56.166 88.834 74.499 132.501s33.5 95.167 45.5 154.5zM667.002 1442l133 -328l-71 -44l-235 322l11 50
h162z" />
    <glyph glyph-name="aacute" unicode="&#xe1;" horiz-adv-x="1077" 
d="M834 907l92 65.998l64 -16l-153 -679c-9.33301 -40 -15.666 -70.833 -18.999 -92.5s-5 -39.5 -5 -53.5c0 -27.333 7.66699 -47.166 23 -59.499s44.666 -20.166 87.999 -23.499l-9 -49h-286l63 251l-13 4c-64 -93.333 -124.667 -161.666 -182 -204.999s-118 -65 -182 -65
c-73.333 0 -130.166 27.667 -170.499 83s-60.5 133 -60.5 233c0 64 7.33301 128.167 22 192.5s36.834 125.333 66.501 183s65.167 108.5 106.5 152.5s89.166 79 143.499 105s113.5 39 177.5 39c41.333 0 80.666 -4.83301 117.999 -14.5s76 -26.834 116 -51.501zM746 608.998
c6 27.333 10.002 51 12.002 71s3 41.667 3 65c0 52 -11 89.833 -33 113.5s-58.667 35.5 -110 35.5c-28 0 -54.667 -4.5 -80 -13.5s-51 -24 -77 -45s-50.833 -48.5 -74.5 -82.5s-45.167 -75.333 -64.5 -124s-34.333 -100.834 -45 -156.501s-16 -109.834 -16 -162.501
c0 -69.333 9.5 -121.166 28.5 -155.499s50.833 -51.5 95.5 -51.5c20.667 0 42.167 4.66699 64.5 14s47.166 26.5 74.499 51.5s58.333 61.833 93 110.5c31.333 44.667 56.166 88.834 74.499 132.501s33.5 95.167 45.5 154.5zM1001 1442l-11 -50l-374 -322l-62 60l263 312h184
z" />
    <glyph glyph-name="acircumflex" unicode="&#xe2;" horiz-adv-x="1077" 
d="M834 907l92 65.998l64 -16l-153 -679c-9.33301 -40 -15.666 -70.833 -18.999 -92.5s-5 -39.5 -5 -53.5c0 -27.333 7.66699 -47.166 23 -59.499s44.666 -20.166 87.999 -23.499l-9 -49h-286l63 251l-13 4c-64 -93.333 -124.667 -161.666 -182 -204.999s-118 -65 -182 -65
c-73.333 0 -130.166 27.667 -170.499 83s-60.5 133 -60.5 233c0 64 7.33301 128.167 22 192.5s36.834 125.333 66.501 183s65.167 108.5 106.5 152.5s89.166 79 143.499 105s113.5 39 177.5 39c41.333 0 80.666 -4.83301 117.999 -14.5s76 -26.834 116 -51.501zM746 608.998
c6 27.333 10.002 51 12.002 71s3 41.667 3 65c0 52 -11 89.833 -33 113.5s-58.667 35.5 -110 35.5c-28 0 -54.667 -4.5 -80 -13.5s-51 -24 -77 -45s-50.833 -48.5 -74.5 -82.5s-45.167 -75.333 -64.5 -124s-34.333 -100.834 -45 -156.501s-16 -109.834 -16 -162.501
c0 -69.333 9.5 -121.166 28.5 -155.499s50.833 -51.5 95.5 -51.5c20.667 0 42.167 4.66699 64.5 14s47.166 26.5 74.499 51.5s58.333 61.833 93 110.5c31.333 44.667 56.166 88.834 74.499 132.501s33.5 95.167 45.5 154.5zM819.002 1432l132 -337l-79 -35l-138 243h-10
l-256 -243l-62 57l277 315h136z" />
    <glyph glyph-name="atilde" unicode="&#xe3;" horiz-adv-x="1077" 
d="M834 907l92 65.998l64 -16l-153 -679c-9.33301 -40 -15.666 -70.833 -18.999 -92.5s-5 -39.5 -5 -53.5c0 -27.333 7.66699 -47.166 23 -59.499s44.666 -20.166 87.999 -23.499l-9 -49h-286l63 251l-13 4c-64 -93.333 -124.667 -161.666 -182 -204.999s-118 -65 -182 -65
c-73.333 0 -130.166 27.667 -170.499 83s-60.5 133 -60.5 233c0 64 7.33301 128.167 22 192.5s36.834 125.333 66.501 183s65.167 108.5 106.5 152.5s89.166 79 143.499 105s113.5 39 177.5 39c41.333 0 80.666 -4.83301 117.999 -14.5s76 -26.834 116 -51.501zM746 608.998
c6 27.333 10.002 51 12.002 71s3 41.667 3 65c0 52 -11 89.833 -33 113.5s-58.667 35.5 -110 35.5c-28 0 -54.667 -4.5 -80 -13.5s-51 -24 -77 -45s-50.833 -48.5 -74.5 -82.5s-45.167 -75.333 -64.5 -124s-34.333 -100.834 -45 -156.501s-16 -109.834 -16 -162.501
c0 -69.333 9.5 -121.166 28.5 -155.499s50.833 -51.5 95.5 -51.5c20.667 0 42.167 4.66699 64.5 14s47.166 26.5 74.499 51.5s58.333 61.833 93 110.5c31.333 44.667 56.166 88.834 74.499 132.501s33.5 95.167 45.5 154.5zM970.002 1365l69 -48.001
c-33.333 -50 -62.833 -88.667 -88.5 -116s-49.167 -46.333 -70.5 -57s-45 -16 -71 -16c-15.333 0 -29.333 2 -42 6s-24.5 9.33301 -35.5 16s-27.5 19.334 -49.5 38.001c-20 16 -34.333 27 -43 33s-17 10.5 -25 13.5s-16.333 4.5 -25 4.5
c-16.667 0 -31.667 -3.16699 -45 -9.5s-28 -17.833 -44 -34.5s-34 -39 -54 -67l-70 47c40.667 58 71.667 98.667 93 122s42.833 40.5 64.5 51.5s47.5 16.5 77.5 16.5c10.667 0 20.5 -1.16699 29.5 -3.5s17.833 -5.5 26.5 -9.5s16.334 -8.33301 23.001 -13
s19.667 -14.667 39 -30c27.333 -22.667 47.5 -37.5 60.5 -44.5s26.167 -10.5 39.5 -10.5c15.333 0 29.666 3.33301 42.999 10s28 18 44 34s34 38.333 54 67z" />
    <glyph glyph-name="adieresis" unicode="&#xe4;" horiz-adv-x="1077" 
d="M834 907l92 65.998l64 -16l-153 -679c-9.33301 -40 -15.666 -70.833 -18.999 -92.5s-5 -39.5 -5 -53.5c0 -27.333 7.66699 -47.166 23 -59.499s44.666 -20.166 87.999 -23.499l-9 -49h-286l63 251l-13 4c-64 -93.333 -124.667 -161.666 -182 -204.999s-118 -65 -182 -65
c-73.333 0 -130.166 27.667 -170.499 83s-60.5 133 -60.5 233c0 64 7.33301 128.167 22 192.5s36.834 125.333 66.501 183s65.167 108.5 106.5 152.5s89.166 79 143.499 105s113.5 39 177.5 39c41.333 0 80.666 -4.83301 117.999 -14.5s76 -26.834 116 -51.501zM746 608.998
c6 27.333 10.002 51 12.002 71s3 41.667 3 65c0 52 -11 89.833 -33 113.5s-58.667 35.5 -110 35.5c-28 0 -54.667 -4.5 -80 -13.5s-51 -24 -77 -45s-50.833 -48.5 -74.5 -82.5s-45.167 -75.333 -64.5 -124s-34.333 -100.834 -45 -156.501s-16 -109.834 -16 -162.501
c0 -69.333 9.5 -121.166 28.5 -155.499s50.833 -51.5 95.5 -51.5c20.667 0 42.167 4.66699 64.5 14s47.166 26.5 74.499 51.5s58.333 61.833 93 110.5c31.333 44.667 56.166 88.834 74.499 132.501s33.5 95.167 45.5 154.5zM971.002 1339l-38 -176h-165l38 176h165z
M649.002 1339l-38 -176h-165l38 176h165z" />
    <glyph glyph-name="aring" unicode="&#xe5;" horiz-adv-x="1077" 
d="M834 907l92 65.998l64 -16l-153 -679c-9.33301 -40 -15.666 -70.833 -18.999 -92.5s-5 -39.5 -5 -53.5c0 -27.333 7.66699 -47.166 23 -59.499s44.666 -20.166 87.999 -23.499l-9 -49h-286l63 251l-13 4c-64 -93.333 -124.667 -161.666 -182 -204.999s-118 -65 -182 -65
c-73.333 0 -130.166 27.667 -170.499 83s-60.5 133 -60.5 233c0 64 7.33301 128.167 22 192.5s36.834 125.333 66.501 183s65.167 108.5 106.5 152.5s89.166 79 143.499 105s113.5 39 177.5 39c41.333 0 80.666 -4.83301 117.999 -14.5s76 -26.834 116 -51.501zM746 608.998
c6 27.333 10.002 51 12.002 71s3 41.667 3 65c0 52 -11 89.833 -33 113.5s-58.667 35.5 -110 35.5c-28 0 -54.667 -4.5 -80 -13.5s-51 -24 -77 -45s-50.833 -48.5 -74.5 -82.5s-45.167 -75.333 -64.5 -124s-34.333 -100.834 -45 -156.501s-16 -109.834 -16 -162.501
c0 -69.333 9.5 -121.166 28.5 -155.499s50.833 -51.5 95.5 -51.5c20.667 0 42.167 4.66699 64.5 14s47.166 26.5 74.499 51.5s58.333 61.833 93 110.5c31.333 44.667 56.166 88.834 74.499 132.501s33.5 95.167 45.5 154.5zM669.002 1071
c-57.333 0 -101.5 12.833 -132.5 38.5s-46.5 62.167 -46.5 109.5c0 30.667 5.5 62 16.5 94s28.833 60.167 53.5 84.5s53.834 42.833 87.501 55.5s69.5 19 107.5 19c60 0 105.167 -12.833 135.5 -38.5s45.5 -62.5 45.5 -110.5c0 -44 -10.333 -86 -31 -126
s-51.334 -71 -92.001 -93s-88.667 -33 -144 -33zM591.002 1225c0 -28 7.16699 -50.3301 21.5 -66.9971s36.833 -25 67.5 -25c32 0 60 9.5 84 28.5s41.833 43.167 53.5 72.5s17.5 57.666 17.5 84.999c0 29.333 -7.66699 51.833 -23 67.5s-37 23.5 -65 23.5
c-28.667 0 -55 -8.33301 -79 -25s-42.833 -39.334 -56.5 -68.001s-20.5 -59.334 -20.5 -92.001z" />
    <glyph glyph-name="ae" unicode="&#xe6;" horiz-adv-x="1452" 
d="M1330 199c-49.333 -54 -96.667 -96.6729 -142 -128.006s-90.666 -53.666 -135.999 -66.999s-95.333 -20 -150 -20c-72 0 -131.333 17.333 -178 52s-79.334 85.334 -98.001 152.001h-10c-58 -69.333 -117.667 -120.666 -179 -153.999s-125.333 -50 -192 -50
c-69.333 0 -123 17.833 -161 53.5s-57 83.834 -57 144.501c0 69.333 21 129.333 63 180s108.333 90.334 199 119.001s206.667 43.334 348 44.001l16 78c6 30.667 10 55.667 12 75s3 36.333 3 51c0 53.333 -12.333 92.333 -37 117s-62.334 37 -113.001 37
c-52 0 -94.667 -13.333 -128 -40s-60.666 -68 -81.999 -124h-130l28 130c56 29.333 100.333 51 133 65s64 25.5 94 34.5s58.167 15.333 84.5 19s53.5 5.5 81.5 5.5c56 0 100.5 -12.333 133.5 -37s56.833 -64.667 71.5 -120h10c103.333 104.667 222.666 157 357.999 157
c80.667 0 141.167 -16.333 181.5 -49s60.5 -83.667 60.5 -153c0 -113.333 -53.167 -198.333 -159.5 -255s-264.166 -85 -473.499 -85c-8 -40 -12 -83.333 -12 -130c0 -70 13.667 -120.833 41 -152.5s72 -47.5 134 -47.5c61.333 0 117 13.333 167 40s102.333 67.667 157 123z
M797.999 515.994c61.333 0.666992 115.168 4.16895 161.501 10.502s86.166 15 119.499 26s61 24.167 83 39.5s39.5 32.166 52.5 50.499s22 37.666 27 57.999s7.5 41.5 7.5 63.5c0 40.667 -9.5 72.5 -28.5 95.5s-47.167 34.5 -84.5 34.5
c-46.667 0 -92.5 -16.833 -137.5 -50.5s-84.667 -79 -119 -136s-61.5 -120.833 -81.5 -191.5zM619.001 442.996l-7.99902 0.000976562c-59.333 0 -114.666 -3.83301 -165.999 -11.5s-95.833 -20.334 -133.5 -38.001s-67.167 -40.667 -88.5 -69s-32 -62.833 -32 -103.5
c0 -82.667 44.667 -124 134 -124c45.333 0 87.166 11.667 125.499 35s70.166 54.833 95.499 94.5s43.333 83.5 54 131.5z" />
    <glyph glyph-name="ccedilla" unicode="&#xe7;" horiz-adv-x="887" 
d="M735 716c-1.33301 50.667 -5.49707 87.3359 -12.4971 110.003s-18.333 39.667 -34 51s-37.834 17 -66.501 17c-67.333 0 -127.833 -26.833 -181.5 -80.5s-97.5 -129.667 -131.5 -228s-51 -192.833 -51 -283.5c0 -28 2.5 -54.333 7.5 -79s13.667 -46 26 -64
s28.666 -32.167 48.999 -42.5s46.166 -15.5 77.499 -15.5c60.667 0 113.167 11.5 157.5 34.5s91.166 59.167 140.499 108.5l61 -61c-68.667 -76.667 -138.667 -130.667 -210 -162l-161 -108c2.66699 -9.33301 4 -25.666 4 -48.999c0 -83.333 -31.5 -150.833 -94.5 -202.5
s-152.167 -82.167 -267.5 -91.5v76c64 5.33301 113.5 24.666 148.5 57.999s53.167 81.666 54.5 144.999l7 34l163 102c-7.33301 -1.33301 -20.333 -2 -39 -2c-96.667 0 -170 28.667 -220 86s-75 140.666 -75 249.999c0 71.333 13.333 149.666 40 234.999
s65.667 160.333 117 225s111.333 113 180 145s142 48 220 48c53.333 0 99.833 -3 139.5 -9s74.834 -13 105.501 -21l-49 -226h-105z" />
    <glyph glyph-name="egrave" unicode="&#xe8;" horiz-adv-x="936" 
d="M814 199c-49.333 -54 -96.6689 -96.668 -142.002 -128.001s-90.666 -53.666 -135.999 -66.999s-95.333 -20 -150 -20c-52.667 0 -98 8.5 -136 25.5s-69.5 40.333 -94.5 70s-43.5 65 -55.5 106s-18 85.5 -18 133.5c0 71.333 12.833 147.833 38.5 229.5s64.5 155 116.5 220
s114.333 115.333 187 151s150 53.5 232 53.5c80.667 0 141.167 -16.333 181.5 -49s60.5 -83.667 60.5 -153c0 -113.333 -53.167 -198.333 -159.5 -255s-264.166 -85 -473.499 -85c-8 -40 -12 -83.333 -12 -130c0 -70 13.667 -120.833 41 -152.5s72 -47.5 134 -47.5
c61.333 0 117 13.333 167 40s102.333 67.667 157 123zM281.997 515.999c61.333 0.666992 115.168 4.16895 161.501 10.502s86.166 15 119.499 26s61 24.167 83 39.5s39.5 32.166 52.5 50.499s22 37.666 27 57.999s7.5 41.5 7.5 63.5c0 40.667 -9.5 72.5 -28.5 95.5
s-47.167 34.5 -84.5 34.5c-46.667 0 -92.5 -16.833 -137.5 -50.5s-84.667 -79 -119 -136s-61.5 -120.833 -81.5 -191.5zM631.999 1442l133 -328l-71 -44l-235 322l11 50h162z" />
    <glyph glyph-name="eacute" unicode="&#xe9;" horiz-adv-x="936" 
d="M814 199c-49.333 -54 -96.6689 -96.668 -142.002 -128.001s-90.666 -53.666 -135.999 -66.999s-95.333 -20 -150 -20c-52.667 0 -98 8.5 -136 25.5s-69.5 40.333 -94.5 70s-43.5 65 -55.5 106s-18 85.5 -18 133.5c0 71.333 12.833 147.833 38.5 229.5s64.5 155 116.5 220
s114.333 115.333 187 151s150 53.5 232 53.5c80.667 0 141.167 -16.333 181.5 -49s60.5 -83.667 60.5 -153c0 -113.333 -53.167 -198.333 -159.5 -255s-264.166 -85 -473.499 -85c-8 -40 -12 -83.333 -12 -130c0 -70 13.667 -120.833 41 -152.5s72 -47.5 134 -47.5
c61.333 0 117 13.333 167 40s102.333 67.667 157 123zM281.997 515.999c61.333 0.666992 115.168 4.16895 161.501 10.502s86.166 15 119.499 26s61 24.167 83 39.5s39.5 32.166 52.5 50.499s22 37.666 27 57.999s7.5 41.5 7.5 63.5c0 40.667 -9.5 72.5 -28.5 95.5
s-47.167 34.5 -84.5 34.5c-46.667 0 -92.5 -16.833 -137.5 -50.5s-84.667 -79 -119 -136s-61.5 -120.833 -81.5 -191.5zM965.999 1442l-11 -50l-374 -322l-62 60l263 312h184z" />
    <glyph glyph-name="ecircumflex" unicode="&#xea;" horiz-adv-x="936" 
d="M814 199c-49.333 -54 -96.6689 -96.668 -142.002 -128.001s-90.666 -53.666 -135.999 -66.999s-95.333 -20 -150 -20c-52.667 0 -98 8.5 -136 25.5s-69.5 40.333 -94.5 70s-43.5 65 -55.5 106s-18 85.5 -18 133.5c0 71.333 12.833 147.833 38.5 229.5s64.5 155 116.5 220
s114.333 115.333 187 151s150 53.5 232 53.5c80.667 0 141.167 -16.333 181.5 -49s60.5 -83.667 60.5 -153c0 -113.333 -53.167 -198.333 -159.5 -255s-264.166 -85 -473.499 -85c-8 -40 -12 -83.333 -12 -130c0 -70 13.667 -120.833 41 -152.5s72 -47.5 134 -47.5
c61.333 0 117 13.333 167 40s102.333 67.667 157 123zM281.997 515.999c61.333 0.666992 115.168 4.16895 161.501 10.502s86.166 15 119.499 26s61 24.167 83 39.5s39.5 32.166 52.5 50.499s22 37.666 27 57.999s7.5 41.5 7.5 63.5c0 40.667 -9.5 72.5 -28.5 95.5
s-47.167 34.5 -84.5 34.5c-46.667 0 -92.5 -16.833 -137.5 -50.5s-84.667 -79 -119 -136s-61.5 -120.833 -81.5 -191.5zM782.999 1432l132 -337l-79 -35l-138 243h-10l-256 -243l-62 57l277 315h136z" />
    <glyph glyph-name="edieresis" unicode="&#xeb;" horiz-adv-x="936" 
d="M814 199c-49.333 -54 -96.6689 -96.668 -142.002 -128.001s-90.666 -53.666 -135.999 -66.999s-95.333 -20 -150 -20c-52.667 0 -98 8.5 -136 25.5s-69.5 40.333 -94.5 70s-43.5 65 -55.5 106s-18 85.5 -18 133.5c0 71.333 12.833 147.833 38.5 229.5s64.5 155 116.5 220
s114.333 115.333 187 151s150 53.5 232 53.5c80.667 0 141.167 -16.333 181.5 -49s60.5 -83.667 60.5 -153c0 -113.333 -53.167 -198.333 -159.5 -255s-264.166 -85 -473.499 -85c-8 -40 -12 -83.333 -12 -130c0 -70 13.667 -120.833 41 -152.5s72 -47.5 134 -47.5
c61.333 0 117 13.333 167 40s102.333 67.667 157 123zM281.997 515.999c61.333 0.666992 115.168 4.16895 161.501 10.502s86.166 15 119.499 26s61 24.167 83 39.5s39.5 32.166 52.5 50.499s22 37.666 27 57.999s7.5 41.5 7.5 63.5c0 40.667 -9.5 72.5 -28.5 95.5
s-47.167 34.5 -84.5 34.5c-46.667 0 -92.5 -16.833 -137.5 -50.5s-84.667 -79 -119 -136s-61.5 -120.833 -81.5 -191.5zM935.999 1339l-38 -176h-165l38 176h165zM613.999 1339l-38 -176h-165l38 176h165z" />
    <glyph glyph-name="igrave" unicode="&#xec;" horiz-adv-x="555" 
d="M313 250c-7.33301 -34 -12 -58.8311 -14 -74.498s-3 -28.834 -3 -39.501c0 -20 3.33301 -35.667 10 -47s17 -20 31 -26s37 -10.667 69 -14l-9 -49h-310l151 674c8.66699 38.667 14.667 69.5 18 92.5s5 42.167 5 57.5c0 19.333 -2.83301 34.333 -8.5 45
s-15.167 18.667 -28.5 24s-36.333 8.66602 -69 9.99902l11 53l244 9h59zM399 1442l133 -328l-71 -44l-235 322l11 50h162z" />
    <glyph glyph-name="iacute" unicode="&#xed;" horiz-adv-x="555" 
d="M313 250c-7.33301 -34 -12 -58.8311 -14 -74.498s-3 -28.834 -3 -39.501c0 -20 3.33301 -35.667 10 -47s17 -20 31 -26s37 -10.667 69 -14l-9 -49h-310l151 674c8.66699 38.667 14.667 69.5 18 92.5s5 42.167 5 57.5c0 19.333 -2.83301 34.333 -8.5 45
s-15.167 18.667 -28.5 24s-36.333 8.66602 -69 9.99902l11 53l244 9h59zM731 1442l-11 -50l-374 -322l-62 60l263 312h184z" />
    <glyph glyph-name="icircumflex" unicode="&#xee;" horiz-adv-x="555" 
d="M313 250c-7.33301 -34 -12 -58.8311 -14 -74.498s-3 -28.834 -3 -39.501c0 -20 3.33301 -35.667 10 -47s17 -20 31 -26s37 -10.667 69 -14l-9 -49h-310l151 674c8.66699 38.667 14.667 69.5 18 92.5s5 42.167 5 57.5c0 19.333 -2.83301 34.333 -8.5 45
s-15.167 18.667 -28.5 24s-36.333 8.66602 -69 9.99902l11 53l244 9h59zM551 1432l132 -337l-79 -35l-138 243h-10l-256 -243l-62 57l277 315h136z" />
    <glyph glyph-name="idieresis" unicode="&#xef;" horiz-adv-x="555" 
d="M313 250c-7.33301 -34 -12 -58.8311 -14 -74.498s-3 -28.834 -3 -39.501c0 -20 3.33301 -35.667 10 -47s17 -20 31 -26s37 -10.667 69 -14l-9 -49h-310l151 674c8.66699 38.667 14.667 69.5 18 92.5s5 42.167 5 57.5c0 19.333 -2.83301 34.333 -8.5 45
s-15.167 18.667 -28.5 24s-36.333 8.66602 -69 9.99902l11 53l244 9h59zM703 1339l-38 -176h-165l38 176h165zM381 1339l-38 -176h-165l38 176h165z" />
    <glyph glyph-name="eth" unicode="&#xf0;" horiz-adv-x="1042" 
d="M386 1132l259.001 124.999c-27.333 22 -52.333 40 -75 54s-49.334 28.333 -80.001 43l31 81c86.667 -31.333 164 -73 232 -125l231 112l40 -80l-205 -97c20.667 -22 39.167 -45.333 55.5 -70s31.666 -53.834 45.999 -87.501s25.666 -68.5 33.999 -104.5
s13.833 -71.667 16.5 -107s4 -66.666 4 -93.999c0 -85.333 -11.333 -181.5 -34 -288.5s-56.834 -198 -102.501 -273s-104.667 -133.167 -177 -174.5s-157.166 -62 -254.499 -62c-70.667 0 -130.5 13.833 -179.5 41.5s-85.667 66.667 -110 117s-36.5 109.5 -36.5 177.5
c0 49.333 6.83301 104.5 20.5 165.5s32.334 115.333 56.001 163s51.334 89.334 83.001 125.001s66.5 65.167 104.5 88.5s78.5 40.833 121.5 52.5s88.5 17.5 136.5 17.5s89.333 -6.5 124 -19.5s64.667 -33.5 90 -61.5l14 7c-7.33301 130.667 -49 240.667 -125 330l-281 -136z
M256.001 272.999c0 -72 14.666 -124.999 43.999 -158.999s75 -51 137 -51c50 0 95.333 15.333 136 46s75.5 74.667 104.5 132s52 124.166 69 200.499s25.5 141.166 25.5 194.499c0 72 -14.5 126.167 -43.5 162.5s-72.5 54.5 -130.5 54.5
c-49.333 0 -94.166 -15.167 -134.499 -45.5s-75.833 -74.166 -106.5 -131.499s-55.167 -124.833 -73.5 -202.5s-27.5 -144.5 -27.5 -200.5zM626 972z" />
    <glyph glyph-name="ntilde" unicode="&#xf1;" horiz-adv-x="1096" 
d="M943 0h-315.003l127 508c8 32.667 15.833 68.667 23.5 108s11.5 74.666 11.5 105.999c0 47.333 -8.16699 81.333 -24.5 102s-41.833 31 -76.5 31c-28 0 -58.167 -10.833 -90.5 -32.5s-66.166 -54 -101.499 -97s-65.166 -86.667 -89.499 -131
s-43.166 -98.166 -56.499 -161.499l-91 -433h-173l152 683c3.33301 15.333 7.83301 38 13.5 68s8.5 55 8.5 75c0 18.667 -2.83301 33.167 -8.5 43.5s-15.334 18 -29.001 23s-36.834 8.5 -69.501 10.5l12 53l227 9h57l-67 -260l12 -4c65.333 92 128.333 160.167 189 204.5
s121.334 66.5 182.001 66.5c64.667 0 113.667 -17.833 147 -53.5s50 -88.5 50 -158.5c0 -24 -2.16699 -50.167 -6.5 -78.5s-9.16602 -53.5 -14.499 -75.5l-84 -356c-11.333 -48 -17 -86 -17 -114c0 -20 3.33301 -35.667 10 -47s17 -20 31 -26s37 -10.667 69 -14z
M979.997 1365l69 -48.001c-33.333 -50 -62.833 -88.667 -88.5 -116s-49.167 -46.333 -70.5 -57s-45 -16 -71 -16c-15.333 0 -29.333 2 -42 6s-24.5 9.33301 -35.5 16s-27.5 19.334 -49.5 38.001c-20 16 -34.333 27 -43 33s-17 10.5 -25 13.5s-16.333 4.5 -25 4.5
c-16.667 0 -31.667 -3.16699 -45 -9.5s-28 -17.833 -44 -34.5s-34 -39 -54 -67l-70 47c40.667 58 71.667 98.667 93 122s42.833 40.5 64.5 51.5s47.5 16.5 77.5 16.5c10.667 0 20.5 -1.16699 29.5 -3.5s17.833 -5.5 26.5 -9.5s16.334 -8.33301 23.001 -13
s19.667 -14.667 39 -30c27.333 -22.667 47.5 -37.5 60.5 -44.5s26.167 -10.5 39.5 -10.5c15.333 0 29.666 3.33301 42.999 10s28 18 44 34s34 38.333 54 67z" />
    <glyph glyph-name="ograve" unicode="&#xf2;" horiz-adv-x="1038" 
d="M409 -17c-103.333 0 -183.5 29 -240.5 87s-85.5 141.333 -85.5 250c0 40 5 87 15 141c12.667 70 30.667 132 54 186c30 67.333 68.5 125.5 115.5 174.5s101 86.333 162 112s126.5 38.5 196.5 38.5c76.667 0 139.5 -14.667 188.5 -44s84.5 -69.166 106.5 -119.499
s33 -108.5 33 -174.5c0 -59.333 -8.33301 -122.666 -25 -189.999c-24 -98.667 -59 -182.334 -105 -251.001s-103.667 -120.834 -173 -156.501s-150 -53.5 -242 -53.5zM258 277c0 -73.333 15.1689 -127.501 45.502 -162.501s76.166 -52.5 137.499 -52.5
c65.333 0 123.333 29.333 174 88s90.667 140.834 120 246.501s44 198.5 44 278.5c0 72 -14 126.167 -42 162.5s-71.667 54.5 -131 54.5c-69.333 0 -129.833 -29 -181.5 -87s-92.334 -141 -122.001 -249s-44.5 -201 -44.5 -279zM648.002 1442l133 -328l-71 -44l-235 322
l11 50h162z" />
    <glyph glyph-name="oacute" unicode="&#xf3;" horiz-adv-x="1038" 
d="M409 -17c-103.333 0 -183.5 29 -240.5 87s-85.5 141.333 -85.5 250c0 40 5 87 15 141c12.667 70 30.667 132 54 186c30 67.333 68.5 125.5 115.5 174.5s101 86.333 162 112s126.5 38.5 196.5 38.5c76.667 0 139.5 -14.667 188.5 -44s84.5 -69.166 106.5 -119.499
s33 -108.5 33 -174.5c0 -59.333 -8.33301 -122.666 -25 -189.999c-24 -98.667 -59 -182.334 -105 -251.001s-103.667 -120.834 -173 -156.501s-150 -53.5 -242 -53.5zM258 277c0 -73.333 15.1689 -127.501 45.502 -162.501s76.166 -52.5 137.499 -52.5
c65.333 0 123.333 29.333 174 88s90.667 140.834 120 246.501s44 198.5 44 278.5c0 72 -14 126.167 -42 162.5s-71.667 54.5 -131 54.5c-69.333 0 -129.833 -29 -181.5 -87s-92.334 -141 -122.001 -249s-44.5 -201 -44.5 -279zM982.002 1442l-11 -50l-374 -322l-62 60
l263 312h184z" />
    <glyph glyph-name="ocircumflex" unicode="&#xf4;" horiz-adv-x="1038" 
d="M409 -17c-103.333 0 -183.5 29 -240.5 87s-85.5 141.333 -85.5 250c0 40 5 87 15 141c12.667 70 30.667 132 54 186c30 67.333 68.5 125.5 115.5 174.5s101 86.333 162 112s126.5 38.5 196.5 38.5c76.667 0 139.5 -14.667 188.5 -44s84.5 -69.166 106.5 -119.499
s33 -108.5 33 -174.5c0 -59.333 -8.33301 -122.666 -25 -189.999c-24 -98.667 -59 -182.334 -105 -251.001s-103.667 -120.834 -173 -156.501s-150 -53.5 -242 -53.5zM258 277c0 -73.333 15.1689 -127.501 45.502 -162.501s76.166 -52.5 137.499 -52.5
c65.333 0 123.333 29.333 174 88s90.667 140.834 120 246.501s44 198.5 44 278.5c0 72 -14 126.167 -42 162.5s-71.667 54.5 -131 54.5c-69.333 0 -129.833 -29 -181.5 -87s-92.334 -141 -122.001 -249s-44.5 -201 -44.5 -279zM799.002 1432l132 -337l-79 -35l-138 243h-10
l-256 -243l-62 57l277 315h136z" />
    <glyph glyph-name="otilde" unicode="&#xf5;" horiz-adv-x="1038" 
d="M409 -17c-103.333 0 -183.5 29 -240.5 87s-85.5 141.333 -85.5 250c0 40 5 87 15 141c12.667 70 30.667 132 54 186c30 67.333 68.5 125.5 115.5 174.5s101 86.333 162 112s126.5 38.5 196.5 38.5c76.667 0 139.5 -14.667 188.5 -44s84.5 -69.166 106.5 -119.499
s33 -108.5 33 -174.5c0 -59.333 -8.33301 -122.666 -25 -189.999c-24 -98.667 -59 -182.334 -105 -251.001s-103.667 -120.834 -173 -156.501s-150 -53.5 -242 -53.5zM258 277c0 -73.333 15.1689 -127.501 45.502 -162.501s76.166 -52.5 137.499 -52.5
c65.333 0 123.333 29.333 174 88s90.667 140.834 120 246.501s44 198.5 44 278.5c0 72 -14 126.167 -42 162.5s-71.667 54.5 -131 54.5c-69.333 0 -129.833 -29 -181.5 -87s-92.334 -141 -122.001 -249s-44.5 -201 -44.5 -279zM951.002 1365l69 -48.001
c-33.333 -50 -62.833 -88.667 -88.5 -116s-49.167 -46.333 -70.5 -57s-45 -16 -71 -16c-15.333 0 -29.333 2 -42 6s-24.5 9.33301 -35.5 16s-27.5 19.334 -49.5 38.001c-20 16 -34.333 27 -43 33s-17 10.5 -25 13.5s-16.333 4.5 -25 4.5
c-16.667 0 -31.667 -3.16699 -45 -9.5s-28 -17.833 -44 -34.5s-34 -39 -54 -67l-70 47c40.667 58 71.667 98.667 93 122s42.833 40.5 64.5 51.5s47.5 16.5 77.5 16.5c10.667 0 20.5 -1.16699 29.5 -3.5s17.833 -5.5 26.5 -9.5s16.334 -8.33301 23.001 -13
s19.667 -14.667 39 -30c27.333 -22.667 47.5 -37.5 60.5 -44.5s26.167 -10.5 39.5 -10.5c15.333 0 29.666 3.33301 42.999 10s28 18 44 34s34 38.333 54 67z" />
    <glyph glyph-name="odieresis" unicode="&#xf6;" horiz-adv-x="1038" 
d="M409 -17c-103.333 0 -183.5 29 -240.5 87s-85.5 141.333 -85.5 250c0 40 5 87 15 141c12.667 70 30.667 132 54 186c30 67.333 68.5 125.5 115.5 174.5s101 86.333 162 112s126.5 38.5 196.5 38.5c76.667 0 139.5 -14.667 188.5 -44s84.5 -69.166 106.5 -119.499
s33 -108.5 33 -174.5c0 -59.333 -8.33301 -122.666 -25 -189.999c-24 -98.667 -59 -182.334 -105 -251.001s-103.667 -120.834 -173 -156.501s-150 -53.5 -242 -53.5zM258 277c0 -73.333 15.1689 -127.501 45.502 -162.501s76.166 -52.5 137.499 -52.5
c65.333 0 123.333 29.333 174 88s90.667 140.834 120 246.501s44 198.5 44 278.5c0 72 -14 126.167 -42 162.5s-71.667 54.5 -131 54.5c-69.333 0 -129.833 -29 -181.5 -87s-92.334 -141 -122.001 -249s-44.5 -201 -44.5 -279zM952.002 1339l-38 -176h-165l38 176h165z
M630.002 1339l-38 -176h-165l38 176h165z" />
    <glyph glyph-name="divide" unicode="&#xf7;" horiz-adv-x="1082" 
d="M633 1036c29.333 0 53.833 -10.167 73.5 -30.5s29.5 -46.166 29.5 -77.499s-9.83301 -57.166 -29.5 -77.499s-44.167 -30.5 -73.5 -30.5s-53.833 10.167 -73.5 30.5s-29.5 46.166 -29.5 77.499s9.83301 57.166 29.5 77.499s44.167 30.5 73.5 30.5zM137 518l30 135h826
l-30 -135h-826zM489 349c29.333 0 53.833 -10.167 73.5 -30.5s29.5 -46.166 29.5 -77.499s-9.83301 -57.166 -29.5 -77.499s-44.167 -30.5 -73.5 -30.5s-53.833 10.167 -73.5 30.5s-29.5 46.166 -29.5 77.499s9.83301 57.166 29.5 77.499s44.167 30.5 73.5 30.5z" />
    <glyph glyph-name="oslash" unicode="&#xf8;" horiz-adv-x="1038" 
d="M145 97c-41.333 57.333 -62 131.667 -62 223c0 40 5 87 15 141c12.667 70 30.667 132 54 186c30 67.333 68.5 125.5 115.5 174.5s101 86.333 162 112s126.5 38.5 196.5 38.5c74.667 0 138 -15 190 -45l134 165h129l-188 -232c42 -57.333 63 -132.666 63 -225.999
c0 -59.333 -8.33301 -122.666 -25 -189.999c-24 -98.667 -59 -182.334 -105 -251.001s-103.667 -120.834 -173 -156.501s-150 -53.5 -242 -53.5c-74 0 -137.333 15.333 -190 46l-133 -164h-129zM256 230.001l484 603c-27.333 39.333 -72 59 -134 59
c-70 0 -131.167 -29.167 -183.5 -87.5s-93.333 -141.333 -123 -249s-44.5 -200.5 -44.5 -278.5v-26c0 -8 0.333008 -15 1 -21zM779 727.001l-483.001 -602.999c29.333 -41.333 77.666 -62 144.999 -62c47.333 0 90.833 15.333 130.5 46s74.834 75 105.501 133
s55.834 128.833 75.501 212.5s29.5 157.5 29.5 221.5c0 19.333 -1 36.666 -3 51.999z" />
    <glyph glyph-name="ugrave" unicode="&#xf9;" horiz-adv-x="1096" 
d="M153 956l314.998 0.00195312l-127 -509c-9.33301 -37.333 -17.5 -74.5 -24.5 -111.5s-10.5 -70.833 -10.5 -101.5c0 -47.333 8.16699 -81.333 24.5 -102s41.833 -31 76.5 -31c28.667 0 59.667 11.167 93 33.5s68.666 57 105.999 104s66.833 91.5 88.5 133.5
s38.5 92 50.5 150l91 434h173l-152 -683c-4 -18 -8.66699 -41.667 -14 -71s-8 -53.333 -8 -72c0 -28 7.83301 -47.833 23.5 -59.5s44.834 -18.834 87.501 -21.501l-11 -49h-286l64 251l-13 4c-64.667 -92 -127.167 -160.167 -187.5 -204.5s-121.166 -66.5 -182.499 -66.5
c-64.667 0 -113.667 17.833 -147 53.5s-50 88.5 -50 158.5c0 20 1.83301 43.5 5.5 70.5s8.83398 55.167 15.501 84.5l84 355c6.66699 29.333 11.167 52.666 13.5 69.999s3.5 32 3.5 44c0 30 -8 51 -24 63s-44.667 19.667 -86 23zM626.998 1442l133 -328l-71 -44l-235 322
l11 50h162z" />
    <glyph glyph-name="uacute" unicode="&#xfa;" horiz-adv-x="1096" 
d="M153 956l314.998 0.00195312l-127 -509c-9.33301 -37.333 -17.5 -74.5 -24.5 -111.5s-10.5 -70.833 -10.5 -101.5c0 -47.333 8.16699 -81.333 24.5 -102s41.833 -31 76.5 -31c28.667 0 59.667 11.167 93 33.5s68.666 57 105.999 104s66.833 91.5 88.5 133.5
s38.5 92 50.5 150l91 434h173l-152 -683c-4 -18 -8.66699 -41.667 -14 -71s-8 -53.333 -8 -72c0 -28 7.83301 -47.833 23.5 -59.5s44.834 -18.834 87.501 -21.501l-11 -49h-286l64 251l-13 4c-64.667 -92 -127.167 -160.167 -187.5 -204.5s-121.166 -66.5 -182.499 -66.5
c-64.667 0 -113.667 17.833 -147 53.5s-50 88.5 -50 158.5c0 20 1.83301 43.5 5.5 70.5s8.83398 55.167 15.501 84.5l84 355c6.66699 29.333 11.167 52.666 13.5 69.999s3.5 32 3.5 44c0 30 -8 51 -24 63s-44.667 19.667 -86 23zM1011 1442l-11 -50l-374 -322l-62 60
l263 312h184z" />
    <glyph glyph-name="ucircumflex" unicode="&#xfb;" horiz-adv-x="1096" 
d="M153 956l314.998 0.00195312l-127 -509c-9.33301 -37.333 -17.5 -74.5 -24.5 -111.5s-10.5 -70.833 -10.5 -101.5c0 -47.333 8.16699 -81.333 24.5 -102s41.833 -31 76.5 -31c28.667 0 59.667 11.167 93 33.5s68.666 57 105.999 104s66.833 91.5 88.5 133.5
s38.5 92 50.5 150l91 434h173l-152 -683c-4 -18 -8.66699 -41.667 -14 -71s-8 -53.333 -8 -72c0 -28 7.83301 -47.833 23.5 -59.5s44.834 -18.834 87.501 -21.501l-11 -49h-286l64 251l-13 4c-64.667 -92 -127.167 -160.167 -187.5 -204.5s-121.166 -66.5 -182.499 -66.5
c-64.667 0 -113.667 17.833 -147 53.5s-50 88.5 -50 158.5c0 20 1.83301 43.5 5.5 70.5s8.83398 55.167 15.501 84.5l84 355c6.66699 29.333 11.167 52.666 13.5 69.999s3.5 32 3.5 44c0 30 -8 51 -24 63s-44.667 19.667 -86 23zM827.998 1432l132 -337l-79 -35l-138 243
h-10l-256 -243l-62 57l277 315h136z" />
    <glyph glyph-name="udieresis" unicode="&#xfc;" horiz-adv-x="1096" 
d="M153 956l314.998 0.00195312l-127 -509c-9.33301 -37.333 -17.5 -74.5 -24.5 -111.5s-10.5 -70.833 -10.5 -101.5c0 -47.333 8.16699 -81.333 24.5 -102s41.833 -31 76.5 -31c28.667 0 59.667 11.167 93 33.5s68.666 57 105.999 104s66.833 91.5 88.5 133.5
s38.5 92 50.5 150l91 434h173l-152 -683c-4 -18 -8.66699 -41.667 -14 -71s-8 -53.333 -8 -72c0 -28 7.83301 -47.833 23.5 -59.5s44.834 -18.834 87.501 -21.501l-11 -49h-286l64 251l-13 4c-64.667 -92 -127.167 -160.167 -187.5 -204.5s-121.166 -66.5 -182.499 -66.5
c-64.667 0 -113.667 17.833 -147 53.5s-50 88.5 -50 158.5c0 20 1.83301 43.5 5.5 70.5s8.83398 55.167 15.501 84.5l84 355c6.66699 29.333 11.167 52.666 13.5 69.999s3.5 32 3.5 44c0 30 -8 51 -24 63s-44.667 19.667 -86 23zM980.998 1339l-38 -176h-165l38 176h165z
M658.998 1339l-38 -176h-165l38 176h165z" />
    <glyph glyph-name="yacute" unicode="&#xfd;" horiz-adv-x="942" 
d="M185 738c-6.66699 50.667 -12.998 85.835 -18.998 105.502s-15.667 34.667 -29 45s-35 16.5 -65 18.5l11 49h257l76 -795c225.333 308 338 528.667 338 662c0 31.333 -6.66699 52.666 -20 63.999s-36 18 -68 20l10 49h258l27 -50
c-35.333 -92.667 -80.5 -188.667 -135.5 -288s-122.333 -208 -202 -326s-168.167 -240.667 -265.5 -368c-74.667 -98 -137.334 -172 -188.001 -222c-39.333 -38 -75.5 -66.833 -108.5 -86.5s-65 -33.667 -96 -42s-63.833 -12.5 -98.5 -12.5c-18 0 -38.333 1.83301 -61 5.5
s-42 8.5 -58 14.5l43 187h78c0.666992 -22.667 6 -40.667 16 -54s24.667 -20 44 -20c21.333 0 39.666 2.16699 54.999 6.5s31.5 11.5 48.5 21.5s37.667 26 62 48s51.833 51.167 82.5 87.5s65 80.166 103 131.499zM919.002 1442l-11 -50l-374 -322l-62 60l263 312h184z" />
    <glyph glyph-name="thorn" unicode="&#xfe;" horiz-adv-x="1067" 
d="M202 -177c-6.66699 -32 -10.8311 -56.6631 -12.498 -73.9961s-2.5 -31.666 -2.5 -42.999c0 -20 3.33301 -35.667 10 -47s17 -20 31 -26s37 -10.667 69 -14l-8 -49h-309l356 1573c4 16.667 8.83301 40.667 14.5 72s8.5 56.666 8.5 75.999c0 28 -8.5 47.667 -25.5 59
s-47.5 17.666 -91.5 18.999l12 52l253 9h58l-176 -700l13 -4c64 86 124.167 148.5 180.5 187.5s113.5 58.5 171.5 58.5c72.667 0 129.167 -27.667 169.5 -83s60.5 -133.333 60.5 -234c0 -72 -9.83301 -144.333 -29.5 -217s-47 -138.334 -82 -197.001
s-74 -106.834 -117 -144.501s-88.333 -65.834 -136 -84.501s-97.834 -28 -150.501 -28c-88.667 0 -162.334 19.333 -221.001 58zM322.003 348.004c-6.66699 -35.333 -10.833 -62.332 -12.5 -80.999s-2.5 -37 -2.5 -55c0 -52 11.167 -89.833 33.5 -113.5
s60.833 -35.5 115.5 -35.5c34 0 65.333 6.66699 94 20s55.834 32.666 81.501 57.999s48.834 56 69.501 92s39.167 77.833 55.5 125.5s28.666 96.667 36.999 147s12.5 97.5 12.5 141.5c0 70 -9.83301 122.167 -29.5 156.5s-50.834 51.5 -93.501 51.5
c-34 0 -67.5 -11.5 -100.5 -34.5s-69.167 -59.833 -108.5 -110.5s-70 -100.667 -92 -150s-39.333 -106 -52 -170z" />
    <glyph glyph-name="ydieresis" unicode="&#xff;" horiz-adv-x="942" 
d="M185 738c-6.66699 50.667 -12.998 85.835 -18.998 105.502s-15.667 34.667 -29 45s-35 16.5 -65 18.5l11 49h257l76 -795c225.333 308 338 528.667 338 662c0 31.333 -6.66699 52.666 -20 63.999s-36 18 -68 20l10 49h258l27 -50
c-35.333 -92.667 -80.5 -188.667 -135.5 -288s-122.333 -208 -202 -326s-168.167 -240.667 -265.5 -368c-74.667 -98 -137.334 -172 -188.001 -222c-39.333 -38 -75.5 -66.833 -108.5 -86.5s-65 -33.667 -96 -42s-63.833 -12.5 -98.5 -12.5c-18 0 -38.333 1.83301 -61 5.5
s-42 8.5 -58 14.5l43 187h78c0.666992 -22.667 6 -40.667 16 -54s24.667 -20 44 -20c21.333 0 39.666 2.16699 54.999 6.5s31.5 11.5 48.5 21.5s37.667 26 62 48s51.833 51.167 82.5 87.5s65 80.166 103 131.499zM889.002 1339l-38 -176h-165l38 176h165zM567.002 1339
l-38 -176h-165l38 176h165z" />
    <glyph glyph-name="Amacron" unicode="&#x100;" horiz-adv-x="1205" 
d="M678 0l11 48.998c30 2.66699 53.5 11.334 70.5 26.001s29 35 36 61s10.5 60.333 10.5 103c0 26 -1 54.333 -3 85l-7 129h-440l-55 -98c-26 -46 -45 -85.5 -57 -118.5s-18 -62.167 -18 -87.5c0 -56 33.667 -89.333 101 -100l-11 -49h-409l11 49
c20.667 2.66699 40.167 10.834 58.5 24.501s37.833 34.334 58.5 62.001s49.667 73.5 87 137.5l641 1108h151l72 -1115c3.33301 -52.667 9.33301 -93.834 18 -123.501s20.5 -51.667 35.5 -66s36.833 -23.5 65.5 -27.5l-11 -49h-416zM401 539.998h391l-17 322
c-2 44 -3.66699 99 -5 165s-2 113.667 -2 143h-11zM1135 1538h-530l26 125h530z" />
    <glyph glyph-name="amacron" unicode="&#x101;" horiz-adv-x="1077" 
d="M834 907l92 65.998l64 -16l-153 -679c-9.33301 -40 -15.666 -70.833 -18.999 -92.5s-5 -39.5 -5 -53.5c0 -27.333 7.66699 -47.166 23 -59.499s44.666 -20.166 87.999 -23.499l-9 -49h-286l63 251l-13 4c-64 -93.333 -124.667 -161.666 -182 -204.999s-118 -65 -182 -65
c-73.333 0 -130.166 27.667 -170.499 83s-60.5 133 -60.5 233c0 64 7.33301 128.167 22 192.5s36.834 125.333 66.501 183s65.167 108.5 106.5 152.5s89.166 79 143.499 105s113.5 39 177.5 39c41.333 0 80.666 -4.83301 117.999 -14.5s76 -26.834 116 -51.501zM746 608.998
c6 27.333 10.002 51 12.002 71s3 41.667 3 65c0 52 -11 89.833 -33 113.5s-58.667 35.5 -110 35.5c-28 0 -54.667 -4.5 -80 -13.5s-51 -24 -77 -45s-50.833 -48.5 -74.5 -82.5s-45.167 -75.333 -64.5 -124s-34.333 -100.834 -45 -156.501s-16 -109.834 -16 -162.501
c0 -69.333 9.5 -121.166 28.5 -155.499s50.833 -51.5 95.5 -51.5c20.667 0 42.167 4.66699 64.5 14s47.166 26.5 74.499 51.5s58.333 61.833 93 110.5c31.333 44.667 56.166 88.834 74.499 132.501s33.5 95.167 45.5 154.5zM946.002 1188h-501l26 125h501z" />
    <glyph glyph-name="Abreve" unicode="&#x102;" horiz-adv-x="1205" 
d="M678 0l11 48.998c30 2.66699 53.5 11.334 70.5 26.001s29 35 36 61s10.5 60.333 10.5 103c0 26 -1 54.333 -3 85l-7 129h-440l-55 -98c-26 -46 -45 -85.5 -57 -118.5s-18 -62.167 -18 -87.5c0 -56 33.667 -89.333 101 -100l-11 -49h-409l11 49
c20.667 2.66699 40.167 10.834 58.5 24.501s37.833 34.334 58.5 62.001s49.667 73.5 87 137.5l641 1108h151l72 -1115c3.33301 -52.667 9.33301 -93.834 18 -123.501s20.5 -51.667 35.5 -66s36.833 -23.5 65.5 -27.5l-11 -49h-416zM401 539.998h391l-17 322
c-2 44 -3.66699 99 -5 165s-2 113.667 -2 143h-11zM1217 1748c-40.667 -62 -79.998 -111.667 -117.998 -149s-77.333 -64.5 -118 -81.5s-89.334 -25.5 -146.001 -25.5c-48 0 -88.167 12.5 -120.5 37.5s-56.333 59.5 -72 103.5s-23.5 94 -23.5 150l81 15
c5.33301 -61.333 21.166 -106.5 47.499 -135.5s63.5 -43.5 111.5 -43.5c38.667 0 72.5 4.83301 101.5 14.5s58.667 27 89 52s62.5 59.833 96.5 104.5z" />
    <glyph glyph-name="abreve" unicode="&#x103;" horiz-adv-x="1077" 
d="M834 907l92 65.998l64 -16l-153 -679c-9.33301 -40 -15.666 -70.833 -18.999 -92.5s-5 -39.5 -5 -53.5c0 -27.333 7.66699 -47.166 23 -59.499s44.666 -20.166 87.999 -23.499l-9 -49h-286l63 251l-13 4c-64 -93.333 -124.667 -161.666 -182 -204.999s-118 -65 -182 -65
c-73.333 0 -130.166 27.667 -170.499 83s-60.5 133 -60.5 233c0 64 7.33301 128.167 22 192.5s36.834 125.333 66.501 183s65.167 108.5 106.5 152.5s89.166 79 143.499 105s113.5 39 177.5 39c41.333 0 80.666 -4.83301 117.999 -14.5s76 -26.834 116 -51.501zM746 608.998
c6 27.333 10.002 51 12.002 71s3 41.667 3 65c0 52 -11 89.833 -33 113.5s-58.667 35.5 -110 35.5c-28 0 -54.667 -4.5 -80 -13.5s-51 -24 -77 -45s-50.833 -48.5 -74.5 -82.5s-45.167 -75.333 -64.5 -124s-34.333 -100.834 -45 -156.501s-16 -109.834 -16 -162.501
c0 -69.333 9.5 -121.166 28.5 -155.499s50.833 -51.5 95.5 -51.5c20.667 0 42.167 4.66699 64.5 14s47.166 26.5 74.499 51.5s58.333 61.833 93 110.5c31.333 44.667 56.166 88.834 74.499 132.501s33.5 95.167 45.5 154.5zM1030 1369
c-38.667 -65.333 -77.501 -116.499 -116.501 -153.499s-78.667 -63.333 -119 -79s-85.833 -23.5 -136.5 -23.5c-67.333 0 -119.333 25.5 -156 76.5s-55 122.833 -55 215.5l81 15c8 -120 59 -180 153 -180c38.667 0 72.167 5 100.5 15s56.833 27.167 85.5 51.5
s59.334 59.166 92.001 104.499z" />
    <glyph glyph-name="Aogonek" unicode="&#x104;" horiz-adv-x="1205" 
d="M987 0c-74 -56.667 -125.833 -104.67 -155.5 -144.003s-44.5 -76.333 -44.5 -111c0 -32 6.66699 -54.167 20 -66.5s34 -18.5 62 -18.5c22 0 42.5 3.5 61.5 10.5s35.833 14.833 50.5 23.5l16 -68c-24 -16.667 -51.667 -30.167 -83 -40.5s-60 -15.5 -86 -15.5
c-58 0 -101.333 12.833 -130 38.5s-43 65.167 -43 118.5c0 44 20.167 89.333 60.5 136s98.833 92.334 175.5 137.001h-213l11 49c30 2.66699 53.5 11.334 70.5 26.001s29 35 36 61s10.5 60.333 10.5 103c0 26 -1 54.333 -3 85l-7 129h-440l-55 -98
c-26 -46 -45 -85.5 -57 -118.5s-18 -62.167 -18 -87.5c0 -56 33.667 -89.333 101 -100l-11 -49h-409l11 49c20.667 2.66699 40.167 10.834 58.5 24.501s37.833 34.334 58.5 62.001s49.667 73.5 87 137.5l641 1108h151l72 -1115c3.33301 -52.667 9.33301 -93.834 18 -123.501
s20.5 -51.667 35.5 -66s36.833 -23.5 65.5 -27.5l-11 -49h-107zM401 539.997h391l-17 322c-2 44 -3.66699 99 -5 165s-2 113.667 -2 143h-11z" />
    <glyph glyph-name="aogonek" unicode="&#x105;" horiz-adv-x="1077" 
d="M834 907l92 65.9971l64 -16l-153 -679c-9.33301 -40 -15.666 -70.833 -18.999 -92.5s-5 -39.5 -5 -53.5c0 -27.333 7.66699 -47.166 23 -59.499s44.666 -20.166 87.999 -23.499l-9 -49h-86c-74 -56.667 -125.833 -104.667 -155.5 -144s-44.5 -76.333 -44.5 -111
c0 -32 6.66699 -54.167 20 -66.5s34 -18.5 62 -18.5c22 0 42.5 3.5 61.5 10.5s35.833 14.833 50.5 23.5l16 -68c-24 -16.667 -51.667 -30.167 -83 -40.5s-60 -15.5 -86 -15.5c-58 0 -101.333 12.833 -130 38.5s-43 65.167 -43 118.5c0 44 20.167 89.333 60.5 136
s98.833 92.334 175.5 137.001h-104l63 251l-13 4c-64 -93.333 -124.667 -161.666 -182 -204.999s-118 -65 -182 -65c-73.333 0 -130.166 27.667 -170.499 83s-60.5 133 -60.5 233c0 64 7.33301 128.167 22 192.5s36.834 125.333 66.501 183s65.167 108.5 106.5 152.5
s89.166 79 143.499 105s113.5 39 177.5 39c41.333 0 80.666 -4.83301 117.999 -14.5s76 -26.834 116 -51.501zM746 608.997c6 27.333 10.002 51 12.002 71s3 41.667 3 65c0 52 -11 89.833 -33 113.5s-58.667 35.5 -110 35.5c-28 0 -54.667 -4.5 -80 -13.5s-51 -24 -77 -45
s-50.833 -48.5 -74.5 -82.5s-45.167 -75.333 -64.5 -124s-34.333 -100.834 -45 -156.501s-16 -109.834 -16 -162.501c0 -69.333 9.5 -121.166 28.5 -155.499s50.833 -51.5 95.5 -51.5c20.667 0 42.167 4.66699 64.5 14s47.166 26.5 74.499 51.5s58.333 61.833 93 110.5
c31.333 44.667 56.166 88.834 74.499 132.501s33.5 95.167 45.5 154.5z" />
    <glyph glyph-name="Cacute" unicode="&#x106;" horiz-adv-x="1105" 
d="M1184 1330l-60.0029 -271h-96c-5.33301 82 -23.166 141.167 -53.499 177.5s-79.166 54.5 -146.499 54.5c-56 0 -108.667 -16.5 -158 -49.5s-96 -80.667 -140 -143s-82.333 -135.333 -115 -219s-57.667 -169 -75 -256s-26 -165.5 -26 -235.5
c0 -108.667 17.833 -188.5 53.5 -239.5s91.5 -76.5 167.5 -76.5c50 0 93.667 7.5 131 22.5s72.333 40.333 105 76s65 85.5 97 149.5h96l-61 -284c-68 -18.667 -133.667 -32 -197 -40s-128.333 -12 -195 -12c-82.667 0 -153 17.167 -211 51.5s-101.667 84 -131 149
s-44 143.167 -44 234.5c0 48 3.33301 94.667 10 140c8 56 20.667 117 38 183c22 82 49.667 156.667 83 224c36 71.333 77 134.333 123 189c43.333 50.667 90.333 93 141 127c46.667 31.333 97 55.666 151 72.999s111.333 26 172 26s116.834 -3.66699 168.501 -11
s109.167 -20.666 172.5 -39.999zM1182 1782l-11 -50l-425 -268l-50 71l268 247h218z" />
    <glyph glyph-name="cacute" unicode="&#x107;" horiz-adv-x="887" 
d="M735 716c-1.33301 50.667 -5.49609 87.335 -12.4961 110.002s-18.333 39.667 -34 51s-37.834 17 -66.501 17c-67.333 0 -127.833 -26.833 -181.5 -80.5s-97.5 -129.667 -131.5 -228s-51 -192.833 -51 -283.5c0 -28 2.5 -54.333 7.5 -79s13.667 -46 26 -64
s28.666 -32.167 48.999 -42.5s46.166 -15.5 77.499 -15.5c60.667 0 113.167 11.5 157.5 34.5s91.166 59.167 140.499 108.5l61 -61c-62.667 -69.333 -125.834 -120 -189.501 -152s-132.167 -48 -205.5 -48c-96.667 0 -170 28.667 -220 86s-75 140.666 -75 249.999
c0 71.333 13.333 149.666 40 234.999s65.667 160.333 117 225s111.333 113 180 145s142 48 220 48c53.333 0 99.833 -3 139.5 -9s74.834 -13 105.501 -21l-49 -226h-105zM939.004 1442l-11 -50l-374 -322l-62 60l263 312h184z" />
    <glyph glyph-name="Ccircumflex" unicode="&#x108;" horiz-adv-x="1105" 
d="M1184 1330l-60.0029 -271h-96c-5.33301 82 -23.166 141.167 -53.499 177.5s-79.166 54.5 -146.499 54.5c-56 0 -108.667 -16.5 -158 -49.5s-96 -80.667 -140 -143s-82.333 -135.333 -115 -219s-57.667 -169 -75 -256s-26 -165.5 -26 -235.5
c0 -108.667 17.833 -188.5 53.5 -239.5s91.5 -76.5 167.5 -76.5c50 0 93.667 7.5 131 22.5s72.333 40.333 105 76s65 85.5 97 149.5h96l-61 -284c-68 -18.667 -133.667 -32 -197 -40s-128.333 -12 -195 -12c-82.667 0 -153 17.167 -211 51.5s-101.667 84 -131 149
s-44 143.167 -44 234.5c0 48 3.33301 94.667 10 140c8 56 20.667 117 38 183c22 82 49.667 156.667 83 224c36 71.333 77 134.333 123 189c43.333 50.667 90.333 93 141 127c46.667 31.333 97 55.666 151 72.999s111.333 26 172 26s116.834 -3.66699 168.501 -11
s109.167 -20.666 172.5 -39.999zM971.997 1780l161 -261l-66 -50l-180 182h-10l-263 -183l-52 62l274 250h136z" />
    <glyph glyph-name="ccircumflex" unicode="&#x109;" horiz-adv-x="887" 
d="M735 716c-1.33301 50.667 -5.49609 87.335 -12.4961 110.002s-18.333 39.667 -34 51s-37.834 17 -66.501 17c-67.333 0 -127.833 -26.833 -181.5 -80.5s-97.5 -129.667 -131.5 -228s-51 -192.833 -51 -283.5c0 -28 2.5 -54.333 7.5 -79s13.667 -46 26 -64
s28.666 -32.167 48.999 -42.5s46.166 -15.5 77.499 -15.5c60.667 0 113.167 11.5 157.5 34.5s91.166 59.167 140.499 108.5l61 -61c-62.667 -69.333 -125.834 -120 -189.501 -152s-132.167 -48 -205.5 -48c-96.667 0 -170 28.667 -220 86s-75 140.666 -75 249.999
c0 71.333 13.333 149.666 40 234.999s65.667 160.333 117 225s111.333 113 180 145s142 48 220 48c53.333 0 99.833 -3 139.5 -9s74.834 -13 105.501 -21l-49 -226h-105zM746.004 1432l132 -337l-79 -35l-138 243h-10l-256 -243l-62 57l277 315h136z" />
    <glyph glyph-name="Cdotaccent" unicode="&#x10a;" horiz-adv-x="1105" 
d="M1184 1330l-60.0029 -271h-96c-5.33301 82 -23.166 141.167 -53.499 177.5s-79.166 54.5 -146.499 54.5c-56 0 -108.667 -16.5 -158 -49.5s-96 -80.667 -140 -143s-82.333 -135.333 -115 -219s-57.667 -169 -75 -256s-26 -165.5 -26 -235.5
c0 -108.667 17.833 -188.5 53.5 -239.5s91.5 -76.5 167.5 -76.5c50 0 93.667 7.5 131 22.5s72.333 40.333 105 76s65 85.5 97 149.5h96l-61 -284c-68 -18.667 -133.667 -32 -197 -40s-128.333 -12 -195 -12c-82.667 0 -153 17.167 -211 51.5s-101.667 84 -131 149
s-44 143.167 -44 234.5c0 48 3.33301 94.667 10 140c8 56 20.667 117 38 183c22 82 49.667 156.667 83 224c36 71.333 77 134.333 123 189c43.333 50.667 90.333 93 141 127c46.667 31.333 97 55.666 151 72.999s111.333 26 172 26s116.834 -3.66699 168.501 -11
s109.167 -20.666 172.5 -39.999zM976.997 1699l-46 -194h-177l46 194h177z" />
    <glyph glyph-name="cdotaccent" unicode="&#x10b;" horiz-adv-x="887" 
d="M735 716c-1.33301 50.667 -5.49609 87.335 -12.4961 110.002s-18.333 39.667 -34 51s-37.834 17 -66.501 17c-67.333 0 -127.833 -26.833 -181.5 -80.5s-97.5 -129.667 -131.5 -228s-51 -192.833 -51 -283.5c0 -28 2.5 -54.333 7.5 -79s13.667 -46 26 -64
s28.666 -32.167 48.999 -42.5s46.166 -15.5 77.499 -15.5c60.667 0 113.167 11.5 157.5 34.5s91.166 59.167 140.499 108.5l61 -61c-62.667 -69.333 -125.834 -120 -189.501 -152s-132.167 -48 -205.5 -48c-96.667 0 -170 28.667 -220 86s-75 140.666 -75 249.999
c0 71.333 13.333 149.666 40 234.999s65.667 160.333 117 225s111.333 113 180 145s142 48 220 48c53.333 0 99.833 -3 139.5 -9s74.834 -13 105.501 -21l-49 -226h-105zM747.004 1348l-46 -194h-177l46 194h177z" />
    <glyph glyph-name="Ccaron" unicode="&#x10c;" horiz-adv-x="1105" 
d="M1184 1330l-60.0029 -271h-96c-5.33301 82 -23.166 141.167 -53.499 177.5s-79.166 54.5 -146.499 54.5c-56 0 -108.667 -16.5 -158 -49.5s-96 -80.667 -140 -143s-82.333 -135.333 -115 -219s-57.667 -169 -75 -256s-26 -165.5 -26 -235.5
c0 -108.667 17.833 -188.5 53.5 -239.5s91.5 -76.5 167.5 -76.5c50 0 93.667 7.5 131 22.5s72.333 40.333 105 76s65 85.5 97 149.5h96l-61 -284c-68 -18.667 -133.667 -32 -197 -40s-128.333 -12 -195 -12c-82.667 0 -153 17.167 -211 51.5s-101.667 84 -131 149
s-44 143.167 -44 234.5c0 48 3.33301 94.667 10 140c8 56 20.667 117 38 183c22 82 49.667 156.667 83 224c36 71.333 77 134.333 123 189c43.333 50.667 90.333 93 141 127c46.667 31.333 97 55.666 151 72.999s111.333 26 172 26s116.834 -3.66699 168.501 -11
s109.167 -20.666 172.5 -39.999zM766.997 1468l-161 261l66 50l180 -182h10l263 183l52 -62l-274 -250h-136z" />
    <glyph glyph-name="ccaron" unicode="&#x10d;" horiz-adv-x="887" 
d="M735 716c-1.33301 50.667 -5.49609 87.335 -12.4961 110.002s-18.333 39.667 -34 51s-37.834 17 -66.501 17c-67.333 0 -127.833 -26.833 -181.5 -80.5s-97.5 -129.667 -131.5 -228s-51 -192.833 -51 -283.5c0 -28 2.5 -54.333 7.5 -79s13.667 -46 26 -64
s28.666 -32.167 48.999 -42.5s46.166 -15.5 77.499 -15.5c60.667 0 113.167 11.5 157.5 34.5s91.166 59.167 140.499 108.5l61 -61c-62.667 -69.333 -125.834 -120 -189.501 -152s-132.167 -48 -205.5 -48c-96.667 0 -170 28.667 -220 86s-75 140.666 -75 249.999
c0 71.333 13.333 149.666 40 234.999s65.667 160.333 117 225s111.333 113 180 145s142 48 220 48c53.333 0 99.833 -3 139.5 -9s74.834 -13 105.501 -21l-49 -226h-105zM539.004 1080l-132 335l78 37l138 -243h10l256 243l63 -57l-278 -315h-135z" />
    <glyph glyph-name="Dcaron" unicode="&#x10e;" horiz-adv-x="1324" 
d="M683 1365c100.667 0 182.335 -7.66602 245.002 -22.999s121.167 -43 175.5 -83s95.166 -93.167 122.499 -159.5s41 -144.833 41 -235.5c0 -90 -10.333 -176 -31 -258s-50.334 -157.5 -89.001 -226.5s-85 -129 -139 -180s-106.333 -90.167 -157 -117.5
s-107.334 -47.833 -170.001 -61.5s-135.667 -20.5 -219 -20.5h-420l11 49c25.333 4 44.333 10.5 57 19.5s23.334 21.5 32.001 37.5s16.667 35.5 24 58.5s18.333 67.5 33 133.5l170 770c6.66699 30.667 12 60.167 16 88.5s6 52.5 6 72.5c0 31.333 -8 53.166 -24 65.499
s-40.667 19.5 -74 21.5l11 49h379zM332.001 92.001c19.333 -2 56.333 -2.99902 111 -2.99902c67.333 0 128.5 7.33301 183.5 22s105.667 38.167 152 70.5s88.5 75.5 126.5 129.5s68.833 108.833 92.5 164.5s42.167 115.5 55.5 179.5s20 131.667 20 203
c0 139.333 -32.5 244.166 -97.5 314.499s-161.5 105.5 -289.5 105.5c-29.333 0 -61 -1 -95 -3zM797.001 1468l-161 261l66 50l180 -182h10l263 183l52 -62l-274 -250h-136z" />
    <glyph glyph-name="dcaron" unicode="&#x10f;" horiz-adv-x="1305" 
d="M870 1148c5.33301 22 9.99902 46.3301 13.999 72.9971s6 50 6 70s-3.66699 35.167 -11 45.5s-17.833 17.833 -31.5 22.5s-38.167 8 -73.5 10l12 52l251 9h59l-259 -1152c-9.33301 -42 -15.666 -73.333 -18.999 -94s-5 -38 -5 -52c0 -27.333 7.66699 -47.166 23 -59.499
s44.666 -20.166 87.999 -23.499l-9 -49h-286l63 251l-13 4c-64 -93.333 -124.667 -161.666 -182 -204.999s-118 -65 -182 -65c-73.333 0 -130.166 27.667 -170.499 83s-60.5 133 -60.5 233c0 64 7.33301 128.167 22 192.5s36.834 125.333 66.501 183
s65.167 108.5 106.5 152.5s89.166 79 143.499 105s113.5 39 177.5 39c40.667 0 78.167 -4.16699 112.5 -12.5s69.5 -22.833 105.5 -43.5zM745.999 608.997c10 48 15.002 93.333 15.002 136c0 52 -11 89.833 -33 113.5s-58.667 35.5 -110 35.5c-28 0 -54.667 -4.5 -80 -13.5
s-51 -24 -77 -45s-50.833 -48.5 -74.5 -82.5s-45.167 -75.333 -64.5 -124s-34.333 -100.834 -45 -156.501s-16 -109.834 -16 -162.501c0 -69.333 9.5 -121.166 28.5 -155.499s50.833 -51.5 95.5 -51.5c20.667 0 42.167 4.66699 64.5 14s47.166 26.5 74.499 51.5
s58.333 61.833 93 110.5c31.333 44.667 56.166 88.834 74.499 132.501s33.5 95.167 45.5 154.5zM1452 1431c1.33301 -6.66699 2.00098 -23 2.00098 -49c0 -46.667 -4.83301 -87 -14.5 -121s-24 -64.667 -43 -92s-43.333 -54.333 -73 -81s-73.834 -61.667 -132.501 -105
l-47 62c51.333 42 89.833 93.667 115.5 155s38.5 138.333 38.5 231h154z" />
    <glyph glyph-name="Dcroat" unicode="&#x110;" horiz-adv-x="1330" 
d="M122 761l185.001 0.000976562l68 307c6.66699 30 12 59.333 16 88s6 53 6 73c0 31.333 -8 53.166 -24 65.499s-40.667 19.5 -74 21.5l11 49h379c100.667 0 182.334 -7.66699 245.001 -23s121.167 -43 175.5 -83s95.166 -93.167 122.499 -159.5s41 -144.833 41 -235.5
c0 -90 -10.333 -176 -31 -258s-50.334 -157.5 -89.001 -226.5s-85 -129 -139 -180s-106.333 -90.167 -157 -117.5s-107.334 -47.833 -170.001 -61.5s-135.667 -20.5 -219 -20.5h-420l11 49c25.333 4 44.333 10.5 57 19.5s23.334 21.5 32.001 37.5s16.667 35.5 24 58.5
s18.333 67.5 33 133.5l82 371h-185zM484.001 761.001l304 0.000976562l-20 -92h-304l-126 -577c19.333 -2 56.333 -3 111 -3c67.333 0 128.5 7.33301 183.5 22s105.667 38.167 152 70.5s88.5 75.5 126.5 129.5s68.833 108.833 92.5 164.5s42.167 115.5 55.5 179.5
s20 131.667 20 203c0 139.333 -32.5 244.166 -97.5 314.499s-161.5 105.5 -289.5 105.5c-29.333 0 -61 -1 -95 -3z" />
    <glyph glyph-name="dcroat" unicode="&#x111;" horiz-adv-x="1073" 
d="M565 1218l318.001 -0.00488281c4.66699 24 7 48.667 7 74c0 20 -3.66699 35.167 -11 45.5s-17.833 17.833 -31.5 22.5s-38.167 8 -73.5 10l12 52l251 9h59l-48 -213h139l-19 -88h-140l-191 -852c-8.66699 -39.333 -14.834 -69.666 -18.501 -90.999
s-5.5 -39.666 -5.5 -54.999c0 -27.333 7.66699 -47.166 23 -59.499s44.666 -20.166 87.999 -23.499l-9 -49h-286l63 251l-13 4c-64 -93.333 -124.667 -161.666 -182 -204.999s-118 -65 -182 -65c-73.333 0 -130.166 27.667 -170.499 83s-60.5 133 -60.5 233
c0 64 7.33301 128.167 22 192.5s36.834 125.333 66.501 183s65.167 108.5 106.5 152.5s89.166 79 143.499 105s113.5 39 177.5 39c40.667 0 78.167 -4.16699 112.5 -12.5s69.5 -22.833 105.5 -43.5l47 213h-319zM746.001 608.995c10 48 15.002 93.333 15.002 136
c0 52 -11 89.833 -33 113.5s-58.667 35.5 -110 35.5c-28 0 -54.667 -4.5 -80 -13.5s-51 -24 -77 -45s-50.833 -48.5 -74.5 -82.5s-45.167 -75.333 -64.5 -124s-34.333 -100.834 -45 -156.501s-16 -109.834 -16 -162.501c0 -69.333 9.5 -121.166 28.5 -155.499
s50.833 -51.5 95.5 -51.5c20.667 0 42.167 4.66699 64.5 14s47.166 26.5 74.499 51.5s58.333 61.833 93 110.5c31.333 44.667 56.166 88.834 74.499 132.501s33.5 95.167 45.5 154.5z" />
    <glyph glyph-name="Emacron" unicode="&#x112;" horiz-adv-x="1164" 
d="M1224 1365l-68.998 -307.001h-96c-2 48 -5.66699 85.5 -11 112.5s-11.333 47 -18 60s-14.334 22.667 -23.001 29s-19.5 10.833 -32.5 13.5s-31.5 4 -55.5 4h-326l-114 -524h191c29.333 0 53.833 4 73.5 12s37.834 21.833 54.501 41.5s35.334 49.834 56.001 90.501h91
l-90 -384h-85c0 36.667 -1.33301 63.667 -4 81s-6.16699 30.166 -10.5 38.499s-9.83301 14.833 -16.5 19.5s-15.334 8 -26.001 10s-28.334 3 -53.001 3h-200l-128 -577h296c29.333 0 54.166 2.16699 74.499 6.5s38.833 11.833 55.5 22.5s32.667 24.5 48 41.5
s31.166 38.833 47.499 65.5s38.5 67.334 66.5 122.001h97l-88 -346h-887l11 49c25.333 4 44.333 10.5 57 19.5s23.334 21.5 32.001 37.5s16.667 35.5 24 58.5s18.333 67.5 33 133.5l170 770c14.667 66.667 22 120.334 22 161.001c0 31.333 -8 53.166 -24 65.499
s-40.667 19.5 -74 21.5l11 49h920zM1101 1538h-530l26 125h530z" />
    <glyph glyph-name="emacron" unicode="&#x113;" horiz-adv-x="936" 
d="M814 199c-49.333 -54 -96.6689 -96.668 -142.002 -128.001s-90.666 -53.666 -135.999 -66.999s-95.333 -20 -150 -20c-52.667 0 -98 8.5 -136 25.5s-69.5 40.333 -94.5 70s-43.5 65 -55.5 106s-18 85.5 -18 133.5c0 71.333 12.833 147.833 38.5 229.5s64.5 155 116.5 220
s114.333 115.333 187 151s150 53.5 232 53.5c80.667 0 141.167 -16.333 181.5 -49s60.5 -83.667 60.5 -153c0 -113.333 -53.167 -198.333 -159.5 -255s-264.166 -85 -473.499 -85c-8 -40 -12 -83.333 -12 -130c0 -70 13.667 -120.833 41 -152.5s72 -47.5 134 -47.5
c61.333 0 117 13.333 167 40s102.333 67.667 157 123zM281.997 515.999c61.333 0.666992 115.168 4.16895 161.501 10.502s86.166 15 119.499 26s61 24.167 83 39.5s39.5 32.166 52.5 50.499s22 37.666 27 57.999s7.5 41.5 7.5 63.5c0 40.667 -9.5 72.5 -28.5 95.5
s-47.167 34.5 -84.5 34.5c-46.667 0 -92.5 -16.833 -137.5 -50.5s-84.667 -79 -119 -136s-61.5 -120.833 -81.5 -191.5zM909.999 1188h-501l26 125h501z" />
    <glyph glyph-name="Ebreve" unicode="&#x114;" horiz-adv-x="1164" 
d="M1224 1365l-68.998 -307.001h-96c-2 48 -5.66699 85.5 -11 112.5s-11.333 47 -18 60s-14.334 22.667 -23.001 29s-19.5 10.833 -32.5 13.5s-31.5 4 -55.5 4h-326l-114 -524h191c29.333 0 53.833 4 73.5 12s37.834 21.833 54.501 41.5s35.334 49.834 56.001 90.501h91
l-90 -384h-85c0 36.667 -1.33301 63.667 -4 81s-6.16699 30.166 -10.5 38.499s-9.83301 14.833 -16.5 19.5s-15.334 8 -26.001 10s-28.334 3 -53.001 3h-200l-128 -577h296c29.333 0 54.166 2.16699 74.499 6.5s38.833 11.833 55.5 22.5s32.667 24.5 48 41.5
s31.166 38.833 47.499 65.5s38.5 67.334 66.5 122.001h97l-88 -346h-887l11 49c25.333 4 44.333 10.5 57 19.5s23.334 21.5 32.001 37.5s16.667 35.5 24 58.5s18.333 67.5 33 133.5l170 770c14.667 66.667 22 120.334 22 161.001c0 31.333 -8 53.166 -24 65.499
s-40.667 19.5 -74 21.5l11 49h920zM1183 1748c-40.667 -62 -79.998 -111.667 -117.998 -149s-77.333 -64.5 -118 -81.5s-89.334 -25.5 -146.001 -25.5c-48 0 -88.167 12.5 -120.5 37.5s-56.333 59.5 -72 103.5s-23.5 94 -23.5 150l81 15
c5.33301 -61.333 21.166 -106.5 47.499 -135.5s63.5 -43.5 111.5 -43.5c38.667 0 72.5 4.83301 101.5 14.5s58.667 27 89 52s62.5 59.833 96.5 104.5z" />
    <glyph glyph-name="ebreve" unicode="&#x115;" horiz-adv-x="936" 
d="M814 199c-49.333 -54 -96.6689 -96.668 -142.002 -128.001s-90.666 -53.666 -135.999 -66.999s-95.333 -20 -150 -20c-52.667 0 -98 8.5 -136 25.5s-69.5 40.333 -94.5 70s-43.5 65 -55.5 106s-18 85.5 -18 133.5c0 71.333 12.833 147.833 38.5 229.5s64.5 155 116.5 220
s114.333 115.333 187 151s150 53.5 232 53.5c80.667 0 141.167 -16.333 181.5 -49s60.5 -83.667 60.5 -153c0 -113.333 -53.167 -198.333 -159.5 -255s-264.166 -85 -473.499 -85c-8 -40 -12 -83.333 -12 -130c0 -70 13.667 -120.833 41 -152.5s72 -47.5 134 -47.5
c61.333 0 117 13.333 167 40s102.333 67.667 157 123zM281.997 515.999c61.333 0.666992 115.168 4.16895 161.501 10.502s86.166 15 119.499 26s61 24.167 83 39.5s39.5 32.166 52.5 50.499s22 37.666 27 57.999s7.5 41.5 7.5 63.5c0 40.667 -9.5 72.5 -28.5 95.5
s-47.167 34.5 -84.5 34.5c-46.667 0 -92.5 -16.833 -137.5 -50.5s-84.667 -79 -119 -136s-61.5 -120.833 -81.5 -191.5zM993.999 1369c-38.667 -65.333 -77.501 -116.499 -116.501 -153.499s-78.667 -63.333 -119 -79s-85.833 -23.5 -136.5 -23.5
c-67.333 0 -119.333 25.5 -156 76.5s-55 122.833 -55 215.5l81 15c8 -120 59 -180 153 -180c38.667 0 72.167 5 100.5 15s56.833 27.167 85.5 51.5s59.334 59.166 92.001 104.499z" />
    <glyph glyph-name="Edotaccent" unicode="&#x116;" horiz-adv-x="1164" 
d="M1224 1365l-68.998 -307.001h-96c-2 48 -5.66699 85.5 -11 112.5s-11.333 47 -18 60s-14.334 22.667 -23.001 29s-19.5 10.833 -32.5 13.5s-31.5 4 -55.5 4h-326l-114 -524h191c29.333 0 53.833 4 73.5 12s37.834 21.833 54.501 41.5s35.334 49.834 56.001 90.501h91
l-90 -384h-85c0 36.667 -1.33301 63.667 -4 81s-6.16699 30.166 -10.5 38.499s-9.83301 14.833 -16.5 19.5s-15.334 8 -26.001 10s-28.334 3 -53.001 3h-200l-128 -577h296c29.333 0 54.166 2.16699 74.499 6.5s38.833 11.833 55.5 22.5s32.667 24.5 48 41.5
s31.166 38.833 47.499 65.5s38.5 67.334 66.5 122.001h97l-88 -346h-887l11 49c25.333 4 44.333 10.5 57 19.5s23.334 21.5 32.001 37.5s16.667 35.5 24 58.5s18.333 67.5 33 133.5l170 770c14.667 66.667 22 120.334 22 161.001c0 31.333 -8 53.166 -24 65.499
s-40.667 19.5 -74 21.5l11 49h920zM951.002 1699l-46 -194h-177l46 194h177z" />
    <glyph glyph-name="edotaccent" unicode="&#x117;" horiz-adv-x="936" 
d="M814 199c-49.333 -54 -96.6689 -96.668 -142.002 -128.001s-90.666 -53.666 -135.999 -66.999s-95.333 -20 -150 -20c-52.667 0 -98 8.5 -136 25.5s-69.5 40.333 -94.5 70s-43.5 65 -55.5 106s-18 85.5 -18 133.5c0 71.333 12.833 147.833 38.5 229.5s64.5 155 116.5 220
s114.333 115.333 187 151s150 53.5 232 53.5c80.667 0 141.167 -16.333 181.5 -49s60.5 -83.667 60.5 -153c0 -113.333 -53.167 -198.333 -159.5 -255s-264.166 -85 -473.499 -85c-8 -40 -12 -83.333 -12 -130c0 -70 13.667 -120.833 41 -152.5s72 -47.5 134 -47.5
c61.333 0 117 13.333 167 40s102.333 67.667 157 123zM281.997 515.999c61.333 0.666992 115.168 4.16895 161.501 10.502s86.166 15 119.499 26s61 24.167 83 39.5s39.5 32.166 52.5 50.499s22 37.666 27 57.999s7.5 41.5 7.5 63.5c0 40.667 -9.5 72.5 -28.5 95.5
s-47.167 34.5 -84.5 34.5c-46.667 0 -92.5 -16.833 -137.5 -50.5s-84.667 -79 -119 -136s-61.5 -120.833 -81.5 -191.5zM782.999 1348l-46 -194h-177l46 194h177z" />
    <glyph glyph-name="Eogonek" unicode="&#x118;" horiz-adv-x="1164" 
d="M1224 1365l-68.998 -307.002h-96c-2 48 -5.66699 85.5 -11 112.5s-11.333 47 -18 60s-14.334 22.667 -23.001 29s-19.5 10.833 -32.5 13.5s-31.5 4 -55.5 4h-326l-114 -524h191c29.333 0 53.833 4 73.5 12s37.834 21.833 54.501 41.5s35.334 49.834 56.001 90.501h91
l-90 -384h-85c0 36.667 -1.33301 63.667 -4 81s-6.16699 30.166 -10.5 38.499s-9.83301 14.833 -16.5 19.5s-15.334 8 -26.001 10s-28.334 3 -53.001 3h-200l-128 -577h296c29.333 0 54.166 2.16699 74.499 6.5s38.833 11.833 55.5 22.5s32.667 24.5 48 41.5
s31.166 38.833 47.499 65.5s38.5 67.334 66.5 122.001h97l-88 -346h-80c-74 -56.667 -125.833 -104.667 -155.5 -144s-44.5 -76.333 -44.5 -111c0 -32 6.66699 -54.167 20 -66.5s34 -18.5 62 -18.5c22 0 42.5 3.5 61.5 10.5s35.833 14.833 50.5 23.5l16 -68
c-24 -16.667 -51.667 -30.167 -83 -40.5s-60 -15.5 -86 -15.5c-58 0 -101.333 12.833 -130 38.5s-43 65.167 -43 118.5c0 44 20.167 89.333 60.5 136s98.833 92.334 175.5 137.001h-711l11 49c25.333 4 44.333 10.5 57 19.5s23.334 21.5 32.001 37.5s16.667 35.5 24 58.5
s18.333 67.5 33 133.5l170 770c14.667 66.667 22 120.334 22 161.001c0 31.333 -8 53.166 -24 65.499s-40.667 19.5 -74 21.5l11 49h920z" />
    <glyph glyph-name="eogonek" unicode="&#x119;" horiz-adv-x="936" 
d="M814 199c-42 -45.333 -84.002 -84.666 -126.002 -117.999c-35.333 -28 -67.5 -55.833 -96.5 -83.5s-53.833 -54.5 -74.5 -80.5s-36.667 -49.5 -48 -70.5s-19.166 -38.833 -23.499 -53.5s-6.5 -29 -6.5 -43c0 -19.333 2.16699 -35.333 6.5 -48s12.5 -22.834 24.5 -30.501
s29 -11.5 51 -11.5s42.5 3.5 61.5 10.5s35.833 14.833 50.5 23.5l16 -68c-24 -16.667 -51.667 -30.167 -83 -40.5s-60 -15.5 -86 -15.5c-58 0 -101.333 12.833 -130 38.5s-43 65.167 -43 118.5c0 42.667 16.833 87.167 50.5 133.5s81.834 91.833 144.501 136.5
c-40.667 -8.66699 -79.334 -13 -116.001 -13c-52.667 0 -98 8.5 -136 25.5s-69.5 40.333 -94.5 70s-43.5 65 -55.5 106s-18 85.5 -18 133.5c0 71.333 12.833 147.833 38.5 229.5s64.5 155 116.5 220s114.333 115.333 187 151s150 53.5 232 53.5
c80.667 0 141.167 -16.333 181.5 -49s60.5 -83.667 60.5 -153c0 -113.333 -53.167 -198.333 -159.5 -255s-264.166 -85 -473.499 -85c-8 -40 -12 -83.333 -12 -130c0 -70 13.667 -120.833 41 -152.5s72 -47.5 134 -47.5c61.333 0 117 13.333 167 40s102.333 67.667 157 123z
M281.998 516c61.333 0.666992 115.168 4.16895 161.501 10.502s86.166 15 119.499 26s61 24.167 83 39.5s39.5 32.166 52.5 50.499s22 37.666 27 57.999s7.5 41.5 7.5 63.5c0 40.667 -9.5 72.5 -28.5 95.5s-47.167 34.5 -84.5 34.5c-46.667 0 -92.5 -16.833 -137.5 -50.5
s-84.667 -79 -119 -136s-61.5 -120.833 -81.5 -191.5z" />
    <glyph glyph-name="Ecaron" unicode="&#x11a;" horiz-adv-x="1164" 
d="M1224 1365l-68.998 -307.001h-96c-2 48 -5.66699 85.5 -11 112.5s-11.333 47 -18 60s-14.334 22.667 -23.001 29s-19.5 10.833 -32.5 13.5s-31.5 4 -55.5 4h-326l-114 -524h191c29.333 0 53.833 4 73.5 12s37.834 21.833 54.501 41.5s35.334 49.834 56.001 90.501h91
l-90 -384h-85c0 36.667 -1.33301 63.667 -4 81s-6.16699 30.166 -10.5 38.499s-9.83301 14.833 -16.5 19.5s-15.334 8 -26.001 10s-28.334 3 -53.001 3h-200l-128 -577h296c29.333 0 54.166 2.16699 74.499 6.5s38.833 11.833 55.5 22.5s32.667 24.5 48 41.5
s31.166 38.833 47.499 65.5s38.5 67.334 66.5 122.001h97l-88 -346h-887l11 49c25.333 4 44.333 10.5 57 19.5s23.334 21.5 32.001 37.5s16.667 35.5 24 58.5s18.333 67.5 33 133.5l170 770c14.667 66.667 22 120.334 22 161.001c0 31.333 -8 53.166 -24 65.499
s-40.667 19.5 -74 21.5l11 49h920zM742.002 1468l-161 261l66 50l180 -182h10l263 183l52 -62l-274 -250h-136z" />
    <glyph glyph-name="ecaron" unicode="&#x11b;" horiz-adv-x="936" 
d="M814 199c-49.333 -54 -96.6689 -96.668 -142.002 -128.001s-90.666 -53.666 -135.999 -66.999s-95.333 -20 -150 -20c-52.667 0 -98 8.5 -136 25.5s-69.5 40.333 -94.5 70s-43.5 65 -55.5 106s-18 85.5 -18 133.5c0 71.333 12.833 147.833 38.5 229.5s64.5 155 116.5 220
s114.333 115.333 187 151s150 53.5 232 53.5c80.667 0 141.167 -16.333 181.5 -49s60.5 -83.667 60.5 -153c0 -113.333 -53.167 -198.333 -159.5 -255s-264.166 -85 -473.499 -85c-8 -40 -12 -83.333 -12 -130c0 -70 13.667 -120.833 41 -152.5s72 -47.5 134 -47.5
c61.333 0 117 13.333 167 40s102.333 67.667 157 123zM281.997 515.999c61.333 0.666992 115.168 4.16895 161.501 10.502s86.166 15 119.499 26s61 24.167 83 39.5s39.5 32.166 52.5 50.499s22 37.666 27 57.999s7.5 41.5 7.5 63.5c0 40.667 -9.5 72.5 -28.5 95.5
s-47.167 34.5 -84.5 34.5c-46.667 0 -92.5 -16.833 -137.5 -50.5s-84.667 -79 -119 -136s-61.5 -120.833 -81.5 -191.5zM565.999 1080l-132 335l78 37l138 -243h10l256 243l63 -57l-278 -315h-135z" />
    <glyph glyph-name="Gcircumflex" unicode="&#x11c;" horiz-adv-x="1198" 
d="M816 320c14.667 62.667 22.001 116.333 22.001 161c0 31.333 -8 53.166 -24 65.499s-40.667 19.5 -74 21.5l11 49h400l-11 -49c-22.667 -5.33301 -38.834 -10.333 -48.501 -15s-18.167 -11.167 -25.5 -19.5s-14.666 -19.833 -21.999 -34.5s-14.833 -35.834 -22.5 -63.501
s-16.834 -66.5 -27.501 -116.5l-69 -314l-79 -22l-52 79c-48 -22.667 -85.333 -38.667 -112 -48s-54.334 -16.666 -83.001 -21.999s-59 -8 -91 -8c-82 0 -151.833 17.333 -209.5 52s-101 84.167 -130 148.5s-43.5 140.5 -43.5 228.5c0 71.333 7.33301 144.333 22 219
c16.667 84.667 39 163.667 67 237c26.667 70.667 57.5 133.834 92.5 189.501s74.167 105.167 117.5 148.5c38 37.333 79.667 69 125 95s93 45.667 143 59s102.667 20 158 20c63.333 0 121.333 -3.83301 174 -11.5s110.334 -21.5 173.001 -41.5l-61 -269h-96
c-4.66699 58 -14.5 103.833 -29.5 137.5s-36.667 58.167 -65 73.5s-65.166 23 -110.499 23c-56 0 -107.667 -14.833 -155 -44.5s-92.833 -73.167 -136.5 -130.5s-83.334 -129.666 -119.001 -216.999s-63 -176.333 -82 -267s-28.5 -172.667 -28.5 -246
c0 -108 17.833 -187.833 53.5 -239.5s90.5 -77.5 164.5 -77.5c27.333 0 55.333 3.16699 84 9.5s55.5 17.166 80.5 32.499s47.167 36 66.5 62s33.333 58.667 42 98zM959.001 1780l161 -261l-66 -50l-180 182h-10l-263 -183l-52 62l274 250h136z" />
    <glyph glyph-name="gcircumflex" unicode="&#x11d;" horiz-adv-x="1070" 
d="M102 -86c-12.667 -15.333 -23.334 -30.5 -32.001 -45.5s-14.834 -29.5 -18.501 -43.5s-5.5 -30.667 -5.5 -50c0 -50 18 -86.5 54 -109.5s90.333 -34.5 163 -34.5c66 0 121 11.667 165 35s81.333 59.166 112 107.499s57.5 108 80.5 179s46.5 165.833 70.5 284.5l-14 3
c-64.667 -88.667 -124.667 -153.334 -180 -194.001s-115 -61 -179 -61c-72.667 0 -129.167 27.333 -169.5 82s-60.5 132.667 -60.5 234c0 74 9.66699 147 29 219s46.333 137 81 195s73.834 106.167 117.501 144.5s89.834 66.833 138.501 85.5s99.334 28 152.001 28
c42 0 81.667 -5 119 -15s75 -27 113 -51l92 66l64 -16l-104 -469c-7.33301 -33.333 -15 -71 -23 -113l-26 -131c-31.333 -157.333 -56.333 -265.666 -75 -324.999c-22.667 -68.667 -49.334 -126 -80.001 -172c-28.667 -42 -62.667 -77.167 -102 -105.5
s-84.833 -50.166 -136.5 -65.499s-112.5 -23 -182.5 -23c-252 0 -378 73.333 -378 220c0 37.333 11.333 71.333 34 102s59 63 109 97zM389 103c34 0 67.834 11.667 101.501 35s69.667 60.333 108 111s68.166 99 89.499 145s39.5 103.333 54.5 172s22.5 128.334 22.5 179.001
c0 52 -11 89.833 -33 113.5s-58.667 35.5 -110 35.5c-28 0 -54.667 -4.5 -80 -13.5s-51 -24 -77 -45s-50.833 -48.5 -74.5 -82.5s-45.167 -75.333 -64.5 -124s-34.333 -100.834 -45 -156.501s-16 -109.834 -16 -162.501c0 -69.333 10 -121.166 30 -155.499
s51.333 -51.5 94 -51.5zM815.001 1432l132 -337l-79 -35l-138 243h-10l-256 -243l-62 57l277 315h136z" />
    <glyph glyph-name="Gbreve" unicode="&#x11e;" horiz-adv-x="1198" 
d="M816 320c14.667 62.667 22.001 116.333 22.001 161c0 31.333 -8 53.166 -24 65.499s-40.667 19.5 -74 21.5l11 49h400l-11 -49c-22.667 -5.33301 -38.834 -10.333 -48.501 -15s-18.167 -11.167 -25.5 -19.5s-14.666 -19.833 -21.999 -34.5s-14.833 -35.834 -22.5 -63.501
s-16.834 -66.5 -27.501 -116.5l-69 -314l-79 -22l-52 79c-48 -22.667 -85.333 -38.667 -112 -48s-54.334 -16.666 -83.001 -21.999s-59 -8 -91 -8c-82 0 -151.833 17.333 -209.5 52s-101 84.167 -130 148.5s-43.5 140.5 -43.5 228.5c0 71.333 7.33301 144.333 22 219
c16.667 84.667 39 163.667 67 237c26.667 70.667 57.5 133.834 92.5 189.501s74.167 105.167 117.5 148.5c38 37.333 79.667 69 125 95s93 45.667 143 59s102.667 20 158 20c63.333 0 121.333 -3.83301 174 -11.5s110.334 -21.5 173.001 -41.5l-61 -269h-96
c-4.66699 58 -14.5 103.833 -29.5 137.5s-36.667 58.167 -65 73.5s-65.166 23 -110.499 23c-56 0 -107.667 -14.833 -155 -44.5s-92.833 -73.167 -136.5 -130.5s-83.334 -129.666 -119.001 -216.999s-63 -176.333 -82 -267s-28.5 -172.667 -28.5 -246
c0 -108 17.833 -187.833 53.5 -239.5s90.5 -77.5 164.5 -77.5c27.333 0 55.333 3.16699 84 9.5s55.5 17.166 80.5 32.499s47.167 36 66.5 62s33.333 58.667 42 98zM1186 1748c-40.667 -62 -79.998 -111.667 -117.998 -149s-77.333 -64.5 -118 -81.5
s-89.334 -25.5 -146.001 -25.5c-48 0 -88.167 12.5 -120.5 37.5s-56.333 59.5 -72 103.5s-23.5 94 -23.5 150l81 15c5.33301 -61.333 21.166 -106.5 47.499 -135.5s63.5 -43.5 111.5 -43.5c38.667 0 72.5 4.83301 101.5 14.5s58.667 27 89 52s62.5 59.833 96.5 104.5z" />
    <glyph glyph-name="gbreve" unicode="&#x11f;" horiz-adv-x="1070" 
d="M102 -86c-12.667 -15.333 -23.334 -30.5 -32.001 -45.5s-14.834 -29.5 -18.501 -43.5s-5.5 -30.667 -5.5 -50c0 -50 18 -86.5 54 -109.5s90.333 -34.5 163 -34.5c66 0 121 11.667 165 35s81.333 59.166 112 107.499s57.5 108 80.5 179s46.5 165.833 70.5 284.5l-14 3
c-64.667 -88.667 -124.667 -153.334 -180 -194.001s-115 -61 -179 -61c-72.667 0 -129.167 27.333 -169.5 82s-60.5 132.667 -60.5 234c0 74 9.66699 147 29 219s46.333 137 81 195s73.834 106.167 117.501 144.5s89.834 66.833 138.501 85.5s99.334 28 152.001 28
c42 0 81.667 -5 119 -15s75 -27 113 -51l92 66l64 -16l-104 -469c-7.33301 -33.333 -15 -71 -23 -113l-26 -131c-31.333 -157.333 -56.333 -265.666 -75 -324.999c-22.667 -68.667 -49.334 -126 -80.001 -172c-28.667 -42 -62.667 -77.167 -102 -105.5
s-84.833 -50.166 -136.5 -65.499s-112.5 -23 -182.5 -23c-252 0 -378 73.333 -378 220c0 37.333 11.333 71.333 34 102s59 63 109 97zM389 103c34 0 67.834 11.667 101.501 35s69.667 60.333 108 111s68.166 99 89.499 145s39.5 103.333 54.5 172s22.5 128.334 22.5 179.001
c0 52 -11 89.833 -33 113.5s-58.667 35.5 -110 35.5c-28 0 -54.667 -4.5 -80 -13.5s-51 -24 -77 -45s-50.833 -48.5 -74.5 -82.5s-45.167 -75.333 -64.5 -124s-34.333 -100.834 -45 -156.501s-16 -109.834 -16 -162.501c0 -69.333 10 -121.166 30 -155.499
s51.333 -51.5 94 -51.5zM1026 1369c-38.667 -65.333 -77.501 -116.499 -116.501 -153.499s-78.667 -63.333 -119 -79s-85.833 -23.5 -136.5 -23.5c-67.333 0 -119.333 25.5 -156 76.5s-55 122.833 -55 215.5l81 15c8 -120 59 -180 153 -180c38.667 0 72.167 5 100.5 15
s56.833 27.167 85.5 51.5s59.334 59.166 92.001 104.499z" />
    <glyph glyph-name="Gdotaccent" unicode="&#x120;" horiz-adv-x="1198" 
d="M816 320c14.667 62.667 22.001 116.333 22.001 161c0 31.333 -8 53.166 -24 65.499s-40.667 19.5 -74 21.5l11 49h400l-11 -49c-22.667 -5.33301 -38.834 -10.333 -48.501 -15s-18.167 -11.167 -25.5 -19.5s-14.666 -19.833 -21.999 -34.5s-14.833 -35.834 -22.5 -63.501
s-16.834 -66.5 -27.501 -116.5l-69 -314l-79 -22l-52 79c-48 -22.667 -85.333 -38.667 -112 -48s-54.334 -16.666 -83.001 -21.999s-59 -8 -91 -8c-82 0 -151.833 17.333 -209.5 52s-101 84.167 -130 148.5s-43.5 140.5 -43.5 228.5c0 71.333 7.33301 144.333 22 219
c16.667 84.667 39 163.667 67 237c26.667 70.667 57.5 133.834 92.5 189.501s74.167 105.167 117.5 148.5c38 37.333 79.667 69 125 95s93 45.667 143 59s102.667 20 158 20c63.333 0 121.333 -3.83301 174 -11.5s110.334 -21.5 173.001 -41.5l-61 -269h-96
c-4.66699 58 -14.5 103.833 -29.5 137.5s-36.667 58.167 -65 73.5s-65.166 23 -110.499 23c-56 0 -107.667 -14.833 -155 -44.5s-92.833 -73.167 -136.5 -130.5s-83.334 -129.666 -119.001 -216.999s-63 -176.333 -82 -267s-28.5 -172.667 -28.5 -246
c0 -108 17.833 -187.833 53.5 -239.5s90.5 -77.5 164.5 -77.5c27.333 0 55.333 3.16699 84 9.5s55.5 17.166 80.5 32.499s47.167 36 66.5 62s33.333 58.667 42 98zM963.001 1699l-46 -194h-177l46 194h177z" />
    <glyph glyph-name="gdotaccent" unicode="&#x121;" horiz-adv-x="1070" 
d="M102 -86c-12.667 -15.333 -23.334 -30.5 -32.001 -45.5s-14.834 -29.5 -18.501 -43.5s-5.5 -30.667 -5.5 -50c0 -50 18 -86.5 54 -109.5s90.333 -34.5 163 -34.5c66 0 121 11.667 165 35s81.333 59.166 112 107.499s57.5 108 80.5 179s46.5 165.833 70.5 284.5l-14 3
c-64.667 -88.667 -124.667 -153.334 -180 -194.001s-115 -61 -179 -61c-72.667 0 -129.167 27.333 -169.5 82s-60.5 132.667 -60.5 234c0 74 9.66699 147 29 219s46.333 137 81 195s73.834 106.167 117.501 144.5s89.834 66.833 138.501 85.5s99.334 28 152.001 28
c42 0 81.667 -5 119 -15s75 -27 113 -51l92 66l64 -16l-104 -469c-7.33301 -33.333 -15 -71 -23 -113l-26 -131c-31.333 -157.333 -56.333 -265.666 -75 -324.999c-22.667 -68.667 -49.334 -126 -80.001 -172c-28.667 -42 -62.667 -77.167 -102 -105.5
s-84.833 -50.166 -136.5 -65.499s-112.5 -23 -182.5 -23c-252 0 -378 73.333 -378 220c0 37.333 11.333 71.333 34 102s59 63 109 97zM389 103c34 0 67.834 11.667 101.501 35s69.667 60.333 108 111s68.166 99 89.499 145s39.5 103.333 54.5 172s22.5 128.334 22.5 179.001
c0 52 -11 89.833 -33 113.5s-58.667 35.5 -110 35.5c-28 0 -54.667 -4.5 -80 -13.5s-51 -24 -77 -45s-50.833 -48.5 -74.5 -82.5s-45.167 -75.333 -64.5 -124s-34.333 -100.834 -45 -156.501s-16 -109.834 -16 -162.501c0 -69.333 10 -121.166 30 -155.499
s51.333 -51.5 94 -51.5zM817.001 1348l-46 -194h-177l46 194h177z" />
    </font>
</defs>
</svg>
