<?xml version="1.0" encoding="UTF-8"?><!DOCTYPE svg PUBLIC "-//W3C//DTD SVG 1.1//EN" "http://www.w3.org/Graphics/SVG/1.1/DTD/svg11.dtd"><svg xmlns="http://www.w3.org/2000/svg"><defs><style>.cls-1,.cls-4{fill:#f49315}.cls-1{clip-rule:evenodd}.cls-2{fill:#8f9d59}.cls-2,.cls-3,.cls-4,.cls-6{fill-rule:evenodd}.cls-3{fill:#d97b00}.cls-5{clip-path:url(#clip-path)}.cls-6{fill:#fff}.cls-7{font-size:28px;fill:#8e9c58;font-family:Cambria-Bold,Cambria;font-weight:700}.cls-8{font-size:17px;fill:#f39214;font-family:Cambria,Cambria}.cls-9{letter-spacing:.02em}</style><clipPath id="clip-path" transform="translate(-2.75 -3)"><path class="cls-1" d="M104.09 20.81c-11.19 15-23 12.71-32.94 16.41-9.32 3.46-5.76 16.57-2.86 23.32 1.89 4.39 6.46 11.58 10.09 17a37.54 37.54 0 0 0 25.7-56.74z" fill="#f49315" clip-rule="evenodd"/></clipPath></defs><symbol id="logo" viewBox="0 0 134.42 189.94"><title>logo</title><path class="cls-2" d="M71.74 11.15a6.27 6.27 0 1 1-6.27 6.27 6.27 6.27 0 0 1 6.27-6.27zm-6.57 55.13c-4-6.38-8.65-12.82-8.67-21a18.21 18.21 0 0 1 2.42-9.48c2.89-3.95 5.39-7.21 12.37-7.72 13.47-1 18.9 4.54 32.8-7.24a37.53 37.53 0 0 0-60.59-4.55c3.33 3.23 8.14 6.85 14 8.33a62.74 62.74 0 0 1 7.24 2.27A24.13 24.13 0 0 0 58 32.53c-7.1-4.15-14.53-9.11-19.58-22.17a45.52 45.52 0 0 0 1.55 10.93 37.55 37.55 0 0 0 18.55 54.22c2.82 3.83 9.08 11.89 13.23 13.82q-1.52-1.86-2.9-3.76a64.5 64.5 0 0 1-9.21-16.77A70.66 70.66 0 0 1 55 46.64c1.49 9.85 5.87 16.55 9.82 22.56l.07.1q1.33 4.24 2.77 8.47h.2c1.3.15 2.87.23 4.21.24a33.78 33.78 0 0 0 11.37 6.89C77 80.24 70.65 75 65.17 66.28z" transform="translate(-2.75 -3)" fill="#8f9d59" fill-rule="evenodd"/><path class="cls-3" d="M104.09 20.81c-11.19 15-23 12.71-32.94 16.41-9.32 3.46-5.76 16.57-2.86 23.32 1.89 4.39 6.46 11.58 10.09 17a37.54 37.54 0 0 0 25.7-56.74z" transform="translate(-2.75 -3)" fill-rule="evenodd" fill="#d97b00"/><path class="cls-4" fill="#f49315" d="M104.09 20.81c-11.19 15-23 12.71-32.94 16.41-9.32 3.46-5.76 16.57-2.86 23.32 1.89 4.39 6.46 11.58 10.09 17a37.54 37.54 0 0 0 25.7-56.74z" transform="translate(-2.75 -3)" fill-rule="evenodd"/><g class="cls-5"><path class="cls-4" fill="#f49315" d="M105.83 20.33c-9 16.68-23.17 15-33.13 18.73-9.32 3.46-4.79 15.6-1.9 22.35A123.29 123.29 0 0 0 80 79c17.79-3 32.2-19 32.2-37.6 0-7.24-2.82-15.34-6.37-21.07z" transform="translate(-2.75 -3)" fill-rule="evenodd" clip-path="url(#clip-path)"/></g><path class="cls-2" d="M58.52 75.51Q47.5 47.12 55.88 35C49 33.16 42.31 27.21 39.93 21.28a37.55 37.55 0 0 0 18.59 54.23z" transform="translate(-2.75 -3)" fill="#8f9d59" fill-rule="evenodd"/><path class="cls-6" d="M64.85 69.31l-.07-.1c-3.94-6-8.33-12.71-9.82-22.56q1.18 23.55 16.78 42.69-3.74-10-6.89-20z" transform="translate(-2.75 -3)" fill-rule="evenodd" fill="#fff"/><text class="cls-7" transform="translate(3.6 113.18)" font-size="28" fill="#8e9c58" font-family="Cambria-Bold, Cambria" font-weight="700">&#x427;&#x415;&#x41B;&#x41E;&#x412;&#x415;&#x41A;</text><text class="cls-8" x="-2.75" y="-3" font-size="17" fill="#f39214" font-family="Cambria, Cambria"><tspan x="2.79" y="148.07">&#x438; &#x43F;&#x440;&#x43E;&#x444;&#x438;&#x43B;&#x430;&#x43A;&#x442;&#x438;&#x43A;&#x438;</tspan></text><text class="cls-8" transform="translate(0 131.75)" font-size="17" fill="#f39214" font-family="Cambria, Cambria"><tspan class="cls-9" letter-spacing=".02em">&#x43A;</tspan> <tspan x="9.45" y="0">&#x43B;&#x438;&#x43D;&#x438;&#x43A;&#x430; &#x43B;&#x435;&#x447;&#x435;&#x43D;&#x438;&#x44F;</tspan></text></symbol></svg>